SplineFontDB: 3.0
FontName: LilitaOne
FullName: Lilita One
FamilyName: Lilita One
Weight: Book
Copyright: Copyright (c) 2011 Juan Montoreano (juan@remolacha.biz), with Reserved Font Names "Lilita One"
Version: 1.002
ItalicAngle: 0
UnderlinePosition: -50
UnderlineWidth: 50
Ascent: 800
Descent: 200
sfntRevision: 0x00010083
LayerCount: 2
Layer: 0 1 "Back"  1
Layer: 1 1 "Fore"  0
XUID: [1021 975 1025933293 9698472]
FSType: 0
OS2Version: 2
OS2_WeightWidthSlopeOnly: 0
OS2_UseTypoMetrics: 1
CreationTime: 1325880183
ModificationTime: 1325881674
PfmFamily: 17
TTFWeight: 400
TTFWidth: 5
LineGap: 0
VLineGap: 0
Panose: 2 0 0 0 0 0 0 0 0 0
OS2TypoAscent: 122
OS2TypoAOffset: 1
OS2TypoDescent: -19
OS2TypoDOffset: 1
OS2TypoLinegap: 0
OS2WinAscent: 0
OS2WinAOffset: 1
OS2WinDescent: 0
OS2WinDOffset: 1
HheadAscent: 0
HheadAOffset: 1
HheadDescent: 0
HheadDOffset: 1
OS2SubXSize: 700
OS2SubYSize: 650
OS2SubXOff: 0
OS2SubYOff: 140
OS2SupXSize: 700
OS2SupYSize: 650
OS2SupXOff: 0
OS2SupYOff: 477
OS2StrikeYSize: 50
OS2StrikeYPos: 250
OS2Vendor: 'PYRS'
OS2CodePages: 00000001.00000000
OS2UnicodeRanges: 8000002f.4000004a.00000000.00000000
Lookup: 258 0 0 "'kern' Horizontal Kerning in Latin lookup 0"  {"'kern' Horizontal Kerning in Latin lookup 0 subtable"  } ['kern' ('latn' <'dflt' > ) ]
DEI: 91125
TtTable: prep
PUSHW_1
 511
SCANCTRL
PUSHB_1
 4
SCANTYPE
EndTTInstrs
ShortTable: maxp 16
  1
  0
  229
  77
  6
  0
  0
  2
  0
  1
  1
  0
  64
  0
  0
  0
EndShort
LangName: 1033 "" "" "Regular" "JuanMontoreano: Lilita One: 2011" "" "Version 1.002" "" "Lilita is a trademark of Juan Montoreano." "Juan Montoreano" "Juan Montoreano" "" "" "www.remolacha.biz" "This Font Software is licensed under the SIL Open Font License, Version 1.1. This license is available with a FAQ at: http://scripts.sil.org/OFL" "http://scripts.sil.org/OFL" 
GaspTable: 1 65535 15 1
Encoding: UnicodeBmp
UnicodeInterp: none
NameList: Adobe Glyph List
DisplaySize: -24
AntiAlias: 1
FitToEm: 1
BeginChars: 65540 229

StartChar: exclam
Encoding: 33 33 4
Width: 287
GlyphClass: 2
Flags: W
LayerCount: 2
Fore
SplineSet
210 210 m 2,0,1
 210 204 210 204 138.5 204 c 128,-1,2
 67 204 67 204 67 209 c 2,3,-1
 47 702 l 2,4,5
 47 710 47 710 138.5 710 c 128,-1,6
 230 710 230 710 230 703 c 2,7,-1
 210 210 l 2,0,1
45 150 m 2,8,9
 45 157 45 157 137.5 157 c 128,-1,10
 230 157 230 157 230 151 c 2,11,-1
 230 7 l 2,12,13
 230 -3 230 -3 137.5 -3 c 128,-1,14
 45 -3 45 -3 45 3 c 2,15,-1
 45 150 l 2,8,9
EndSplineSet
EndChar

StartChar: quotedbl
Encoding: 34 34 5
Width: 460
GlyphClass: 2
Flags: W
LayerCount: 2
Fore
SplineSet
208 663 m 2,0,-1
 208 452 l 2,1,2
 208 434 208 434 180 426 c 0,3,4
 166 422 166 422 152 422 c 128,-1,5
 138 422 138 422 124 426 c 0,6,7
 95 434 95 434 95 452 c 1,8,-1
 65 663 l 1,9,10
 65 681 65 681 100 689 c 0,11,12
 118 693 118 693 136 693 c 128,-1,13
 154 693 154 693 172 689 c 0,14,15
 208 681 208 681 208 663 c 2,0,-1
312 422 m 128,-1,17
 298 422 298 422 284 426 c 0,18,19
 255 434 255 434 255 452 c 2,20,-1
 255 663 l 2,21,22
 255 681 255 681 290 689 c 0,23,24
 308 693 308 693 326 693 c 128,-1,25
 344 693 344 693 362 689 c 0,26,27
 398 681 398 681 398 663 c 1,28,-1
 368 452 l 1,29,30
 368 434 368 434 340 426 c 0,31,16
 326 422 326 422 312 422 c 128,-1,17
EndSplineSet
EndChar

StartChar: numbersign
Encoding: 35 35 6
Width: 833
GlyphClass: 2
Flags: W
LayerCount: 2
Fore
SplineSet
704 300 m 2,0,1
 722 300 722 300 730 271 c 0,2,3
 735 255 735 255 735 240.5 c 128,-1,4
 735 226 735 226 732 213 c 0,5,6
 725 184 725 184 706 184 c 2,7,-1
 556 183 l 1,8,-1
 499 14 l 2,9,10
 493 -1 493 -1 469 -1 c 0,11,12
 448 -1 448 -1 425 10 c 0,13,14
 379 32 379 32 390 55 c 1,15,-1
 433 183 l 1,16,-1
 317 183 l 1,17,-1
 260 15 l 2,18,19
 255 1 255 1 232 1 c 256,20,21
 209 1 209 1 186 12 c 0,22,23
 140 34 140 34 151 57 c 1,24,-1
 193 183 l 1,25,-1
 118 183 l 2,26,27
 107 183 107 183 100 195 c 0,28,29
 91 209 91 209 91 228 c 128,-1,30
 91 247 91 247 93 262 c 128,-1,31
 95 277 95 277 103.5 288.5 c 128,-1,32
 112 300 112 300 123 299 c 1,33,-1
 233 299 l 1,34,-1
 268 403 l 1,35,-1
 154 403 l 2,36,37
 143 403 143 403 136 415 c 0,38,39
 127 429 127 429 127 448 c 128,-1,40
 127 467 127 467 129 482 c 128,-1,41
 131 497 131 497 139.5 508.5 c 128,-1,42
 148 520 148 520 159 519 c 1,43,-1
 307 519 l 1,44,-1
 357 666 l 2,45,46
 363 682 363 682 389 682 c 0,47,48
 409 682 409 682 432 672 c 0,49,50
 477 652 477 652 469 631 c 2,51,-1
 431 519 l 1,52,-1
 547 519 l 1,53,-1
 596 665 l 2,54,55
 604 687 604 687 645 678 c 1,56,57
 687 670 687 670 703 650 c 0,58,59
 712 639 712 639 708 629 c 2,60,-1
 671 520 l 1,61,-1
 740 520 l 2,62,63
 758 520 758 520 766 491 c 0,64,65
 771 475 771 475 771 460.5 c 128,-1,66
 771 446 771 446 768 433 c 0,67,68
 761 404 761 404 742 404 c 2,69,-1
 631 404 l 1,70,-1
 596 300 l 1,71,-1
 704 300 l 2,0,1
384 412 m 1,72,-1
 343 290 l 1,73,-1
 479 290 l 1,74,-1
 520 412 l 1,75,-1
 384 412 l 1,72,-1
EndSplineSet
EndChar

StartChar: dollar
Encoding: 36 36 7
Width: 531
GlyphClass: 2
Flags: W
LayerCount: 2
Fore
SplineSet
303 767 m 2,0,-1
 303 710 l 1,1,2
 377 707 377 707 431 689.5 c 128,-1,3
 485 672 485 672 485 637 c 0,4,5
 485 606 485 606 464.5 555 c 128,-1,6
 444 504 444 504 436 501 c 1,7,8
 352 536 352 536 303 540 c 1,9,-1
 303 427 l 1,10,11
 513 419 513 419 513 225 c 0,12,13
 513 134 513 134 461 69 c 128,-1,14
 409 4 409 4 303 -7 c 1,15,-1
 303 -76 l 2,16,17
 303 -94 303 -94 292.5 -100 c 128,-1,18
 282 -106 282 -106 275 -106 c 1,19,-1
 261 -102 l 1,20,21
 247 -94 247 -94 247 -76 c 2,22,-1
 247 -10 l 1,23,24
 163 -8 163 -8 98.5 20 c 128,-1,25
 34 48 34 48 34 91 c 0,26,27
 34 147 34 147 68 204 c 0,28,29
 71 210 71 210 76 217 c 1,30,31
 157 168 157 168 247 162 c 1,32,-1
 247 272 l 1,33,34
 34 285 34 285 34 490 c 0,35,36
 34 580 34 580 91 638 c 128,-1,37
 148 696 148 696 247 708 c 1,38,-1
 247 767 l 2,39,40
 247 785 247 785 257.5 791 c 128,-1,41
 268 797 268 797 275 797 c 1,42,-1
 289 793 l 1,43,44
 303 785 303 785 303 767 c 2,0,-1
374 230 m 0,45,46
 374 253 374 253 358.5 261.5 c 128,-1,47
 343 270 343 270 303 272 c 1,48,-1
 303 164 l 1,49,50
 374 176 374 176 374 230 c 0,45,46
186 479 m 0,51,52
 186 437 186 437 247 430 c 1,53,-1
 247 539 l 1,54,55
 186 529 186 529 186 479 c 0,51,52
EndSplineSet
EndChar

StartChar: uni0025
Encoding: 37 37 8
Width: 798
GlyphClass: 2
Flags: W
LayerCount: 2
Fore
SplineSet
297 662 m 128,-1,1
 340 613 340 613 340 518.5 c 128,-1,2
 340 424 340 424 297.5 375 c 128,-1,3
 255 326 255 326 188 326 c 128,-1,4
 121 326 121 326 78 373.5 c 128,-1,5
 35 421 35 421 35 517.5 c 128,-1,6
 35 614 35 614 77 662.5 c 128,-1,7
 119 711 119 711 186.5 711 c 128,-1,0
 254 711 254 711 297 662 c 128,-1,1
235 519 m 0,8,9
 235 584 235 584 188 584 c 128,-1,10
 141 584 141 584 141 519 c 0,11,12
 141 488 141 488 154 472 c 128,-1,13
 167 456 167 456 188 456 c 128,-1,14
 209 456 209 456 222 472 c 128,-1,15
 235 488 235 488 235 519 c 0,8,9
710 328 m 128,-1,17
 753 279 753 279 753 184.5 c 128,-1,18
 753 90 753 90 710.5 41 c 128,-1,19
 668 -8 668 -8 601 -8 c 128,-1,20
 534 -8 534 -8 491 39.5 c 128,-1,21
 448 87 448 87 448 183.5 c 128,-1,22
 448 280 448 280 490 328.5 c 128,-1,23
 532 377 532 377 599.5 377 c 128,-1,16
 667 377 667 377 710 328 c 128,-1,17
648 185 m 0,24,25
 648 250 648 250 601 250 c 128,-1,26
 554 250 554 250 554 185 c 0,27,28
 554 154 554 154 567 138 c 128,-1,29
 580 122 580 122 601 122 c 128,-1,30
 622 122 622 122 635 138 c 128,-1,31
 648 154 648 154 648 185 c 0,24,25
578 702 m 1,32,33
 587 710 587 710 597 710 c 0,34,35
 634 710 634 710 664 673 c 0,36,37
 676 658 676 658 676 648.5 c 128,-1,38
 676 639 676 639 672 634 c 2,39,-1
 197 -2 l 1,40,41
 188 -10 188 -10 178 -10 c 0,42,43
 142 -10 142 -10 112 28 c 0,44,45
 99 43 99 43 99 52 c 128,-1,46
 99 61 99 61 103 66 c 2,47,-1
 578 702 l 1,32,33
EndSplineSet
EndChar

StartChar: ampersand
Encoding: 38 38 9
Width: 667
GlyphClass: 2
Flags: W
LayerCount: 2
Fore
SplineSet
349 489 m 1,0,-1
 350 499 l 1,1,2
 350 524 350 524 333.5 539 c 128,-1,3
 317 554 317 554 293 554 c 128,-1,4
 269 554 269 554 253 538 c 128,-1,5
 237 522 237 522 237 494 c 0,6,7
 237 418 237 418 344 418 c 0,8,9
 368 418 368 418 398 422 c 0,10,11
 595 447 595 447 597 447 c 0,12,13
 625 447 625 447 625 390 c 0,14,15
 625 344 625 344 606 299 c 1,16,-1
 504 287 l 1,17,18
 530 224 530 224 530 173 c 0,19,20
 530 94 530 94 469.5 42 c 128,-1,21
 409 -10 409 -10 293.5 -10 c 128,-1,22
 178 -10 178 -10 111 46.5 c 128,-1,23
 44 103 44 103 44 191.5 c 128,-1,24
 44 280 44 280 129 343 c 1,25,26
 66 413 66 413 66 505 c 128,-1,27
 66 597 66 597 130 653.5 c 128,-1,28
 194 710 194 710 296 710 c 128,-1,29
 398 710 398 710 457.5 660 c 128,-1,30
 517 610 517 610 517 525 c 0,31,32
 517 508 517 508 484.5 492 c 128,-1,33
 452 476 452 476 407 476 c 128,-1,34
 362 476 362 476 349 489 c 1,0,-1
239 285 m 1,35,36
 228 256 228 256 228 233.5 c 128,-1,37
 228 211 228 211 235 194 c 0,38,39
 251 155 251 155 299 155 c 0,40,41
 333 155 333 155 348.5 179.5 c 128,-1,42
 364 204 364 204 364 241 c 0,43,44
 364 258 364 258 363 266.5 c 128,-1,45
 362 275 362 275 362 277 c 1,46,47
 328 271 328 271 295 271 c 128,-1,48
 262 271 262 271 239 285 c 1,35,36
EndSplineSet
EndChar

StartChar: quotesingle
Encoding: 39 39 10
Width: 301
GlyphClass: 2
Flags: W
LayerCount: 2
Fore
SplineSet
146 422 m 128,-1,1
 132 422 132 422 118 426 c 0,2,3
 90 434 90 434 90 452 c 1,4,-1
 70 663 l 1,5,6
 70 681 70 681 108 689 c 0,7,8
 127 693 127 693 146 693 c 128,-1,9
 165 693 165 693 184 689 c 0,10,11
 223 681 223 681 223 663 c 1,12,-1
 203 452 l 1,13,14
 203 434 203 434 174 426 c 0,15,0
 160 422 160 422 146 422 c 128,-1,1
EndSplineSet
EndChar

StartChar: parenleft
Encoding: 40 40 11
Width: 430
GlyphClass: 2
Flags: W
LayerCount: 2
Fore
SplineSet
190 676 m 0,0,1
 201 696 201 696 224 696 c 0,2,3
 259 696 259 696 282 687 c 128,-1,4
 305 678 305 678 316.5 673.5 c 128,-1,5
 328 669 328 669 341 661 c 1,6,7
 293 555 293 555 269.5 478 c 128,-1,8
 246 401 246 401 246 311 c 0,9,10
 247 138 247 138 344 -28 c 1,11,12
 334 -38 334 -38 305.5 -51 c 128,-1,13
 277 -64 277 -64 261.5 -68.5 c 128,-1,14
 246 -73 246 -73 236 -73 c 0,15,16
 200 -73 200 -73 186 -44 c 0,17,18
 95 140 95 140 95 321 c 128,-1,19
 95 502 95 502 190 676 c 0,0,1
EndSplineSet
EndChar

StartChar: parenright
Encoding: 41 41 12
Width: 422
GlyphClass: 2
Flags: W
LayerCount: 2
Fore
SplineSet
249 676 m 1,0,1
 344 502 344 502 344 321 c 128,-1,2
 344 140 344 140 253 -44 c 0,3,4
 238 -73 238 -73 203 -73 c 0,5,6
 182 -73 182 -73 151 -59 c 0,7,8
 105 -38 105 -38 95 -28 c 1,9,10
 192 138 192 138 193 311 c 0,11,12
 193 401 193 401 169.5 478 c 128,-1,13
 146 555 146 555 98 661 c 0,14,15
 98 663 98 663 131 677 c 0,16,17
 178 697 178 697 206 697 c 128,-1,18
 234 697 234 697 249 676 c 1,0,1
EndSplineSet
EndChar

StartChar: asterisk
Encoding: 42 42 13
Width: 557
GlyphClass: 2
Flags: W
LayerCount: 2
Fore
SplineSet
326 549 m 1,0,1
 447 572 447 572 457.5 572 c 128,-1,2
 468 572 468 572 478 554 c 128,-1,3
 488 536 488 536 488 524 c 0,4,5
 488 486 488 486 465 484 c 2,6,-1
 350 470 l 1,7,-1
 424 356 l 1,8,9
 438 322 438 322 383 302 c 0,10,11
 373 299 373 299 367 299 c 0,12,13
 347 299 347 299 342 309 c 2,14,-1
 283 422 l 1,15,-1
 229 309 l 1,16,17
 223 301 223 301 213.5 301 c 128,-1,18
 204 301 204 301 189.5 304 c 128,-1,19
 175 307 175 307 160 322 c 128,-1,20
 145 337 145 337 145 345.5 c 128,-1,21
 145 354 145 354 149 359 c 2,22,-1
 219 470 l 1,23,24
 136 481 136 481 104 484 c 1,25,26
 81 485 81 485 81 517 c 0,27,28
 81 535 81 535 91 553.5 c 128,-1,29
 101 572 101 572 116 572 c 1,30,-1
 241 549 l 1,31,-1
 237 668 l 2,32,33
 236 685 236 685 260 692 c 0,34,35
 272 696 272 696 284 696 c 128,-1,36
 296 696 296 696 308 692 c 0,37,38
 331 685 331 685 330 668 c 2,39,-1
 326 549 l 1,0,1
EndSplineSet
EndChar

StartChar: plus
Encoding: 43 43 14
Width: 602
GlyphClass: 2
Flags: W
LayerCount: 2
Fore
SplineSet
353 574 m 2,0,-1
 353 406 l 1,1,-1
 522 406 l 2,2,3
 540 406 540 406 548 377 c 0,4,5
 552 362 552 362 552 348 c 128,-1,6
 552 334 552 334 548 319 c 0,7,8
 540 290 540 290 522 290 c 2,9,-1
 353 290 l 1,10,-1
 353 119 l 2,11,12
 353 101 353 101 324 93 c 0,13,14
 310 89 310 89 295 89 c 1,15,-1
 266 93 l 1,16,17
 237 101 237 101 237 119 c 2,18,-1
 237 290 l 1,19,-1
 67 290 l 2,20,21
 49 290 49 290 41 319 c 0,22,23
 37 334 37 334 37 348 c 128,-1,24
 37 362 37 362 41 377 c 0,25,26
 49 406 49 406 67 406 c 2,27,-1
 237 406 l 1,28,-1
 237 574 l 2,29,30
 237 592 237 592 266 600 c 0,31,32
 280 604 280 604 295 604 c 1,33,-1
 324 600 l 1,34,35
 353 592 353 592 353 574 c 2,0,-1
EndSplineSet
EndChar

StartChar: comma
Encoding: 44 44 15
Width: 305
GlyphClass: 2
Flags: W
LayerCount: 2
Fore
SplineSet
120 148 m 1,0,1
 126 164 126 164 205 164 c 128,-1,2
 284 164 284 164 284 143 c 2,3,-1
 282 58 l 1,4,-1
 224 -78 l 2,5,6
 211 -107 211 -107 143.5 -107 c 128,-1,7
 76 -107 76 -107 58 -85 c 0,8,9
 54 -80 54 -80 54 -75.5 c 128,-1,10
 54 -71 54 -71 55 -67 c 2,11,-1
 116 57 l 1,12,-1
 120 148 l 1,0,1
EndSplineSet
EndChar

StartChar: hyphen
Encoding: 45 45 16
Width: 525
GlyphClass: 2
Flags: W
LayerCount: 2
Fore
SplineSet
460 190 m 2,0,-1
 65 190 l 2,1,2
 47 190 47 190 39 219 c 0,3,4
 35 234 35 234 35 248 c 128,-1,5
 35 262 35 262 39 277 c 0,6,7
 47 306 47 306 65 306 c 2,8,-1
 460 306 l 2,9,10
 478 306 478 306 486 277 c 0,11,12
 490 262 490 262 490 248 c 128,-1,13
 490 234 490 234 486 219 c 0,14,15
 478 190 478 190 460 190 c 2,0,-1
EndSplineSet
EndChar

StartChar: period
Encoding: 46 46 17
Width: 229
GlyphClass: 2
Flags: W
LayerCount: 2
Fore
SplineSet
209 -3 m 2,0,1
 209 -10 209 -10 114.5 -10 c 128,-1,2
 20 -10 20 -10 20 -4 c 2,3,-1
 20 176 l 2,4,5
 20 185 20 185 114.5 185 c 128,-1,6
 209 185 209 185 209 180 c 2,7,-1
 209 -3 l 2,0,1
EndSplineSet
EndChar

StartChar: slash
Encoding: 47 47 18
Width: 573
GlyphClass: 2
Flags: W
LayerCount: 2
Fore
SplineSet
470 775 m 1,0,1
 475 786 475 786 489.5 786 c 128,-1,2
 504 786 504 786 520 779 c 0,3,4
 557 762 557 762 568 739 c 0,5,6
 572 732 572 732 572 726 c 128,-1,7
 572 720 572 720 570 716 c 2,8,-1
 103 -95 l 2,9,10
 97 -105 97 -105 82 -105 c 128,-1,11
 67 -105 67 -105 52 -98 c 0,12,13
 14 -80 14 -80 3 -58 c 0,14,15
 0 -52 0 -52 0 -46.5 c 128,-1,16
 0 -41 0 -41 3 -36 c 2,17,-1
 470 775 l 1,0,1
EndSplineSet
EndChar

StartChar: zero
Encoding: 48 48 19
Width: 639
GlyphClass: 2
Flags: W
LayerCount: 2
Fore
SplineSet
114.5 82 m 128,-1,1
 35 174 35 174 35 351 c 128,-1,2
 35 528 35 528 115 618.5 c 128,-1,3
 195 709 195 709 321.5 709 c 128,-1,4
 448 709 448 709 526 619 c 128,-1,5
 604 529 604 529 604 348 c 128,-1,6
 604 167 604 167 524.5 78.5 c 128,-1,7
 445 -10 445 -10 319.5 -10 c 128,-1,0
 194 -10 194 -10 114.5 82 c 128,-1,1
254.5 473.5 m 128,-1,9
 228 430 228 430 228 350 c 128,-1,10
 228 270 228 270 253.5 227.5 c 128,-1,11
 279 185 279 185 319.5 185 c 128,-1,12
 360 185 360 185 385.5 228 c 128,-1,13
 411 271 411 271 411 351 c 128,-1,14
 411 431 411 431 384.5 474 c 128,-1,15
 358 517 358 517 319.5 517 c 128,-1,8
 281 517 281 517 254.5 473.5 c 128,-1,9
EndSplineSet
EndChar

StartChar: one
Encoding: 49 49 20
Width: 406
GlyphClass: 2
Flags: W
LayerCount: 2
Fore
SplineSet
356 17 m 2,0,1
 356 0 356 0 254.5 0 c 128,-1,2
 153 0 153 0 153 17 c 2,3,-1
 153 510 l 1,4,-1
 45 509 l 2,5,6
 15 509 15 509 15 605 c 0,7,8
 15 638 15 638 21.5 669 c 128,-1,9
 28 700 28 700 44 700 c 2,10,-1
 318 700 l 2,11,12
 335 700 335 700 345.5 692.5 c 128,-1,13
 356 685 356 685 356 674 c 2,14,-1
 356 17 l 2,0,1
EndSplineSet
EndChar

StartChar: two
Encoding: 50 50 21
Width: 525
GlyphClass: 2
Flags: W
LayerCount: 2
Fore
SplineSet
433 0 m 2,0,-1
 101 0 l 2,1,2
 66 0 66 0 52 68 c 0,3,4
 45 105 45 105 45 124 c 128,-1,5
 45 143 45 143 51 149 c 0,6,7
 275 380 275 380 275 463 c 0,8,9
 275 491 275 491 260.5 505 c 128,-1,10
 246 519 246 519 214.5 519 c 128,-1,11
 183 519 183 519 151.5 507 c 128,-1,12
 120 495 120 495 102 481 c 1,13,14
 63 528 63 528 48 580 c 0,15,16
 43 597 43 597 43 611.5 c 128,-1,17
 43 626 43 626 48 639 c 0,18,19
 56 665 56 665 122.5 688 c 128,-1,20
 189 711 189 711 263 711 c 0,21,22
 487 711 487 711 487 512 c 0,23,24
 487 424 487 424 427 333.5 c 128,-1,25
 367 243 367 243 287 177 c 1,26,-1
 489 185 l 1,27,28
 494 132 494 132 494 93 c 128,-1,29
 494 54 494 54 478 27 c 128,-1,30
 462 0 462 0 433 0 c 2,0,-1
EndSplineSet
EndChar

StartChar: three
Encoding: 51 51 22
Width: 528
GlyphClass: 2
Flags: W
LayerCount: 2
Fore
SplineSet
20 66 m 0,0,1
 20 94 20 94 34 129.5 c 128,-1,2
 48 165 48 165 61 186.5 c 128,-1,3
 74 208 74 208 76 208 c 1,4,5
 134 173 134 173 198 173 c 0,6,7
 238 173 238 173 262.5 189 c 128,-1,8
 287 205 287 205 287 233.5 c 128,-1,9
 287 262 287 262 264.5 270 c 128,-1,10
 242 278 242 278 193 281 c 1,11,-1
 157 281 l 2,12,13
 145 281 145 281 134.5 310.5 c 128,-1,14
 124 340 124 340 124 368 c 0,15,16
 124 415 124 415 152 416 c 2,17,-1
 181 417 l 2,18,19
 208 417 208 417 237.5 432.5 c 128,-1,20
 267 448 267 448 267 472 c 0,21,22
 267 514 267 514 192 514 c 0,23,24
 136 514 136 514 84 492 c 1,25,26
 39 573 39 573 39 618.5 c 128,-1,27
 39 664 39 664 102.5 687 c 128,-1,28
 166 710 166 710 262 710 c 128,-1,29
 358 710 358 710 412 670 c 128,-1,30
 466 630 466 630 466 561 c 0,31,32
 466 440 466 440 362 375 c 1,33,34
 488 324 488 324 488 202 c 0,35,36
 488 107 488 107 421 48.5 c 128,-1,37
 354 -10 354 -10 229 -10 c 0,38,39
 150 -10 150 -10 85 12.5 c 128,-1,40
 20 35 20 35 20 66 c 0,0,1
EndSplineSet
EndChar

StartChar: four
Encoding: 52 52 23
Width: 598
GlyphClass: 2
Flags: W
LayerCount: 2
Fore
SplineSet
547 299 m 2,0,1
 557 299 557 299 557 223.5 c 128,-1,2
 557 148 557 148 547 148 c 2,3,-1
 481 147 l 1,4,-1
 481 21 l 2,5,6
 481 10 481 10 440 5 c 128,-1,7
 399 0 399 0 369 0 c 1,8,-1
 328 2 l 1,9,10
 277 6 277 6 277 20 c 2,11,-1
 277 144 l 1,12,-1
 78 144 l 1,13,14
 52 170 52 170 31 211.5 c 128,-1,15
 10 253 10 253 10 271.5 c 128,-1,16
 10 290 10 290 16 301 c 2,17,-1
 235 689 l 2,18,19
 239 697 239 697 296.5 701 c 128,-1,20
 354 705 354 705 417 705 c 128,-1,21
 480 705 480 705 480 700 c 2,22,-1
 481 299 l 1,23,-1
 547 299 l 2,0,1
306 298 m 1,24,-1
 306 507 l 1,25,-1
 189 298 l 1,26,-1
 306 298 l 1,24,-1
EndSplineSet
EndChar

StartChar: five
Encoding: 53 53 24
Width: 524
GlyphClass: 2
Flags: W
LayerCount: 2
Fore
SplineSet
427 700 m 2,0,1
 446 700 446 700 446 617 c 0,2,3
 446 591 446 591 441.5 555.5 c 128,-1,4
 437 520 437 520 425 520 c 2,5,-1
 230 520 l 1,6,-1
 229 447 l 1,7,-1
 262 447 l 2,8,9
 369 447 369 447 421.5 385 c 128,-1,10
 474 323 474 323 474 221 c 128,-1,11
 474 119 474 119 402 54.5 c 128,-1,12
 330 -10 330 -10 217 -10 c 128,-1,13
 104 -10 104 -10 52 22 c 1,14,15
 44 35 44 35 44 62.5 c 128,-1,16
 44 90 44 90 52 140.5 c 128,-1,17
 60 191 60 191 74 191 c 0,18,19
 75 191 75 191 80 187 c 1,20,21
 151 158 151 158 188.5 158 c 128,-1,22
 226 158 226 158 250.5 178.5 c 128,-1,23
 275 199 275 199 275 231 c 0,24,25
 275 311 275 311 189 311 c 2,26,-1
 103 310 l 1,27,28
 93 308 93 308 83 318.5 c 128,-1,29
 73 329 73 329 73 346 c 2,30,-1
 73 659 l 2,31,32
 73 700 73 700 103 700 c 2,33,-1
 427 700 l 2,0,1
EndSplineSet
EndChar

StartChar: six
Encoding: 54 54 25
Width: 575
GlyphClass: 2
Flags: W
LayerCount: 2
Fore
SplineSet
427 508 m 1,0,1
 387 530 387 530 334 530 c 0,2,3
 241 530 241 530 228 410 c 1,4,5
 280 425 280 425 339 425 c 0,6,7
 440 425 440 425 487.5 372.5 c 128,-1,8
 535 320 535 320 535 229 c 0,9,10
 535 119 535 119 467 54.5 c 128,-1,11
 399 -10 399 -10 283 -10 c 128,-1,12
 167 -10 167 -10 101 74.5 c 128,-1,13
 35 159 35 159 35 315 c 0,14,15
 35 497 35 497 117.5 603.5 c 128,-1,16
 200 710 200 710 332 710 c 0,17,18
 482 710 482 710 482 649 c 0,19,20
 482 605 482 605 454 555 c 1,21,22
 444 533 444 533 427 508 c 1,0,1
362 228 m 0,23,24
 362 259 362 259 343 278.5 c 128,-1,25
 324 298 324 298 285.5 298 c 128,-1,26
 247 298 247 298 227 284 c 1,27,28
 226 271 226 271 226 255 c 128,-1,29
 226 239 226 239 229.5 215.5 c 128,-1,30
 233 192 233 192 249.5 169.5 c 128,-1,31
 266 147 266 147 293 147 c 0,32,33
 362 147 362 147 362 228 c 0,23,24
EndSplineSet
EndChar

StartChar: seven
Encoding: 55 55 26
Width: 500
GlyphClass: 2
Flags: W
LayerCount: 2
Fore
SplineSet
313 13 m 2,0,1
 308 -3 308 -3 207 -3 c 128,-1,2
 106 -3 106 -3 94 6 c 0,3,4
 90 9 90 9 90 13 c 1,5,-1
 257 503 l 1,6,-1
 54 503 l 2,7,8
 24 503 24 503 24 600 c 0,9,10
 24 633 24 633 30.5 664 c 128,-1,11
 37 695 37 695 53 695 c 2,12,-1
 403 696 l 2,13,14
 443 696 443 696 468 652 c 0,15,16
 480 630 480 630 485 608 c 1,17,-1
 313 13 l 2,0,1
EndSplineSet
EndChar

StartChar: eight
Encoding: 56 56 27
Width: 570
GlyphClass: 2
Flags: W
LayerCount: 2
Fore
SplineSet
538 211 m 0,0,1
 538 113 538 113 467.5 51 c 128,-1,2
 397 -11 397 -11 279.5 -11 c 128,-1,3
 162 -11 162 -11 94.5 48.5 c 128,-1,4
 27 108 27 108 27 204.5 c 128,-1,5
 27 301 27 301 124 376 c 1,6,7
 56 435 56 435 56 518 c 128,-1,8
 56 601 56 601 121 655 c 128,-1,9
 186 709 186 709 287 709 c 128,-1,10
 388 709 388 709 448.5 658.5 c 128,-1,11
 509 608 509 608 508.5 531.5 c 128,-1,12
 508 455 508 455 444 393 c 1,13,14
 485 363 485 363 511.5 315.5 c 128,-1,15
 538 268 538 268 538 211 c 0,0,1
225 220 m 0,16,17
 225 191 225 191 242.5 173.5 c 128,-1,18
 260 156 260 156 286 156 c 128,-1,19
 312 156 312 156 328.5 173.5 c 128,-1,20
 345 191 345 191 345 220 c 0,21,22
 345 274 345 274 276 309 c 1,23,24
 225 278 225 278 225 220 c 0,16,17
333 503 m 0,25,26
 333 525 333 525 317.5 540 c 128,-1,27
 302 555 302 555 283 555 c 0,28,29
 232 555 232 555 230 506 c 1,30,31
 230 461 230 461 299 421 c 1,32,33
 333 459 333 459 333 503 c 0,25,26
EndSplineSet
EndChar

StartChar: nine
Encoding: 57 57 28
Width: 565
GlyphClass: 2
Flags: W
LayerCount: 2
Fore
SplineSet
122 174 m 1,0,1
 197 159 197 159 235 159 c 128,-1,2
 273 159 273 159 303.5 183 c 128,-1,3
 334 207 334 207 339 258 c 1,4,5
 289 244 289 244 259 244 c 0,6,7
 154 244 154 244 97 302.5 c 128,-1,8
 40 361 40 361 40 468.5 c 128,-1,9
 40 576 40 576 105.5 643 c 128,-1,10
 171 710 171 710 285 710 c 128,-1,11
 399 710 399 710 464.5 630 c 128,-1,12
 530 550 530 550 530 394 c 0,13,14
 530 199 530 199 460.5 94.5 c 128,-1,15
 391 -10 391 -10 254 -10 c 0,16,17
 84 -10 84 -10 84 47 c 0,18,19
 84 77 84 77 96 125.5 c 128,-1,20
 108 174 108 174 122 174 c 1,0,1
233.5 509.5 m 128,-1,22
 216 489 216 489 216 457 c 128,-1,23
 216 425 216 425 236.5 405.5 c 128,-1,24
 257 386 257 386 289 386 c 128,-1,25
 321 386 321 386 341 400 c 1,26,27
 341 469 341 469 328 499.5 c 128,-1,28
 315 530 315 530 283 530 c 128,-1,21
 251 530 251 530 233.5 509.5 c 128,-1,22
EndSplineSet
EndChar

StartChar: colon
Encoding: 58 58 29
Width: 277
GlyphClass: 2
Flags: W
LayerCount: 2
Fore
SplineSet
247 -3 m 2,0,1
 247 -10 247 -10 152.5 -10 c 128,-1,2
 58 -10 58 -10 58 -4 c 2,3,-1
 58 176 l 2,4,5
 58 185 58 185 152.5 185 c 128,-1,6
 247 185 247 185 247 180 c 2,7,-1
 247 -3 l 2,0,1
247 318 m 2,8,9
 247 311 247 311 152.5 311 c 128,-1,10
 58 311 58 311 58 317 c 2,11,-1
 58 497 l 2,12,13
 58 506 58 506 152.5 506 c 128,-1,14
 247 506 247 506 247 501 c 2,15,-1
 247 318 l 2,8,9
EndSplineSet
EndChar

StartChar: semicolon
Encoding: 59 59 30
Width: 277
GlyphClass: 2
Flags: W
LayerCount: 2
Fore
SplineSet
80 148 m 1,0,1
 86 164 86 164 165 164 c 128,-1,2
 244 164 244 164 244 143 c 2,3,-1
 242 58 l 1,4,-1
 184 -78 l 2,5,6
 171 -107 171 -107 103.5 -107 c 128,-1,7
 36 -107 36 -107 18 -85 c 0,8,9
 14 -80 14 -80 14 -75.5 c 128,-1,10
 14 -71 14 -71 15 -67 c 2,11,-1
 76 57 l 1,12,-1
 80 148 l 1,0,1
247 318 m 2,13,14
 247 311 247 311 152.5 311 c 128,-1,15
 58 311 58 311 58 317 c 2,16,-1
 58 497 l 2,17,18
 58 506 58 506 152.5 506 c 128,-1,19
 247 506 247 506 247 501 c 2,20,-1
 247 318 l 2,13,14
EndSplineSet
EndChar

StartChar: less
Encoding: 60 60 31
Width: 484
GlyphClass: 2
Flags: W
LayerCount: 2
Fore
SplineSet
311 638 m 128,-1,1
 322 638 322 638 343.5 628 c 128,-1,2
 365 618 365 618 378.5 600 c 128,-1,3
 392 582 392 582 392 573.5 c 128,-1,4
 392 565 392 565 386 559 c 2,5,-1
 184 335 l 1,6,-1
 389 124 l 2,7,8
 395 118 395 118 395 109.5 c 128,-1,9
 395 101 395 101 381 82.5 c 128,-1,10
 367 64 367 64 346 54.5 c 128,-1,11
 325 45 325 45 314.5 45 c 128,-1,12
 304 45 304 45 297 52 c 2,13,-1
 66 308 l 1,14,15
 52 322 52 322 52 333 c 128,-1,16
 52 344 52 344 62 354 c 1,17,-1
 294 631 l 2,18,0
 300 638 300 638 311 638 c 128,-1,1
EndSplineSet
EndChar

StartChar: equal
Encoding: 61 61 32
Width: 580
GlyphClass: 2
Flags: W
LayerCount: 2
Fore
SplineSet
492 160 m 2,0,-1
 97 160 l 2,1,2
 79 160 79 160 71 189 c 0,3,4
 67 204 67 204 67 218 c 128,-1,5
 67 232 67 232 71 247 c 0,6,7
 79 276 79 276 97 276 c 2,8,-1
 492 276 l 2,9,10
 510 276 510 276 518 247 c 0,11,12
 522 232 522 232 522 218 c 128,-1,13
 522 204 522 204 518 189 c 0,14,15
 510 160 510 160 492 160 c 2,0,-1
492 384 m 2,16,-1
 97 384 l 2,17,18
 79 384 79 384 71 413 c 0,19,20
 67 428 67 428 67 442 c 128,-1,21
 67 456 67 456 71 471 c 0,22,23
 79 500 79 500 97 500 c 2,24,-1
 492 500 l 2,25,26
 510 500 510 500 518 471 c 0,27,28
 522 456 522 456 522 442 c 128,-1,29
 522 428 522 428 518 413 c 0,30,31
 510 384 510 384 492 384 c 2,16,-1
EndSplineSet
EndChar

StartChar: greater
Encoding: 62 62 33
Width: 450
GlyphClass: 2
Flags: W
LayerCount: 2
Fore
SplineSet
385 354 m 1,0,1
 395 344 395 344 395 333 c 128,-1,2
 395 322 395 322 381 308 c 1,3,-1
 150 52 l 2,4,5
 143 45 143 45 132.5 45 c 128,-1,6
 122 45 122 45 100.5 54.5 c 128,-1,7
 79 64 79 64 65.5 82.5 c 128,-1,8
 52 101 52 101 52 109.5 c 128,-1,9
 52 118 52 118 58 124 c 2,10,-1
 263 335 l 1,11,-1
 61 559 l 2,12,13
 55 565 55 565 55 573.5 c 128,-1,14
 55 582 55 582 68.5 600 c 128,-1,15
 82 618 82 618 103.5 627.5 c 128,-1,16
 125 637 125 637 135.5 637 c 128,-1,17
 146 637 146 637 153 631 c 1,18,-1
 385 354 l 1,0,1
EndSplineSet
EndChar

StartChar: question
Encoding: 63 63 34
Width: 584
GlyphClass: 2
Flags: W
LayerCount: 2
Fore
SplineSet
227 198 m 0,0,1
 148 198 148 198 148 217 c 2,2,-1
 148 255 l 2,3,4
 148 300 148 300 223 370 c 0,5,6
 251 396 251 396 274.5 429 c 128,-1,7
 298 462 298 462 298 489 c 0,8,9
 298 539 298 539 240.5 539 c 128,-1,10
 183 539 183 539 125 501 c 1,11,12
 87 539 87 539 72 587 c 0,13,14
 66 603 66 603 66 615.5 c 128,-1,15
 66 628 66 628 71 639 c 1,16,17
 79 665 79 665 145.5 688 c 128,-1,18
 212 711 212 711 286 711 c 0,19,20
 398 711 398 711 454 663 c 128,-1,21
 510 615 510 615 510 532 c 0,22,23
 510 494 510 494 491.5 457.5 c 128,-1,24
 473 421 473 421 446.5 393.5 c 128,-1,25
 420 366 420 366 394 342 c 0,26,27
 331 282 331 282 331 251 c 2,28,-1
 331 221 l 2,29,30
 331 209 331 209 294 203.5 c 128,-1,31
 257 198 257 198 227 198 c 0,0,1
325 -4 m 2,32,33
 325 -10 325 -10 242.5 -10 c 128,-1,34
 160 -10 160 -10 160 -5 c 2,35,-1
 160 152 l 2,36,37
 160 160 160 160 242.5 160 c 128,-1,38
 325 160 325 160 325 155 c 2,39,-1
 325 -4 l 2,32,33
EndSplineSet
EndChar

StartChar: at
Encoding: 64 64 35
Width: 867
GlyphClass: 2
Flags: W
LayerCount: 2
Fore
SplineSet
607 -29 m 0,0,1
 607 -88 607 -88 409 -88 c 0,2,3
 238 -88 238 -88 138.5 0.5 c 128,-1,4
 39 89 39 89 39 252 c 0,5,6
 39 441 39 441 155.5 556.5 c 128,-1,7
 272 672 272 672 462 672 c 0,8,9
 609 672 609 672 698 585 c 128,-1,10
 787 498 787 498 787 366 c 128,-1,11
 787 234 787 234 725.5 169 c 128,-1,12
 664 104 664 104 575 104 c 0,13,14
 544 104 544 104 514.5 117 c 128,-1,15
 485 130 485 130 471 146 c 1,16,17
 424 105 424 105 359.5 105 c 128,-1,18
 295 105 295 105 260.5 139 c 128,-1,19
 226 173 226 173 226 242 c 0,20,21
 226 351 226 351 303 426 c 128,-1,22
 380 501 380 501 474 501 c 0,23,24
 553 501 553 501 571 470 c 0,25,26
 580 454 580 454 580 436.5 c 128,-1,27
 580 419 580 419 552 216 c 1,28,-1
 594 214 l 2,29,30
 610 214 610 214 624 226 c 128,-1,31
 638 238 638 238 646 253 c 0,32,33
 667 289 667 289 667 362 c 0,34,35
 667 458 667 458 609 514.5 c 128,-1,36
 551 571 551 571 456 571 c 0,37,38
 315 571 315 571 232.5 484 c 128,-1,39
 150 397 150 397 150 257 c 0,40,41
 150 19 150 19 435 19 c 0,42,43
 523 19 523 19 577 37 c 1,44,45
 582 32 582 32 592 18 c 1,46,47
 607 -8 607 -8 607 -29 c 0,0,1
435 383 m 0,48,49
 413 383 413 383 390.5 344 c 128,-1,50
 368 305 368 305 366 253 c 1,51,52
 366 216 366 216 399 216 c 0,53,54
 418 216 418 216 426 225 c 1,55,-1
 446 368 l 2,56,57
 448 383 448 383 435 383 c 0,48,49
EndSplineSet
EndChar

StartChar: A
Encoding: 65 65 36
Width: 655
GlyphClass: 2
Flags: W
LayerCount: 2
Fore
SplineSet
520 -2 m 0,0,1
 433 -2 433 -2 426 26 c 2,2,-1
 393 155 l 1,3,-1
 234 155 l 1,4,-1
 205 31 l 1,5,6
 199 0 199 0 109 0 c 0,7,8
 61 0 61 0 38 5.5 c 128,-1,9
 15 11 15 11 15 14 c 2,10,-1
 192 691 l 1,11,12
 192 699 192 699 329 699 c 128,-1,13
 466 699 466 699 466 691 c 1,14,-1
 639 13 l 1,15,16
 639 6 639 6 593 2 c 128,-1,17
 547 -2 547 -2 520 -2 c 0,0,1
259 282 m 1,18,-1
 364 282 l 1,19,-1
 319 489 l 1,20,-1
 313 489 l 1,21,-1
 259 282 l 1,18,-1
EndSplineSet
EndChar

StartChar: B
Encoding: 66 66 37
Width: 594
GlyphClass: 2
Flags: W
LayerCount: 2
Fore
SplineSet
541 519 m 0,0,1
 541 415 541 415 451 361 c 1,2,3
 500 343 500 343 533 299 c 128,-1,4
 566 255 566 255 566 174.5 c 128,-1,5
 566 94 566 94 506.5 47 c 128,-1,6
 447 0 447 0 336 0 c 2,7,-1
 100 0 l 2,8,9
 83 0 83 0 72 11.5 c 128,-1,10
 61 23 61 23 61 42 c 2,11,-1
 61 682 l 2,12,13
 61 693 61 693 64.5 696.5 c 128,-1,14
 68 700 68 700 79 700 c 2,15,-1
 307 700 l 2,16,17
 541 700 541 700 541 519 c 0,0,1
253 538 m 1,18,-1
 253 407 l 1,19,-1
 258 407 l 2,20,21
 354 407 354 407 354 471 c 0,22,23
 354 506 354 506 335.5 522 c 128,-1,24
 317 538 317 538 274 538 c 2,25,-1
 253 538 l 1,18,-1
253 289 m 1,26,-1
 253 159 l 1,27,-1
 271 159 l 2,28,29
 314 159 314 159 334 175 c 128,-1,30
 354 191 354 191 354 226 c 128,-1,31
 354 261 354 261 335.5 275 c 128,-1,32
 317 289 317 289 274 289 c 2,33,-1
 253 289 l 1,26,-1
EndSplineSet
EndChar

StartChar: C
Encoding: 67 67 38
Width: 561
GlyphClass: 2
Flags: W
LayerCount: 2
Fore
SplineSet
464.5 688.5 m 128,-1,1
 520 668 520 668 520 633 c 128,-1,2
 520 598 520 598 493.5 546.5 c 128,-1,3
 467 495 467 495 449 495 c 0,4,5
 444 495 444 495 437.5 500.5 c 128,-1,6
 431 506 431 506 407.5 512.5 c 128,-1,7
 384 519 384 519 367 519 c 0,8,9
 309 519 309 519 273.5 478 c 128,-1,10
 238 437 238 437 238 352.5 c 128,-1,11
 238 268 238 268 274.5 227 c 128,-1,12
 311 186 311 186 367 186 c 0,13,14
 390 186 390 186 418.5 192.5 c 128,-1,15
 447 199 447 199 459 211 c 0,16,17
 461 213 461 213 467 213 c 128,-1,18
 473 213 473 213 489.5 190.5 c 128,-1,19
 506 168 506 168 520 131.5 c 128,-1,20
 534 95 534 95 534 75 c 0,21,22
 534 36 534 36 474 13 c 128,-1,23
 414 -10 414 -10 332 -10 c 0,24,25
 200 -10 200 -10 115 83 c 128,-1,26
 30 176 30 176 30 345.5 c 128,-1,27
 30 515 30 515 117.5 612 c 128,-1,28
 205 709 205 709 336 709 c 0,29,0
 409 709 409 709 464.5 688.5 c 128,-1,1
EndSplineSet
EndChar

StartChar: D
Encoding: 68 68 39
Width: 616
GlyphClass: 2
Flags: W
LayerCount: 2
Fore
SplineSet
50 46 m 2,0,-1
 50 646 l 2,1,2
 50 671 50 671 62.5 685.5 c 128,-1,3
 75 700 75 700 95 700 c 2,4,-1
 262 700 l 2,5,6
 421 700 421 700 503.5 620 c 128,-1,7
 586 540 586 540 586 368 c 0,8,9
 586 0 586 0 272 0 c 2,10,-1
 101 0 l 2,11,12
 50 0 50 0 50 46 c 2,0,-1
242 510 m 1,13,-1
 242 211 l 2,14,15
 242 190 242 190 245 184.5 c 128,-1,16
 248 179 248 179 263 179 c 0,17,18
 318 179 318 179 346.5 220 c 128,-1,19
 375 261 375 261 375 356.5 c 128,-1,20
 375 452 375 452 345.5 481 c 128,-1,21
 316 510 316 510 252 510 c 2,22,-1
 242 510 l 1,13,-1
EndSplineSet
EndChar

StartChar: E
Encoding: 69 69 40
Width: 493
GlyphClass: 2
Flags: W
LayerCount: 2
Fore
SplineSet
375 422 m 2,0,1
 394 422 394 422 394 352 c 0,2,3
 394 331 394 331 389.5 302.5 c 128,-1,4
 385 274 385 274 373 274 c 2,5,-1
 246 274 l 1,6,-1
 246 174 l 1,7,-1
 430 174 l 2,8,9
 447 174 447 174 453 130 c 0,10,11
 456 111 456 111 456 89.5 c 128,-1,12
 456 68 456 68 450 34 c 128,-1,13
 444 0 444 0 430 0 c 2,14,-1
 88 0 l 2,15,16
 50 0 50 0 50 31 c 2,17,-1
 50 674 l 2,18,19
 50 700 50 700 73 700 c 2,20,-1
 431 700 l 2,21,22
 452 700 452 700 452 611.5 c 128,-1,23
 452 523 452 523 431 523 c 2,24,-1
 246 523 l 1,25,-1
 246 422 l 1,26,-1
 375 422 l 2,0,1
EndSplineSet
EndChar

StartChar: F
Encoding: 70 70 41
Width: 472
GlyphClass: 2
Flags: W
LayerCount: 2
Fore
SplineSet
424 700 m 2,0,1
 441 700 441 700 441 611.5 c 128,-1,2
 441 523 441 523 424 523 c 2,3,-1
 241 523 l 1,4,-1
 241 409 l 1,5,-1
 363 409 l 2,6,7
 380 409 380 409 380 331.5 c 128,-1,8
 380 254 380 254 364 254 c 2,9,-1
 241 254 l 1,10,-1
 241 13 l 2,11,12
 241 -1 241 -1 203.5 -5.5 c 128,-1,13
 166 -10 166 -10 141 -10 c 1,14,-1
 94 -8 l 1,15,16
 45 -2 45 -2 45 12 c 2,17,-1
 45 674 l 2,18,19
 45 690 45 690 51.5 695 c 128,-1,20
 58 700 58 700 71 700 c 2,21,-1
 424 700 l 2,0,1
EndSplineSet
EndChar

StartChar: G
Encoding: 71 71 42
Width: 621
GlyphClass: 2
Flags: W
LayerCount: 2
Fore
SplineSet
420 209 m 2,0,-1
 422 345 l 2,1,2
 422 359 422 359 451 363.5 c 128,-1,3
 480 368 480 368 499 368 c 1,4,-1
 538 365 l 1,5,6
 576 359 576 359 576 344 c 2,7,-1
 572 31 l 1,8,9
 552 17 552 17 491.5 3.5 c 128,-1,10
 431 -10 431 -10 353 -10 c 0,11,12
 208 -10 208 -10 119 84 c 128,-1,13
 30 178 30 178 30 360 c 0,14,15
 30 515 30 515 117 612 c 128,-1,16
 204 709 204 709 358 709 c 0,17,18
 428 709 428 709 484.5 695.5 c 128,-1,19
 541 682 541 682 562 659 c 1,20,21
 563 651 563 651 563 629 c 128,-1,22
 563 607 563 607 548 566.5 c 128,-1,23
 533 526 533 526 514 506 c 128,-1,24
 495 486 495 486 486.5 486 c 128,-1,25
 478 486 478 486 468.5 493.5 c 128,-1,26
 459 501 459 501 431 509.5 c 128,-1,27
 403 518 403 518 377 518 c 0,28,29
 315 518 315 518 276.5 478 c 128,-1,30
 238 438 238 438 238 354 c 128,-1,31
 238 270 238 270 277.5 226.5 c 128,-1,32
 317 183 317 183 368.5 183 c 128,-1,33
 420 183 420 183 420 209 c 2,0,-1
EndSplineSet
EndChar

StartChar: H
Encoding: 72 72 43
Width: 644
GlyphClass: 2
Flags: W
LayerCount: 2
Fore
SplineSet
594 17 m 2,0,1
 594 0 594 0 493 0 c 128,-1,2
 392 0 392 0 392 17 c 2,3,-1
 392 247 l 1,4,-1
 252 247 l 1,5,-1
 252 17 l 2,6,7
 252 0 252 0 151 0 c 128,-1,8
 50 0 50 0 50 17 c 2,9,-1
 50 680 l 2,10,11
 50 701 50 701 151 701 c 128,-1,12
 252 701 252 701 252 680 c 2,13,-1
 252 445 l 1,14,-1
 392 445 l 1,15,-1
 392 678 l 2,16,17
 392 692 392 692 442 698 c 1,18,19
 468 700 468 700 493 700 c 2,20,-1
 544 698 l 1,21,22
 594 692 594 692 594 678 c 2,23,-1
 594 17 l 2,0,1
EndSplineSet
EndChar

StartChar: I
Encoding: 73 73 44
Width: 429
GlyphClass: 2
Flags: W
LayerCount: 2
Fore
SplineSet
116 172 m 1,0,-1
 116 528 l 1,1,-1
 45 528 l 2,2,3
 28 528 28 528 21 571 c 0,4,5
 18 592 18 592 18 614 c 128,-1,6
 18 636 18 636 21 657 c 0,7,8
 28 700 28 700 45 700 c 2,9,-1
 381 700 l 2,10,11
 398 700 398 700 404 657 c 1,12,13
 408 636 408 636 408 614 c 128,-1,14
 408 592 408 592 404 571 c 1,15,16
 398 528 398 528 381 528 c 2,17,-1
 314 528 l 1,18,-1
 314 172 l 1,19,-1
 384 172 l 2,20,21
 401 172 401 172 408 129 c 0,22,23
 412 108 412 108 412 86 c 128,-1,24
 412 64 412 64 408 43 c 0,25,26
 401 0 401 0 384 0 c 2,27,-1
 47 0 l 2,28,29
 30 0 30 0 24 43 c 1,30,31
 20 64 20 64 20 86 c 128,-1,32
 20 108 20 108 24 129 c 1,33,34
 30 172 30 172 47 172 c 2,35,-1
 116 172 l 1,0,-1
EndSplineSet
EndChar

StartChar: J
Encoding: 74 74 45
Width: 462
GlyphClass: 2
Flags: W
LayerCount: 2
Fore
SplineSet
9 90 m 0,0,1
 9 119 9 119 26 157.5 c 128,-1,2
 43 196 43 196 63 210 c 1,3,4
 101 182 101 182 140 182 c 1,5,-1
 171 187 l 1,6,7
 225 203 225 203 227 273 c 1,8,-1
 227 528 l 1,9,-1
 147 528 l 2,10,11
 130 528 130 528 123 571 c 0,12,13
 120 592 120 592 120 614 c 128,-1,14
 120 636 120 636 123 657 c 0,15,16
 130 700 130 700 147 700 c 2,17,-1
 385 700 l 2,18,19
 405 700 405 700 415 688.5 c 128,-1,20
 425 677 425 677 425 661 c 2,21,-1
 425 189 l 2,22,23
 425 91 425 91 359.5 40 c 128,-1,24
 294 -11 294 -11 202.5 -11 c 128,-1,25
 111 -11 111 -11 60 16 c 128,-1,26
 9 43 9 43 9 90 c 0,0,1
EndSplineSet
EndChar

StartChar: K
Encoding: 75 75 46
Width: 620
GlyphClass: 2
Flags: W
LayerCount: 2
Fore
SplineSet
250 14 m 2,0,1
 250 -1 250 -1 156 -1 c 1,2,-1
 100 2 l 1,3,4
 50 6 50 6 50 16 c 2,5,-1
 50 687 l 2,6,7
 50 704 50 704 150 704 c 128,-1,8
 250 704 250 704 250 687 c 2,9,-1
 250 431 l 1,10,-1
 372 687 l 2,11,12
 379 701 379 701 452 701 c 0,13,14
 585 701 585 701 592 678 c 0,15,16
 592 676 592 676 591 674 c 2,17,-1
 417 360 l 1,18,-1
 619 81 l 1,19,20
 619 79 619 79 600 64 c 1,21,22
 554 24 554 24 492 1 c 0,23,24
 473 -6 473 -6 454 -6 c 1,25,-1
 430 -4 l 1,26,27
 398 4 398 4 380 37 c 2,28,-1
 266 255 l 1,29,-1
 250 255 l 1,30,-1
 250 14 l 2,0,1
EndSplineSet
EndChar

StartChar: L
Encoding: 76 76 47
Width: 435
GlyphClass: 2
Flags: W
LayerCount: 2
Fore
SplineSet
40 59 m 2,0,-1
 40 681 l 2,1,2
 40 702 40 702 141.5 702 c 128,-1,3
 243 702 243 702 243 681 c 2,4,-1
 243 191 l 1,5,-1
 397 191 l 2,6,7
 415 191 415 191 422 144 c 0,8,9
 425 121 425 121 425 97 c 128,-1,10
 425 73 425 73 422 48 c 1,11,12
 414 0 414 0 396 0 c 2,13,-1
 88 0 l 2,14,15
 66 0 66 0 53 18 c 128,-1,16
 40 36 40 36 40 59 c 2,0,-1
EndSplineSet
EndChar

StartChar: M
Encoding: 77 77 48
Width: 907
GlyphClass: 2
Flags: W
LayerCount: 2
Fore
SplineSet
750 -1 m 0,0,1
 661 -1 661 -1 661 19 c 1,2,-1
 640 420 l 1,3,-1
 518 14 l 2,4,5
 514 2 514 2 450 2 c 128,-1,6
 386 2 386 2 384 13 c 1,7,-1
 258 424 l 1,8,-1
 244 25 l 2,9,10
 243 10 243 10 206 4.5 c 128,-1,11
 169 -1 169 -1 144.5 -1 c 128,-1,12
 120 -1 120 -1 97 2 c 0,13,14
 49 9 49 9 50 27 c 2,15,-1
 73 677 l 2,16,17
 73 701 73 701 195 701 c 0,18,19
 231 701 231 701 283 695.5 c 128,-1,20
 335 690 335 690 341 674 c 2,21,-1
 453 359 l 1,22,-1
 551 675 l 2,23,24
 560 701 560 701 689 701 c 0,25,26
 726 701 726 701 777.5 695.5 c 128,-1,27
 829 690 829 690 829 676 c 2,28,-1
 858 20 l 2,29,30
 858 9 858 9 819 4 c 128,-1,31
 780 -1 780 -1 750 -1 c 0,0,1
EndSplineSet
EndChar

StartChar: N
Encoding: 78 78 49
Width: 648
GlyphClass: 2
Flags: W
LayerCount: 2
Fore
SplineSet
598 22 m 2,0,1
 598 1 598 1 504 1 c 128,-1,2
 410 1 410 1 402 16 c 2,3,-1
 235 328 l 1,4,-1
 235 17 l 2,5,6
 235 -1 235 -1 142.5 -1 c 128,-1,7
 50 -1 50 -1 50 17 c 2,8,-1
 50 686 l 2,9,10
 50 701 50 701 129 701 c 0,11,12
 160 701 160 701 201.5 695.5 c 128,-1,13
 243 690 243 690 252 675 c 1,14,-1
 412 367 l 1,15,-1
 412 681 l 2,16,17
 412 700 412 700 505 700 c 128,-1,18
 598 700 598 700 598 681 c 2,19,-1
 598 22 l 2,0,1
EndSplineSet
EndChar

StartChar: O
Encoding: 79 79 50
Width: 696
GlyphClass: 2
Flags: W
LayerCount: 2
Fore
SplineSet
118.5 82 m 128,-1,1
 30 174 30 174 30 350.5 c 128,-1,2
 30 527 30 527 119.5 618 c 128,-1,3
 209 709 209 709 350.5 709 c 128,-1,4
 492 709 492 709 579 619.5 c 128,-1,5
 666 530 666 530 666 348.5 c 128,-1,6
 666 167 666 167 577 78.5 c 128,-1,7
 488 -10 488 -10 347.5 -10 c 128,-1,0
 207 -10 207 -10 118.5 82 c 128,-1,1
267.5 473 m 128,-1,9
 235 429 235 429 235 349.5 c 128,-1,10
 235 270 235 270 266 227.5 c 128,-1,11
 297 185 297 185 347.5 185 c 128,-1,12
 398 185 398 185 429.5 228 c 128,-1,13
 461 271 461 271 461 351 c 128,-1,14
 461 431 461 431 428.5 474 c 128,-1,15
 396 517 396 517 348 517 c 128,-1,8
 300 517 300 517 267.5 473 c 128,-1,9
EndSplineSet
EndChar

StartChar: P
Encoding: 80 80 51
Width: 570
GlyphClass: 2
Flags: W
LayerCount: 2
Fore
SplineSet
137 -2 m 0,0,1
 46 -2 46 -2 46 18 c 2,2,-1
 46 666 l 2,3,4
 46 700 46 700 77 700 c 2,5,-1
 253 700 l 2,6,7
 401 700 401 700 466.5 639 c 128,-1,8
 532 578 532 578 532 462 c 0,9,10
 532 366 532 366 470 286 c 0,11,12
 439 246 439 246 379 222 c 128,-1,13
 319 198 319 198 239 198 c 1,14,-1
 239 19 l 2,15,16
 239 7 239 7 201.5 2.5 c 128,-1,17
 164 -2 164 -2 137 -2 c 0,0,1
239 526 m 1,18,-1
 239 368 l 1,19,-1
 252 368 l 2,20,21
 287 368 287 368 311 390 c 128,-1,22
 335 412 335 412 335 452 c 128,-1,23
 335 492 335 492 318.5 509 c 128,-1,24
 302 526 302 526 260 526 c 2,25,-1
 239 526 l 1,18,-1
EndSplineSet
EndChar

StartChar: Q
Encoding: 81 81 52
Width: 706
GlyphClass: 2
Flags: W
LayerCount: 2
Fore
SplineSet
30 349 m 0,0,1
 30 527 30 527 119.5 618 c 128,-1,2
 209 709 209 709 350.5 709 c 128,-1,3
 492 709 492 709 579 619.5 c 128,-1,4
 666 530 666 530 666 349 c 0,5,6
 666 210 666 210 612 125 c 128,-1,7
 558 40 558 40 464 8 c 1,8,-1
 570 -65 l 2,9,10
 576 -69 576 -69 576 -79.5 c 128,-1,11
 576 -90 576 -90 553.5 -119 c 128,-1,12
 531 -148 531 -148 499.5 -163.5 c 128,-1,13
 468 -179 468 -179 452 -179 c 128,-1,14
 436 -179 436 -179 426 -168 c 2,15,-1
 280 -6 l 1,16,17
 168 15 168 15 99 106.5 c 128,-1,18
 30 198 30 198 30 349 c 0,0,1
267.5 473 m 128,-1,20
 235 429 235 429 235 349.5 c 128,-1,21
 235 270 235 270 266 227.5 c 128,-1,22
 297 185 297 185 347.5 185 c 128,-1,23
 398 185 398 185 429.5 228 c 128,-1,24
 461 271 461 271 461 351 c 128,-1,25
 461 431 461 431 428.5 474 c 128,-1,26
 396 517 396 517 348 517 c 128,-1,19
 300 517 300 517 267.5 473 c 128,-1,20
EndSplineSet
EndChar

StartChar: R
Encoding: 82 82 53
Width: 590
GlyphClass: 2
Flags: W
LayerCount: 2
Fore
SplineSet
241 14 m 2,0,1
 241 -2 241 -2 146 -2 c 0,2,3
 50 -2 50 -2 50 13 c 2,4,-1
 50 665 l 2,5,6
 50 700 50 700 87 700 c 2,7,-1
 278 700 l 2,8,9
 541 700 541 700 541 495 c 0,10,11
 541 433 541 433 517 382.5 c 128,-1,12
 493 332 493 332 449 302 c 1,13,-1
 575 92 l 1,14,15
 567 68 567 68 523 37 c 0,16,17
 463 -6 463 -6 424 -6 c 128,-1,18
 385 -6 385 -6 366 22 c 1,19,-1
 272 241 l 1,20,-1
 241 241 l 1,21,-1
 241 14 l 2,0,1
241 523 m 1,22,-1
 241 373 l 1,23,-1
 246 373 l 2,24,25
 341 373 341 373 341 452 c 0,26,27
 341 488 341 488 322.5 505.5 c 128,-1,28
 304 523 304 523 262 523 c 2,29,-1
 241 523 l 1,22,-1
EndSplineSet
EndChar

StartChar: S
Encoding: 83 83 54
Width: 531
GlyphClass: 2
Flags: W
LayerCount: 2
Fore
SplineSet
76 244 m 1,0,1
 95 229 95 229 141.5 203 c 128,-1,2
 188 177 188 177 230.5 177 c 128,-1,3
 273 177 273 177 273 210 c 0,4,5
 273 225 273 225 261 236.5 c 128,-1,6
 249 248 249 248 217 263 c 128,-1,7
 185 278 185 278 169 286.5 c 128,-1,8
 153 295 153 295 126.5 314.5 c 128,-1,9
 100 334 100 334 86 355 c 0,10,11
 46 412 46 412 46 500 c 128,-1,12
 46 588 46 588 111.5 648.5 c 128,-1,13
 177 709 177 709 283 709 c 0,14,15
 355 709 355 709 416 693.5 c 128,-1,16
 477 678 477 678 479 653 c 0,17,18
 479 650 479 650 479 647 c 0,19,20
 479 612 479 612 457 558.5 c 128,-1,21
 435 505 435 505 426 499 c 1,22,23
 362 532 362 532 311.5 532 c 128,-1,24
 261 532 261 532 261 496 c 0,25,26
 261 474 261 474 298 457 c 0,27,28
 306 453 306 453 321 446 c 128,-1,29
 336 439 336 439 355.5 429.5 c 128,-1,30
 375 420 375 420 397.5 405.5 c 128,-1,31
 420 391 420 391 446 367 c 0,32,33
 499 317 499 317 499 235 c 0,34,35
 499 128 499 128 440 60 c 128,-1,36
 381 -8 381 -8 258 -10 c 0,37,38
 198 -10 198 -10 149.5 0 c 128,-1,39
 101 10 101 10 65 39 c 128,-1,40
 29 68 29 68 29 109 c 128,-1,41
 29 150 29 150 44 190.5 c 128,-1,42
 59 231 59 231 76 244 c 1,0,1
EndSplineSet
EndChar

StartChar: T
Encoding: 84 84 55
Width: 502
GlyphClass: 2
Flags: W
LayerCount: 2
Fore
SplineSet
351 16 m 2,0,1
 351 -4 351 -4 252 -4 c 128,-1,2
 153 -4 153 -4 153 16 c 2,3,-1
 153 518 l 1,4,-1
 33 518 l 2,5,6
 16 518 16 518 9 564 c 0,7,8
 6 586 6 586 6 609 c 128,-1,9
 6 632 6 632 9 654 c 0,10,11
 16 700 16 700 33 700 c 2,12,-1
 468 700 l 2,13,14
 485 700 485 700 492 654 c 0,15,16
 495 632 495 632 495 609 c 128,-1,17
 495 586 495 586 492 564 c 0,18,19
 485 518 485 518 468 518 c 2,20,-1
 351 518 l 1,21,-1
 351 16 l 2,0,1
EndSplineSet
EndChar

StartChar: U
Encoding: 85 85 56
Width: 628
GlyphClass: 2
Flags: W
LayerCount: 2
Fore
SplineSet
377 680 m 2,0,1
 377 700 377 700 485.5 700 c 128,-1,2
 594 700 594 700 594 680 c 2,3,-1
 594 221 l 2,4,5
 594 119 594 119 521 54.5 c 128,-1,6
 448 -10 448 -10 319.5 -10 c 128,-1,7
 191 -10 191 -10 110.5 56.5 c 128,-1,8
 30 123 30 123 30 236 c 2,9,-1
 30 679 l 2,10,11
 30 699 30 699 138.5 699 c 128,-1,12
 247 699 247 699 247 679 c 2,13,-1
 247 228 l 2,14,15
 247 208 247 208 268 196 c 0,16,17
 290 184 290 184 314 184 c 128,-1,18
 338 184 338 184 357.5 195 c 128,-1,19
 377 206 377 206 377 228 c 2,20,-1
 377 680 l 2,0,1
EndSplineSet
EndChar

StartChar: V
Encoding: 86 86 57
Width: 661
GlyphClass: 2
Flags: W
LayerCount: 2
Fore
SplineSet
11 687 m 1,0,1
 11 692 11 692 54.5 696.5 c 128,-1,2
 98 701 98 701 126 701 c 0,3,4
 237 701 237 701 242 672 c 2,5,-1
 328 232 l 1,6,-1
 409 672 l 2,7,8
 415 701 415 701 533 701 c 0,9,10
 562 701 562 701 606 697 c 128,-1,11
 650 693 650 693 650 688 c 1,12,-1
 473 26 l 2,13,14
 469 10 469 10 414 5 c 0,15,16
 329 -4 329 -4 259.5 1.5 c 128,-1,17
 190 7 190 7 186 21 c 2,18,-1
 11 687 l 1,0,1
EndSplineSet
EndChar

StartChar: W
Encoding: 87 87 58
Width: 953
GlyphClass: 2
Flags: W
LayerCount: 2
Fore
SplineSet
21 690 m 1,0,1
 18 701 18 701 122 701 c 0,2,3
 237 701 237 701 240 682 c 2,4,-1
 289 261 l 1,5,-1
 395 687 l 1,6,7
 400 702 400 702 473 702 c 128,-1,8
 546 702 546 702 551 688 c 1,9,-1
 655 259 l 1,10,-1
 713 684 l 2,11,12
 715 695 715 695 759 699 c 128,-1,13
 803 703 803 703 830 703 c 0,14,15
 935 703 935 703 932 689 c 2,16,-1
 811 26 l 1,17,18
 807 11 807 11 754 4 c 128,-1,19
 701 -3 701 -3 668 -3 c 0,20,21
 544 -3 544 -3 538 25 c 2,22,-1
 470 300 l 1,23,-1
 396 26 l 2,24,25
 392 8 392 8 326 0 c 1,26,27
 292 -3 292 -3 258 -3 c 1,28,-1
 194 0 l 1,29,30
 128 7 128 7 124 25 c 1,31,-1
 21 690 l 1,0,1
EndSplineSet
EndChar

StartChar: X
Encoding: 88 88 59
Width: 683
GlyphClass: 2
Flags: W
LayerCount: 2
Fore
SplineSet
421 673 m 1,0,1
 433 703 433 703 546 703 c 0,2,3
 575 703 575 703 617.5 698.5 c 128,-1,4
 660 694 660 694 660 690 c 1,5,-1
 490 344 l 1,6,-1
 666 13 l 2,7,8
 669 8 669 8 623 3.5 c 128,-1,9
 577 -1 577 -1 545 -1 c 0,10,11
 418 -1 418 -1 406 33 c 1,12,-1
 331 224 l 1,13,-1
 263 27 l 2,14,15
 253 -1 253 -1 135 -1 c 0,16,17
 106 -1 106 -1 63 3 c 128,-1,18
 20 7 20 7 24 14 c 2,19,-1
 180 360 l 1,20,-1
 18 690 l 2,21,22
 15 695 15 695 59.5 699.5 c 128,-1,23
 104 704 104 704 135 704 c 0,24,25
 261 704 261 704 273 668 c 1,26,-1
 342 500 l 1,27,-1
 421 673 l 1,0,1
EndSplineSet
EndChar

StartChar: Y
Encoding: 89 89 60
Width: 615
GlyphClass: 2
Flags: W
LayerCount: 2
Fore
SplineSet
398 667 m 1,0,1
 411 702 411 702 526 702 c 0,2,3
 555 702 555 702 594.5 698 c 128,-1,4
 634 694 634 694 631 688 c 2,5,-1
 423 270 l 1,6,-1
 423 26 l 2,7,8
 423 9 423 9 368 2 c 0,9,10
 340 -2 340 -2 313 -2 c 128,-1,11
 286 -2 286 -2 259 1 c 0,12,13
 204 8 204 8 204 26 c 2,14,-1
 204 264 l 1,15,-1
 -11 686 l 2,16,17
 -15 692 -15 692 30 697.5 c 128,-1,18
 75 703 75 703 106 703 c 0,19,20
 229 703 229 703 241 667 c 2,21,-1
 314 463 l 1,22,-1
 398 667 l 1,0,1
EndSplineSet
EndChar

StartChar: Z
Encoding: 90 90 61
Width: 563
GlyphClass: 2
Flags: W
LayerCount: 2
Fore
SplineSet
76 518 m 2,0,1
 59 518 59 518 52 564 c 0,2,3
 49 583 49 583 49 606 c 128,-1,4
 49 629 49 629 54 654 c 0,5,6
 63 700 63 700 84 700 c 2,7,-1
 454 700 l 2,8,9
 515 700 515 700 533 589 c 0,10,11
 537 565 537 565 537 554 c 1,12,-1
 303 199 l 1,13,-1
 486 199 l 2,14,15
 487 199 487 199 488 199 c 0,16,17
 510 199 510 199 519 151 c 0,18,19
 523 128 523 128 523 103 c 128,-1,20
 523 78 523 78 517 50 c 0,21,22
 506 0 506 0 483 0 c 2,23,-1
 94 0 l 2,24,25
 85 0 85 0 61.5 60.5 c 128,-1,26
 38 121 38 121 38 136 c 128,-1,27
 38 151 38 151 41 155 c 2,28,-1
 275 518 l 1,29,-1
 76 518 l 2,0,1
EndSplineSet
EndChar

StartChar: bracketleft
Encoding: 91 91 62
Width: 385
GlyphClass: 2
Flags: W
LayerCount: 2
Fore
SplineSet
109 798 m 2,0,-1
 325 798 l 2,1,2
 343 798 343 798 351 769 c 0,3,4
 355 754 355 754 355 740 c 128,-1,5
 355 726 355 726 351 711 c 0,6,7
 343 682 343 682 325 682 c 2,8,-1
 196 682 l 1,9,-1
 196 0 l 1,10,-1
 325 0 l 2,11,12
 343 0 343 0 351 -29 c 0,13,14
 355 -44 355 -44 355 -58 c 128,-1,15
 355 -72 355 -72 351 -87 c 0,16,17
 343 -116 343 -116 325 -116 c 2,18,-1
 109 -116 l 2,19,20
 80 -116 80 -116 80 -87 c 2,21,-1
 80 769 l 2,22,23
 80 798 80 798 109 798 c 2,0,-1
EndSplineSet
EndChar

StartChar: backslash
Encoding: 92 92 63
Width: 587
GlyphClass: 2
Flags: W
LayerCount: 2
Fore
SplineSet
587 -36 m 2,0,1
 589 -40 589 -40 589 -46 c 128,-1,2
 589 -52 589 -52 584 -62 c 0,3,4
 574 -82 574 -82 536 -99 c 0,5,6
 521 -106 521 -106 514 -106 c 0,7,8
 492 -106 492 -106 487 -95 c 1,9,-1
 20 716 l 2,10,11
 17 721 17 721 17 726.5 c 128,-1,12
 17 732 17 732 22 742 c 0,13,14
 31 760 31 760 70 778 c 0,15,16
 84 785 84 785 91.5 785 c 128,-1,17
 99 785 99 785 106.5 784.5 c 128,-1,18
 114 784 114 784 120 775 c 2,19,-1
 587 -36 l 2,0,1
EndSplineSet
EndChar

StartChar: bracketright
Encoding: 93 93 64
Width: 385
GlyphClass: 2
Flags: W
LayerCount: 2
Fore
SplineSet
60 798 m 2,0,-1
 276 798 l 2,1,2
 305 798 305 798 305 769 c 2,3,-1
 305 -87 l 2,4,5
 305 -116 305 -116 276 -116 c 2,6,-1
 60 -116 l 2,7,8
 42 -116 42 -116 34 -87 c 0,9,10
 30 -72 30 -72 30 -58 c 128,-1,11
 30 -44 30 -44 34 -29 c 0,12,13
 42 0 42 0 60 0 c 2,14,-1
 189 0 l 1,15,-1
 189 682 l 1,16,-1
 60 682 l 2,17,18
 42 682 42 682 34 711 c 0,19,20
 30 726 30 726 30 740 c 128,-1,21
 30 754 30 754 34 769 c 0,22,23
 42 798 42 798 60 798 c 2,0,-1
EndSplineSet
EndChar

StartChar: asciicircum
Encoding: 94 94 65
Width: 687
GlyphClass: 2
Flags: W
LayerCount: 2
Fore
SplineSet
630 447 m 1,0,1
 636 440 636 440 636 429.5 c 128,-1,2
 636 419 636 419 626.5 397.5 c 128,-1,3
 617 376 617 376 599 362.5 c 128,-1,4
 581 349 581 349 572.5 349 c 128,-1,5
 564 349 564 349 558 355 c 2,6,-1
 334 557 l 1,7,-1
 123 352 l 2,8,9
 117 346 117 346 108.5 346 c 128,-1,10
 100 346 100 346 81.5 359.5 c 128,-1,11
 63 373 63 373 53.5 394.5 c 128,-1,12
 44 416 44 416 44 426.5 c 128,-1,13
 44 437 44 437 51 444 c 2,14,-1
 307 675 l 1,15,16
 321 689 321 689 332 689 c 128,-1,17
 343 689 343 689 353 679 c 1,18,-1
 630 447 l 1,0,1
EndSplineSet
EndChar

StartChar: underscore
Encoding: 95 95 66
Width: 636
GlyphClass: 2
Flags: W
LayerCount: 2
Fore
SplineSet
552 -150 m 2,0,-1
 77 -150 l 2,1,2
 59 -150 59 -150 51 -121 c 0,3,4
 47 -106 47 -106 47 -92 c 128,-1,5
 47 -78 47 -78 51 -63 c 0,6,7
 59 -34 59 -34 77 -34 c 2,8,-1
 552 -34 l 2,9,10
 570 -34 570 -34 578 -63 c 0,11,12
 582 -78 582 -78 582 -92 c 128,-1,13
 582 -106 582 -106 578 -121 c 0,14,15
 570 -150 570 -150 552 -150 c 2,0,-1
EndSplineSet
EndChar

StartChar: grave
Encoding: 96 96 67
Width: 350
GlyphClass: 2
Flags: W
LayerCount: 2
Fore
SplineSet
76 605 m 1,1,2
 71 610 71 610 71 619 c 0,3,4
 71 652 71 652 90 681.5 c 128,-1,5
 109 711 109 711 119 711 c 0,6,7
 122 711 122 711 285 621 c 1,8,9
 291 615 291 615 291 607 c 0,10,11
 291 577 291 577 275 553 c 128,-1,12
 259 529 259 529 250 529 c 0,13,0
 248 529 248 529 76 605 c 1,1,2
EndSplineSet
EndChar

StartChar: a
Encoding: 97 97 68
Width: 517
GlyphClass: 2
Flags: W
LayerCount: 2
Fore
SplineSet
108 363 m 1,0,1
 80 413 80 413 80 444.5 c 128,-1,2
 80 476 80 476 97 485 c 1,3,4
 154 510 154 510 253.5 510 c 128,-1,5
 353 510 353 510 394 463.5 c 128,-1,6
 435 417 435 417 435 326 c 2,7,-1
 435 168 l 1,8,-1
 469 168 l 2,9,10
 486 168 486 168 495.5 148 c 128,-1,11
 505 128 505 128 505 93 c 128,-1,12
 505 58 505 58 487.5 24 c 128,-1,13
 470 -10 470 -10 440 -10 c 0,14,15
 386 -10 386 -10 353 19 c 0,16,17
 338 31 338 31 330 48 c 1,18,19
 284 -10 284 -10 187 -10 c 0,20,21
 114 -10 114 -10 64 42 c 128,-1,22
 14 94 14 94 14 165 c 0,23,24
 14 328 14 328 209 328 c 2,25,-1
 264 328 l 1,26,-1
 264 338 l 2,27,28
 264 364 264 364 255.5 371.5 c 128,-1,29
 247 379 247 379 216 379 c 0,30,31
 178 379 178 379 108 363 c 1,0,1
188 179 m 0,32,33
 188 157 188 157 200 145.5 c 128,-1,34
 212 134 212 134 230.5 134 c 128,-1,35
 249 134 249 134 264 149 c 1,36,-1
 264 226 l 1,37,-1
 236 226 l 2,38,39
 188 226 188 226 188 179 c 0,32,33
EndSplineSet
EndChar

StartChar: b
Encoding: 98 98 69
Width: 520
GlyphClass: 2
Flags: W
LayerCount: 2
Fore
SplineSet
50 697 m 2,0,1
 50 709 50 709 136.5 709 c 128,-1,2
 223 709 223 709 223 696 c 2,3,-1
 223 502 l 1,4,5
 266 510 266 510 284 510 c 0,6,7
 494 510 494 510 494 269 c 0,8,9
 494 135 494 135 429.5 62.5 c 128,-1,10
 365 -10 365 -10 246.5 -10 c 128,-1,11
 128 -10 128 -10 50 43 c 1,12,-1
 50 697 l 2,0,1
256 354 m 0,13,14
 239 354 239 354 223 343 c 1,15,-1
 223 152 l 1,16,17
 237 146 237 146 252.5 146 c 128,-1,18
 268 146 268 146 284 158 c 0,19,20
 312 178 312 178 312 251 c 0,21,22
 312 354 312 354 256 354 c 0,13,14
EndSplineSet
EndChar

StartChar: c
Encoding: 99 99 70
Width: 424
GlyphClass: 2
Flags: W
LayerCount: 2
Fore
SplineSet
209 248 m 0,0,1
 209 150 209 150 283 150 c 0,2,3
 331 150 331 150 363 169 c 1,4,5
 378 169 378 169 387.5 117.5 c 128,-1,6
 397 66 397 66 397 47.5 c 128,-1,7
 397 29 397 29 392 23 c 1,8,9
 339 -10 339 -10 247 -10 c 128,-1,10
 155 -10 155 -10 90.5 58.5 c 128,-1,11
 26 127 26 127 26 245.5 c 128,-1,12
 26 364 26 364 89.5 437 c 128,-1,13
 153 510 153 510 258.5 510 c 128,-1,14
 364 510 364 510 405 459 c 0,15,16
 414 448 414 448 414 426.5 c 128,-1,17
 414 405 414 405 406 374 c 0,18,19
 388 310 388 310 359 300 c 0,20,21
 355 299 355 299 347.5 299 c 128,-1,22
 340 299 340 299 329 311 c 0,23,24
 290 350 290 350 266.5 350 c 128,-1,25
 243 350 243 350 226 326 c 128,-1,26
 209 302 209 302 209 248 c 0,0,1
EndSplineSet
EndChar

StartChar: d
Encoding: 100 100 71
Width: 565
GlyphClass: 2
Flags: W
LayerCount: 2
Fore
SplineSet
298 694 m 2,0,1
 298 709 298 709 377 709 c 0,2,3
 404 709 404 709 439.5 705.5 c 128,-1,4
 475 702 475 702 475 696 c 2,5,-1
 475 169 l 1,6,-1
 510 169 l 2,7,8
 535 169 535 169 543 124 c 0,9,10
 545 111 545 111 545 88.5 c 128,-1,11
 545 66 545 66 531 34 c 0,12,13
 511 -10 511 -10 467 -10 c 0,14,15
 434 -10 434 -10 408.5 3 c 128,-1,16
 383 16 383 16 374 30 c 2,17,-1
 365 43 l 1,18,19
 310 -10 310 -10 227 -10 c 128,-1,20
 144 -10 144 -10 85 59 c 128,-1,21
 26 128 26 128 26 251.5 c 128,-1,22
 26 375 26 375 88 442.5 c 128,-1,23
 150 510 150 510 243 510 c 0,24,25
 270 510 270 510 298 504 c 1,26,-1
 298 694 l 2,0,1
265 350 m 0,27,28
 209 350 209 350 209 249 c 0,29,30
 209 198 209 198 225 175.5 c 128,-1,31
 241 153 241 153 260.5 153 c 128,-1,32
 280 153 280 153 298 170 c 1,33,-1
 298 340 l 1,34,35
 281 350 281 350 265 350 c 0,27,28
EndSplineSet
EndChar

StartChar: e
Encoding: 101 101 72
Width: 486
GlyphClass: 2
Flags: W
LayerCount: 2
Fore
SplineSet
423 27 m 1,0,1
 360 -10 360 -10 261 -10 c 128,-1,2
 162 -10 162 -10 94 57.5 c 128,-1,3
 26 125 26 125 26 244.5 c 128,-1,4
 26 364 26 364 91.5 437 c 128,-1,5
 157 510 157 510 257 510 c 128,-1,6
 357 510 357 510 411.5 459 c 128,-1,7
 466 408 466 408 466 335 c 0,8,9
 466 173 466 173 280 173 c 2,10,-1
 211 173 l 1,11,12
 211 143 211 143 227.5 131.5 c 128,-1,13
 244 120 244 120 276 120 c 0,14,15
 346 120 346 120 409 152 c 0,16,17
 410 153 410 153 418 138 c 0,18,19
 442 95 442 95 442 65.5 c 128,-1,20
 442 36 442 36 423 27 c 1,0,1
298 316 m 0,21,22
 298 358 298 358 257 358 c 0,23,24
 238 358 238 358 224.5 346.5 c 128,-1,25
 211 335 211 335 211 313 c 2,26,-1
 211 282 l 1,27,-1
 265 282 l 2,28,29
 298 282 298 282 298 316 c 0,21,22
EndSplineSet
EndChar

StartChar: f
Encoding: 102 102 73
Width: 375
GlyphClass: 2
Flags: W
LayerCount: 2
Fore
SplineSet
84 367 m 1,0,-1
 35 367 l 2,1,2
 20 367 20 367 20 433.5 c 128,-1,3
 20 500 20 500 35 500 c 2,4,-1
 84 500 l 1,5,-1
 84 522 l 2,6,7
 84 628 84 628 128.5 668.5 c 128,-1,8
 173 709 173 709 253 709 c 128,-1,9
 333 709 333 709 394 680 c 0,10,11
 402 677 402 677 402 658.5 c 128,-1,12
 402 640 402 640 385 599 c 128,-1,13
 368 558 368 558 356 552 c 1,14,15
 322 573 322 573 286 573 c 0,16,17
 247 573 247 573 247 521 c 2,18,-1
 247 500 l 1,19,-1
 330 500 l 2,20,21
 348 500 348 500 348 436 c 0,22,23
 348 366 348 366 325 366 c 2,24,-1
 261 366 l 1,25,-1
 261 12 l 2,26,27
 261 0 261 0 172.5 0 c 128,-1,28
 84 0 84 0 84 12 c 2,29,-1
 84 367 l 1,0,-1
EndSplineSet
EndChar

StartChar: g
Encoding: 103 103 74
Width: 516
GlyphClass: 2
Flags: W
LayerCount: 2
Fore
SplineSet
229 0 m 0,0,1
 132 0 132 0 79 62.5 c 128,-1,2
 26 125 26 125 26 247.5 c 128,-1,3
 26 370 26 370 95.5 439.5 c 128,-1,4
 165 509 165 509 280.5 509 c 128,-1,5
 396 509 396 509 471 458 c 1,6,-1
 471 -40 l 2,7,8
 471 -114 471 -114 411 -153.5 c 128,-1,9
 351 -193 351 -193 257 -193 c 128,-1,10
 163 -193 163 -193 89 -169 c 1,11,12
 79 -145 79 -145 79 -126 c 0,13,14
 79 -62 79 -62 100 -32 c 1,15,16
 167 -61 167 -61 243 -61 c 0,17,18
 298 -61 298 -61 298 -22 c 2,19,-1
 298 8 l 1,20,21
 255 0 255 0 229 0 c 0,0,1
275 346 m 0,22,23
 208 346 208 346 208 245 c 0,24,25
 208 182 208 182 234 163 c 0,26,27
 251 150 251 150 268 150 c 128,-1,28
 285 150 285 150 298 153 c 1,29,-1
 298 343 l 1,30,31
 286 346 286 346 275 346 c 0,22,23
EndSplineSet
EndChar

StartChar: h
Encoding: 104 104 75
Width: 501
GlyphClass: 2
Flags: W
LayerCount: 2
Fore
SplineSet
212 7 m 2,0,1
 212 -2 212 -2 128.5 -2 c 128,-1,2
 45 -2 45 -2 45 12 c 2,3,-1
 45 697 l 2,4,5
 45 704 45 704 76 707 c 128,-1,6
 107 710 107 710 128 710 c 0,7,8
 212 710 212 710 212 692 c 2,9,-1
 212 492 l 1,10,11
 268 509 268 509 297 509 c 0,12,13
 373 509 373 509 417 468.5 c 128,-1,14
 461 428 461 428 461 318 c 2,15,-1
 461 8 l 2,16,17
 461 -1 461 -1 383 -1 c 1,18,19
 295 2 295 2 295 9 c 2,20,-1
 295 303 l 2,21,22
 295 352 295 352 263 352 c 0,23,24
 241 352 241 352 212 331 c 1,25,-1
 212 7 l 2,0,1
EndSplineSet
EndChar

StartChar: i
Encoding: 105 105 76
Width: 273
GlyphClass: 2
Flags: W
LayerCount: 2
Fore
SplineSet
228 6 m 2,0,1
 228 -2 228 -2 136.5 -2 c 128,-1,2
 45 -2 45 -2 45 5 c 2,3,-1
 45 496 l 2,4,5
 45 503 45 503 136.5 503 c 128,-1,6
 228 503 228 503 228 497 c 2,7,-1
 228 6 l 2,0,1
228 556 m 2,8,9
 228 549 228 549 136.5 549 c 128,-1,10
 45 549 45 549 45 555 c 2,11,-1
 45 699 l 2,12,13
 45 709 45 709 136.5 709 c 128,-1,14
 228 709 228 709 228 703 c 2,15,-1
 228 556 l 2,8,9
EndSplineSet
EndChar

StartChar: j
Encoding: 106 106 77
Width: 271
GlyphClass: 2
Flags: W
LayerCount: 2
Fore
SplineSet
45 35 m 2,0,-1
 45 496 l 2,1,2
 45 502 45 502 135.5 502 c 128,-1,3
 226 502 226 502 226 497 c 2,4,-1
 226 -36 l 2,5,6
 226 -110 226 -110 164.5 -153.5 c 128,-1,7
 103 -197 103 -197 11 -197 c 0,8,9
 -118 -197 -118 -197 -118 -107 c 0,10,11
 -118 -77 -118 -77 -108 -57 c 1,12,13
 -99 -58 -99 -58 -83 -58 c 0,14,15
 -10 -58 -10 -58 17.5 -35 c 128,-1,16
 45 -12 45 -12 45 35 c 2,0,-1
45 555 m 2,17,-1
 45 699 l 2,18,19
 45 709 45 709 135.5 709 c 128,-1,20
 226 709 226 709 226 703 c 2,21,-1
 226 556 l 2,22,23
 226 549 226 549 135.5 549 c 128,-1,24
 45 549 45 549 45 555 c 2,17,-1
EndSplineSet
EndChar

StartChar: k
Encoding: 107 107 78
Width: 531
GlyphClass: 2
Flags: W
LayerCount: 2
Fore
SplineSet
45 692 m 2,0,1
 45 708 45 708 136 708 c 1,2,3
 221 705 221 705 221 695 c 2,4,-1
 221 311 l 1,5,-1
 320 494 l 2,6,7
 327 509 327 509 405 509 c 128,-1,8
 483 509 483 509 505 499 c 1,9,-1
 375 287 l 1,10,-1
 525 6 l 2,11,12
 527 2 527 2 487.5 -0.5 c 128,-1,13
 448 -3 448 -3 422 -3 c 0,14,15
 326 -3 326 -3 319 6 c 1,16,-1
 220 228 l 1,17,-1
 220 7 l 2,18,19
 220 -6 220 -6 132.5 -6 c 128,-1,20
 45 -6 45 -6 45 6 c 2,21,-1
 45 692 l 2,0,1
EndSplineSet
EndChar

StartChar: l
Encoding: 108 108 79
Width: 272
GlyphClass: 2
Flags: W
LayerCount: 2
Fore
SplineSet
227 8 m 2,0,1
 227 -1 227 -1 125 -1 c 1,2,3
 45 0 45 0 45 7 c 2,4,-1
 45 688 l 2,5,6
 45 703 45 703 142 703 c 1,7,8
 227 700 227 700 227 693 c 2,9,-1
 227 8 l 2,0,1
EndSplineSet
EndChar

StartChar: m
Encoding: 109 109 80
Width: 788
GlyphClass: 2
Flags: W
LayerCount: 2
Fore
SplineSet
498 5 m 2,0,1
 498 -2 498 -2 412.5 -2 c 128,-1,2
 327 -2 327 -2 327 7 c 2,3,-1
 327 298 l 2,4,5
 327 348 327 348 294 348 c 0,6,7
 277 348 277 348 249 326 c 1,8,-1
 249 6 l 2,9,10
 249 -4 249 -4 163.5 -4 c 128,-1,11
 78 -4 78 -4 78 7 c 2,12,-1
 78 334 l 1,13,-1
 53 334 l 2,14,15
 20 334 20 334 20 403 c 0,16,17
 20 434 20 434 32 466 c 0,18,19
 48 510 48 510 84 510 c 128,-1,20
 120 510 120 510 153.5 491 c 128,-1,21
 187 472 187 472 194 455 c 1,22,23
 256 510 256 510 331.5 510 c 128,-1,24
 407 510 407 510 453 463 c 1,25,26
 507 510 507 510 583 510 c 0,27,28
 748 510 748 510 748 309 c 2,29,-1
 748 5 l 2,30,31
 748 -2 748 -2 662.5 -2 c 128,-1,32
 577 -2 577 -2 577 7 c 2,33,-1
 577 298 l 2,34,35
 577 348 577 348 544 348 c 0,36,37
 526 348 526 348 498 326 c 1,38,-1
 498 5 l 2,0,1
EndSplineSet
EndChar

StartChar: n
Encoding: 110 110 81
Width: 551
GlyphClass: 2
Flags: W
LayerCount: 2
Fore
SplineSet
254 6 m 2,0,1
 254 -1 254 -1 182 -1 c 1,2,3
 82 2 82 2 82 10 c 2,4,-1
 82 334 l 1,5,-1
 56 334 l 2,6,7
 30 334 30 334 22 378 c 0,8,9
 20 391 20 391 20 404 c 0,10,11
 20 435 20 435 32 466 c 0,12,13
 50 510 50 510 88 510 c 128,-1,14
 126 510 126 510 156 492 c 128,-1,15
 186 474 186 474 196 456 c 1,16,17
 259 510 259 510 346 510 c 128,-1,18
 433 510 433 510 472 463 c 128,-1,19
 511 416 511 416 511 309 c 2,20,-1
 511 9 l 2,21,22
 511 -3 511 -3 425.5 -3 c 128,-1,23
 340 -3 340 -3 340 9 c 2,24,-1
 340 298 l 2,25,26
 340 348 340 348 305 348 c 0,27,28
 295 348 295 348 277 339.5 c 128,-1,29
 259 331 259 331 254 327 c 1,30,-1
 254 6 l 2,0,1
EndSplineSet
EndChar

StartChar: o
Encoding: 111 111 82
Width: 513
GlyphClass: 2
Flags: W
LayerCount: 2
Fore
SplineSet
26 250 m 128,-1,1
 26 372 26 372 88.5 441 c 128,-1,2
 151 510 151 510 257 510 c 128,-1,3
 363 510 363 510 425 441 c 128,-1,4
 487 372 487 372 487 250 c 128,-1,5
 487 128 487 128 425 59 c 128,-1,6
 363 -10 363 -10 257 -10 c 128,-1,7
 151 -10 151 -10 88.5 59 c 128,-1,0
 26 128 26 128 26 250 c 128,-1,1
201 251 m 128,-1,9
 201 159 201 159 257.5 159 c 128,-1,10
 314 159 314 159 314 251 c 128,-1,11
 314 343 314 343 257.5 343 c 128,-1,8
 201 343 201 343 201 251 c 128,-1,9
EndSplineSet
EndChar

StartChar: p
Encoding: 112 112 83
Width: 555
GlyphClass: 2
Flags: W
LayerCount: 2
Fore
SplineSet
260 -182 m 2,0,1
 260 -189 260 -189 174.5 -189 c 128,-1,2
 89 -189 89 -189 89 -182 c 2,3,-1
 89 333 l 1,4,-1
 55 333 l 2,5,6
 31 333 31 333 22 377 c 0,7,8
 19 391 19 391 19 413 c 128,-1,9
 19 435 19 435 33 465 c 0,10,11
 53 509 53 509 97 509 c 0,12,13
 126 509 126 509 150.5 495.5 c 128,-1,14
 175 482 175 482 184.5 470.5 c 128,-1,15
 194 459 194 459 194 457 c 1,16,17
 261 509 261 509 339 509 c 128,-1,18
 417 509 417 509 473 448.5 c 128,-1,19
 529 388 529 388 529 261.5 c 128,-1,20
 529 135 529 135 473 65.5 c 128,-1,21
 417 -4 417 -4 331 -4 c 0,22,23
 292 -4 292 -4 260 0 c 1,24,-1
 260 -182 l 2,0,1
301 334 m 0,25,26
 284 334 284 334 268 323 c 1,27,-1
 268 146 l 1,28,29
 285 144 285 144 295.5 144 c 128,-1,30
 306 144 306 144 312 144 c 0,31,32
 353 148 353 148 353 249 c 0,33,34
 353 334 353 334 301 334 c 0,25,26
EndSplineSet
EndChar

StartChar: q
Encoding: 113 113 84
Width: 511
GlyphClass: 2
Flags: W
LayerCount: 2
Fore
SplineSet
226 -4 m 0,0,1
 134 -4 134 -4 80 67 c 128,-1,2
 26 138 26 138 26 257 c 128,-1,3
 26 376 26 376 92 443 c 128,-1,4
 158 510 158 510 273 510 c 128,-1,5
 388 510 388 510 466 457 c 1,6,-1
 466 -180 l 2,7,8
 466 -193 466 -193 380 -193 c 128,-1,9
 294 -193 294 -193 294 -180 c 2,10,-1
 294 4 l 1,11,12
 254 -4 254 -4 226 -4 c 0,0,1
228 334 m 0,13,14
 205 314 205 314 205 247.5 c 128,-1,15
 205 181 205 181 232 163 c 0,16,17
 247 153 247 153 263 153 c 128,-1,18
 279 153 279 153 294 158 c 1,19,-1
 294 344 l 1,20,21
 279 348 279 348 261 348 c 128,-1,22
 243 348 243 348 228 334 c 0,13,14
EndSplineSet
EndChar

StartChar: r
Encoding: 114 114 85
Width: 396
GlyphClass: 2
Flags: W
LayerCount: 2
Fore
SplineSet
264 1 m 2,0,1
 264 -6 264 -6 173 -6 c 1,2,3
 82 -4 82 -4 82 2 c 2,4,-1
 82 334 l 1,5,-1
 55 334 l 2,6,7
 39 334 39 334 29.5 353.5 c 128,-1,8
 20 373 20 373 20 402 c 0,9,10
 20 510 20 510 84 510 c 0,11,12
 129 510 129 510 159 482.5 c 128,-1,13
 189 455 189 455 189 420 c 1,14,15
 210 461 210 461 245.5 485.5 c 128,-1,16
 281 510 281 510 318 510 c 0,17,18
 376 510 376 510 388 480 c 0,19,20
 391 472 391 472 391 456.5 c 128,-1,21
 391 441 391 441 381.5 401 c 128,-1,22
 372 361 372 361 362 343 c 128,-1,23
 352 325 352 325 350 325 c 128,-1,24
 348 325 348 325 331.5 332.5 c 128,-1,25
 315 340 315 340 302 340 c 0,26,27
 264 340 264 340 264 280 c 2,28,-1
 264 1 l 2,0,1
EndSplineSet
EndChar

StartChar: s
Encoding: 115 115 86
Width: 450
GlyphClass: 2
Flags: W
LayerCount: 2
Fore
SplineSet
66 180 m 1,0,1
 147 131 147 131 194 131 c 0,2,3
 224 131 224 131 224 152 c 0,4,5
 224 167 224 167 172 191 c 1,6,7
 47 242 47 242 47 358 c 0,8,9
 47 432 47 432 101 471 c 128,-1,10
 155 510 155 510 230.5 510 c 128,-1,11
 306 510 306 510 358.5 494 c 128,-1,12
 411 478 411 478 411 452 c 0,13,14
 411 430 411 430 389.5 394 c 128,-1,15
 368 358 368 358 360 355 c 1,16,17
 317 379 317 379 267 379 c 0,18,19
 240 379 240 379 240 360 c 0,20,21
 240 348 240 348 250.5 339.5 c 128,-1,22
 261 331 261 331 289 318.5 c 128,-1,23
 317 306 317 306 335.5 296 c 128,-1,24
 354 286 354 286 377 268 c 0,25,26
 425 230 425 230 425 169 c 0,27,28
 425 89 425 89 372 39.5 c 128,-1,29
 319 -10 319 -10 212 -10 c 0,30,31
 141 -10 141 -10 83 14 c 128,-1,32
 25 38 25 38 25 80 c 0,33,34
 25 108 25 108 38.5 139 c 128,-1,35
 52 170 52 170 66 180 c 1,0,1
EndSplineSet
EndChar

StartChar: t
Encoding: 116 116 87
Width: 368
GlyphClass: 2
Flags: W
LayerCount: 2
Fore
SplineSet
275 6 m 2,0,1
 275 -6 275 -6 191 -6 c 1,2,3
 91 -2 91 -2 91 7 c 2,4,-1
 91 361 l 1,5,-1
 40 361 l 2,6,7
 20 361 20 361 20 430 c 0,8,9
 20 448 20 448 23.5 474 c 128,-1,10
 27 500 27 500 38 500 c 2,11,-1
 91 500 l 1,12,-1
 91 588 l 2,13,14
 91 608 91 608 175.5 608 c 128,-1,15
 260 608 260 608 260 592 c 2,16,-1
 260 528 l 1,17,-1
 261 500 l 1,18,-1
 346 500 l 2,19,20
 363 500 363 500 363 430 c 128,-1,21
 363 360 363 360 346 360 c 2,22,-1
 275 360 l 1,23,-1
 275 6 l 2,0,1
EndSplineSet
EndChar

StartChar: u
Encoding: 117 117 88
Width: 544
GlyphClass: 2
Flags: W
LayerCount: 2
Fore
SplineSet
40 494 m 2,0,1
 40 505 40 505 126 505 c 128,-1,2
 212 505 212 505 212 494 c 2,3,-1
 212 202 l 2,4,5
 212 152 212 152 244 152 c 0,6,7
 268 152 268 152 298 173 c 1,8,-1
 298 494 l 2,9,10
 298 504 298 504 383 504 c 128,-1,11
 468 504 468 504 468 494 c 2,12,-1
 468 166 l 1,13,-1
 494 166 l 2,14,15
 528 166 528 166 528 101 c 0,16,17
 528 68 528 68 514 34 c 1,18,19
 494 -10 494 -10 460 -10 c 0,20,21
 393 -10 393 -10 361 45 c 1,22,-1
 360 44 l 1,23,24
 299 -10 299 -10 229 -10 c 0,25,26
 132 -10 132 -10 86 38.5 c 128,-1,27
 40 87 40 87 40 199 c 2,28,-1
 40 494 l 2,0,1
EndSplineSet
EndChar

StartChar: v
Encoding: 118 118 89
Width: 521
GlyphClass: 2
Flags: W
LayerCount: 2
Fore
SplineSet
6 497 m 2,0,1
 3 505 3 505 99.5 505 c 128,-1,2
 196 505 196 505 196 500 c 1,3,-1
 268 160 l 1,4,-1
 322 495 l 1,5,6
 325 504 325 504 421 504 c 0,7,8
 518 504 518 504 515 496 c 2,9,-1
 374 7 l 1,10,11
 367 -3 367 -3 255 -3 c 128,-1,12
 143 -3 143 -3 135 12 c 1,13,-1
 6 497 l 2,0,1
EndSplineSet
EndChar

StartChar: w
Encoding: 119 119 90
Width: 752
GlyphClass: 2
Flags: W
LayerCount: 2
Fore
SplineSet
564 495 m 2,0,1
 564 504 564 504 619 504 c 0,2,3
 743 504 743 504 741 496 c 2,4,-1
 643 10 l 2,5,6
 640 -6 640 -6 532 -6 c 128,-1,7
 424 -6 424 -6 421 10 c 2,8,-1
 380 234 l 1,9,-1
 329 10 l 2,10,11
 326 -5 326 -5 214.5 -5 c 128,-1,12
 103 -5 103 -5 100 13 c 2,13,-1
 11 500 l 1,14,15
 8 506 8 506 97 506 c 1,16,17
 185 505 185 505 185 502 c 2,18,-1
 231 164 l 1,19,-1
 314 498 l 2,20,21
 316 504 316 504 380 504 c 128,-1,22
 444 504 444 504 446 498 c 2,23,-1
 528 168 l 1,24,-1
 564 495 l 2,0,1
EndSplineSet
EndChar

StartChar: x
Encoding: 120 120 91
Width: 557
GlyphClass: 2
Flags: W
LayerCount: 2
Fore
SplineSet
345 497 m 2,0,1
 349 505 349 505 395 505 c 0,2,3
 545 505 545 505 541 494 c 1,4,-1
 419 241 l 1,5,6
 542 11 542 11 542 11 c 1,7,8
 542 5 542 5 482 1 c 128,-1,9
 422 -3 422 -3 397 -3 c 0,10,11
 334 -3 334 -3 330 10 c 2,12,-1
 276 177 l 1,13,-1
 214 3 l 2,14,15
 212 -4 212 -4 157 -4 c 128,-1,16
 102 -4 102 -4 59 0 c 128,-1,17
 16 4 16 4 20 10 c 2,18,-1
 133 240 l 1,19,20
 15 487 15 487 15 488 c 0,21,22
 15 494 15 494 45.5 499 c 128,-1,23
 76 504 76 504 114.5 504 c 128,-1,24
 153 504 153 504 188 500.5 c 128,-1,25
 223 497 223 497 227 491 c 1,26,-1
 280 329 l 1,27,-1
 345 497 l 2,0,1
EndSplineSet
EndChar

StartChar: y
Encoding: 121 121 92
Width: 537
GlyphClass: 2
Flags: W
LayerCount: 2
Fore
SplineSet
10 495 m 1,0,1
 10 506 10 506 101.5 506 c 128,-1,2
 193 506 193 506 196 496 c 2,3,-1
 268 260 l 1,4,-1
 337 498 l 1,5,6
 341 506 341 506 399 506 c 0,7,8
 532 506 532 506 526 493 c 1,9,-1
 291 -176 l 1,10,11
 290 -182 290 -182 236.5 -182 c 128,-1,12
 183 -182 183 -182 137 -178.5 c 128,-1,13
 91 -175 91 -175 93 -170 c 2,14,-1
 180 40 l 1,15,-1
 10 495 l 1,0,1
EndSplineSet
EndChar

StartChar: z
Encoding: 122 122 93
Width: 454
GlyphClass: 2
Flags: W
LayerCount: 2
Fore
SplineSet
43 340 m 2,0,1
 36 340 36 340 36 383 c 0,2,3
 36 500 36 500 55 500 c 2,4,-1
 374 500 l 2,5,6
 381 500 381 500 405 456 c 128,-1,7
 429 412 429 412 429 406.5 c 128,-1,8
 429 401 429 401 428 400 c 2,9,-1
 234 156 l 1,10,-1
 408 168 l 1,11,12
 424 168 424 168 424 97 c 0,13,14
 424 70 424 70 419 35 c 128,-1,15
 414 0 414 0 402 0 c 2,16,-1
 82 0 l 2,17,18
 67 0 67 0 46 50 c 128,-1,19
 25 100 25 100 25 110.5 c 128,-1,20
 25 121 25 121 27 123 c 2,21,-1
 218 346 l 1,22,-1
 43 340 l 2,0,1
EndSplineSet
EndChar

StartChar: braceleft
Encoding: 123 123 94
Width: 362
GlyphClass: 2
Flags: W
LayerCount: 2
Fore
SplineSet
225 202 m 2,0,-1
 225 -63 l 2,1,2
 225 -104 225 -104 276 -145 c 0,3,4
 282 -150 282 -150 282 -159.5 c 128,-1,5
 282 -169 282 -169 254.5 -191.5 c 128,-1,6
 227 -214 227 -214 199 -214 c 0,7,8
 186 -214 186 -214 179 -208 c 0,9,10
 158 -188 158 -188 145.5 -173.5 c 128,-1,11
 133 -159 133 -159 121 -129 c 128,-1,12
 109 -99 109 -99 109 -63 c 2,13,-1
 109 177 l 2,14,15
 109 201 109 201 91 226 c 128,-1,16
 73 251 73 251 46 263 c 1,17,18
 30 272 30 272 30 319 c 128,-1,19
 30 366 30 366 46 373 c 0,20,21
 109 397 109 397 109 457 c 2,22,-1
 109 712 l 2,23,24
 109 780 109 780 183 842 c 1,25,26
 192 847 192 847 203 847 c 0,27,28
 240 847 240 847 270 814 c 0,29,30
 281 801 281 801 281 793 c 128,-1,31
 281 785 281 785 276 780 c 0,32,33
 225 729 225 729 225 697 c 2,34,-1
 225 447 l 2,35,36
 225 373 225 373 167 315 c 1,37,38
 225 259 225 259 225 202 c 2,0,-1
EndSplineSet
EndChar

StartChar: bar
Encoding: 124 124 95
Width: 628
GlyphClass: 2
Flags: W
LayerCount: 2
Fore
SplineSet
369 893 m 2,0,-1
 369 -190 l 2,1,2
 369 -208 369 -208 340 -216 c 0,3,4
 326 -220 326 -220 311 -220 c 1,5,-1
 282 -216 l 1,6,7
 253 -208 253 -208 253 -190 c 2,8,-1
 253 893 l 2,9,10
 253 911 253 911 282 919 c 0,11,12
 296 923 296 923 311 923 c 1,13,-1
 340 919 l 1,14,15
 369 911 369 911 369 893 c 2,0,-1
EndSplineSet
EndChar

StartChar: braceright
Encoding: 125 125 96
Width: 362
GlyphClass: 2
Flags: W
LayerCount: 2
Fore
SplineSet
138 -63 m 2,0,-1
 138 202 l 2,1,2
 138 260 138 260 195 315 c 1,3,4
 137 373 137 373 137 447 c 2,5,-1
 137 697 l 2,6,7
 137 729 137 729 86 780 c 0,8,9
 81 785 81 785 81 793.5 c 128,-1,10
 81 802 81 802 95 818.5 c 128,-1,11
 109 835 109 835 128 841 c 128,-1,12
 147 847 147 847 158 847 c 128,-1,13
 169 847 169 847 179 842 c 1,14,15
 256 778 256 778 256 712 c 2,16,-1
 256 457 l 2,17,18
 256 396 256 396 316 373 c 0,19,20
 332 366 332 366 332 328 c 0,21,22
 332 272 332 272 316 263 c 1,23,24
 289 251 289 251 272.5 226.5 c 128,-1,25
 256 202 256 202 256 177 c 2,26,-1
 256 -63 l 2,27,28
 256 -99 256 -99 243 -129.5 c 128,-1,29
 230 -160 230 -160 218 -173.5 c 128,-1,30
 206 -187 206 -187 183 -208 c 0,31,32
 175 -215 175 -215 160 -215 c 128,-1,33
 145 -215 145 -215 113 -195.5 c 128,-1,34
 81 -176 81 -176 81 -156 c 0,35,36
 81 -149 81 -149 86 -145 c 0,37,38
 138 -103 138 -103 138 -63 c 2,0,-1
EndSplineSet
EndChar

StartChar: asciitilde
Encoding: 126 126 97
Width: 459
GlyphClass: 2
Flags: W
LayerCount: 2
Fore
SplineSet
74 226 m 1,0,1
 55 231 55 231 38.5 259.5 c 128,-1,2
 22 288 22 288 22 297.5 c 128,-1,3
 22 307 22 307 25 310 c 0,4,5
 88 373 88 373 155 373 c 0,6,7
 186 373 186 373 225 354.5 c 128,-1,8
 264 336 264 336 285 336 c 0,9,10
 322 337 322 337 354 375 c 0,11,12
 356 376 356 376 359 376 c 0,13,14
 371 376 371 376 392 348 c 128,-1,15
 413 320 413 320 413 310 c 0,16,17
 413 281 413 281 366 248 c 1,18,19
 334 227 334 227 305 227 c 0,20,21
 301 227 301 227 298 227 c 0,22,23
 260 227 260 227 214 247 c 128,-1,24
 168 267 168 267 157.5 267 c 128,-1,25
 147 267 147 267 140 265 c 128,-1,26
 133 263 133 263 127.5 261.5 c 128,-1,27
 122 260 122 260 114.5 255 c 128,-1,28
 107 250 107 250 103 247.5 c 128,-1,29
 99 245 99 245 89 237 c 128,-1,30
 79 229 79 229 74 226 c 1,0,1
EndSplineSet
EndChar

StartChar: exclamdown
Encoding: 161 161 98
Width: 287
GlyphClass: 2
Flags: W
LayerCount: 2
Fore
SplineSet
65 290 m 2,0,1
 65 296 65 296 136.5 296 c 128,-1,2
 208 296 208 296 208 291 c 2,3,-1
 228 -190 l 2,4,5
 228 -198 228 -198 136.5 -198 c 128,-1,6
 45 -198 45 -198 45 -191 c 2,7,-1
 65 290 l 2,0,1
230 350 m 2,8,9
 230 343 230 343 137.5 343 c 128,-1,10
 45 343 45 343 45 349 c 2,11,-1
 45 493 l 2,12,13
 45 503 45 503 137.5 503 c 128,-1,14
 230 503 230 503 230 497 c 2,15,-1
 230 350 l 2,8,9
EndSplineSet
EndChar

StartChar: cent
Encoding: 162 162 99
Width: 528
GlyphClass: 2
Flags: W
LayerCount: 2
Fore
SplineSet
277 707 m 2,0,1
 277 726 277 726 305 726 c 128,-1,2
 333 726 333 726 333 707 c 2,3,-1
 333 644 l 1,4,5
 391 640 391 640 432 622 c 128,-1,6
 473 604 473 604 473 577.5 c 128,-1,7
 473 551 473 551 457.5 517.5 c 128,-1,8
 442 484 442 484 426 464 c 2,9,-1
 410 443 l 1,10,11
 384 458 384 458 333 461 c 1,12,-1
 333 255 l 1,13,14
 388 259 388 259 427 277 c 1,15,16
 447 250 447 250 461 214 c 128,-1,17
 475 178 475 178 475 145.5 c 128,-1,18
 475 113 475 113 435 91.5 c 128,-1,19
 395 70 395 70 333 66 c 1,20,-1
 333 4 l 2,21,22
 333 -17 333 -17 305 -17 c 128,-1,23
 277 -17 277 -17 277 4 c 2,24,-1
 277 65 l 1,25,26
 167 71 167 71 101 145.5 c 128,-1,27
 35 220 35 220 35 354.5 c 128,-1,28
 35 489 35 489 101.5 562 c 128,-1,29
 168 635 168 635 277 644 c 1,30,-1
 277 707 l 2,0,1
205 359 m 128,-1,32
 205 273 205 273 277 257 c 1,33,-1
 277 459 l 1,34,31
 205 445 205 445 205 359 c 128,-1,32
EndSplineSet
EndChar

StartChar: sterling
Encoding: 163 163 100
Width: 490
GlyphClass: 2
Flags: W
LayerCount: 2
Fore
SplineSet
389 299 m 2,0,-1
 297 299 l 1,1,2
 291 218 291 218 260 171 c 1,3,-1
 432 171 l 2,4,5
 450 171 450 171 458 128 c 0,6,7
 461 107 461 107 461 85.5 c 128,-1,8
 461 64 461 64 458 43 c 0,9,10
 451 0 451 0 433 0 c 2,11,-1
 91 0 l 1,12,13
 67 14 67 14 47 62 c 0,14,15
 37 86 37 86 37 103 c 128,-1,16
 37 120 37 120 47 130 c 0,17,18
 129 212 129 212 137 299 c 1,19,-1
 52 299 l 2,20,21
 38 299 38 299 32 320 c 0,22,23
 30 330 30 330 30 341 c 128,-1,24
 30 352 30 352 32 362 c 0,25,26
 38 383 38 383 51 383 c 2,27,-1
 111 383 l 1,28,29
 109 386 109 386 100.5 399.5 c 128,-1,30
 92 413 92 413 88.5 418.5 c 128,-1,31
 85 424 85 424 78 437 c 128,-1,32
 71 450 71 450 67.5 459.5 c 128,-1,33
 64 469 64 469 60 482 c 0,34,35
 52 505 52 505 52 539 c 0,36,37
 52 710 52 710 301 710 c 0,38,39
 364 710 364 710 412 692.5 c 128,-1,40
 460 675 460 675 460 643.5 c 128,-1,41
 460 612 460 612 445.5 562.5 c 128,-1,42
 431 513 431 513 419 503 c 1,43,44
 379 524 379 524 329 524 c 0,45,46
 234 524 234 524 234 463 c 0,47,48
 234 424 234 424 279 383 c 1,49,-1
 389 383 l 2,50,51
 409 383 409 383 409 341 c 128,-1,52
 409 299 409 299 389 299 c 2,0,-1
EndSplineSet
EndChar

StartChar: currency
Encoding: 164 164 101
Width: 728
GlyphClass: 2
Flags: W
LayerCount: 2
Fore
SplineSet
473 159 m 1,0,1
 417 123 417 123 354 123 c 128,-1,2
 291 123 291 123 238 159 c 1,3,-1
 159 80 l 2,4,5
 154 75 154 75 147 75 c 128,-1,6
 140 75 140 75 125 84 c 128,-1,7
 110 93 110 93 99 112.5 c 128,-1,8
 88 132 88 132 97 141 c 2,9,-1
 176 220 l 1,10,11
 140 276 140 276 140 340 c 128,-1,12
 140 404 140 404 174 456 c 1,13,-1
 92 538 l 2,14,15
 87 542 87 542 87 549 c 128,-1,16
 87 556 87 556 96 570.5 c 128,-1,17
 105 585 105 585 120 594.5 c 128,-1,18
 135 604 135 604 142 604 c 128,-1,19
 149 604 149 604 154 599 c 2,20,-1
 235 518 l 1,21,22
 289 556 289 556 354.5 556 c 128,-1,23
 420 556 420 556 475 519 c 1,24,-1
 555 599 l 2,25,26
 559 604 559 604 566 604 c 128,-1,27
 573 604 573 604 587.5 595.5 c 128,-1,28
 602 587 602 587 611.5 571.5 c 128,-1,29
 621 556 621 556 621 549 c 128,-1,30
 621 542 621 542 617 538 c 2,31,-1
 536 458 l 1,32,33
 572 405 572 405 572 340 c 128,-1,34
 572 275 572 275 534 219 c 1,35,-1
 613 140 l 2,36,37
 622 131 622 131 610 112 c 128,-1,38
 598 93 598 93 584 84 c 128,-1,39
 570 75 570 75 563 75 c 128,-1,40
 556 75 556 75 552 80 c 2,41,-1
 473 159 l 1,0,1
235 340 m 128,-1,43
 235 292 235 292 270 255 c 1,44,45
 305 220 305 220 355 220 c 128,-1,46
 405 220 405 220 439.5 254.5 c 128,-1,47
 474 289 474 289 474 339 c 128,-1,48
 474 389 474 389 439.5 424.5 c 128,-1,49
 405 460 405 460 357 460 c 0,50,51
 307 460 307 460 271 424 c 128,-1,42
 235 388 235 388 235 340 c 128,-1,43
EndSplineSet
EndChar

StartChar: yen
Encoding: 165 165 102
Width: 659
GlyphClass: 2
Flags: W
LayerCount: 2
Fore
SplineSet
567 213 m 2,0,-1
 433 213 l 1,1,-1
 433 17 l 2,2,3
 433 0 433 0 378 -8 c 1,4,5
 350 -11 350 -11 323 -11 c 128,-1,6
 296 -11 296 -11 269 -8 c 0,7,8
 214 -1 214 -1 214 17 c 2,9,-1
 214 213 l 1,10,-1
 91 213 l 2,11,12
 68 213 68 213 68 245 c 128,-1,13
 68 277 68 277 91 277 c 2,14,-1
 214 277 l 1,15,-1
 214 338 l 1,16,-1
 91 338 l 2,17,18
 68 338 68 338 68 375 c 128,-1,19
 68 412 68 412 91 412 c 2,20,-1
 182 412 l 1,21,-1
 0 696 l 2,22,23
 -5 704 -5 704 43 707.5 c 128,-1,24
 91 711 91 711 116 711 c 0,25,26
 219 711 219 711 240 677 c 1,27,-1
 331 520 l 1,28,-1
 421 677 l 1,29,30
 439 711 439 711 552 711 c 0,31,32
 577 711 577 711 614.5 707 c 128,-1,33
 652 703 652 703 649 698 c 2,34,-1
 468 412 l 1,35,-1
 567 412 l 2,36,37
 582 412 582 412 588 394 c 0,38,39
 592 384 592 384 592 374.5 c 128,-1,40
 592 365 592 365 589 356 c 0,41,42
 583 338 583 338 567 338 c 2,43,-1
 433 338 l 1,44,-1
 433 277 l 1,45,-1
 567 277 l 2,46,47
 582 277 582 277 588 261 c 0,48,49
 592 253 592 253 592 245 c 128,-1,50
 592 237 592 237 589 229 c 0,51,52
 583 213 583 213 567 213 c 2,0,-1
EndSplineSet
EndChar

StartChar: brokenbar
Encoding: 166 166 103
Width: 415
GlyphClass: 2
Flags: W
LayerCount: 2
Fore
SplineSet
269 193 m 2,0,-1
 269 -190 l 2,1,2
 269 -208 269 -208 240 -216 c 0,3,4
 226 -220 226 -220 211 -220 c 1,5,-1
 182 -216 l 1,6,7
 153 -208 153 -208 153 -190 c 2,8,-1
 153 193 l 2,9,10
 153 211 153 211 182 219 c 0,11,12
 196 223 196 223 211 223 c 1,13,-1
 240 219 l 1,14,15
 269 211 269 211 269 193 c 2,0,-1
269 711 m 2,16,-1
 269 355 l 2,17,18
 269 337 269 337 240 329 c 0,19,20
 226 325 226 325 211 325 c 1,21,-1
 182 329 l 1,22,23
 153 337 153 337 153 355 c 2,24,-1
 153 711 l 2,25,26
 153 729 153 729 182 737 c 0,27,28
 196 741 196 741 211 741 c 1,29,-1
 240 737 l 1,30,31
 269 729 269 729 269 711 c 2,16,-1
EndSplineSet
EndChar

StartChar: section
Encoding: 167 167 104
Width: 617
GlyphClass: 2
Flags: W
LayerCount: 2
Fore
SplineSet
91 24 m 1,0,1
 120 7 120 7 176.5 -18 c 128,-1,2
 233 -43 233 -43 278.5 -43 c 128,-1,3
 324 -43 324 -43 324 -13 c 0,4,5
 324 2 324 2 296.5 16 c 128,-1,6
 269 30 269 30 230.5 46 c 128,-1,7
 192 62 192 62 153 83 c 128,-1,8
 114 104 114 104 86.5 141.5 c 128,-1,9
 59 179 59 179 59 228 c 0,10,11
 59 320 59 320 137 372 c 1,12,13
 63 419 63 419 59 507 c 1,14,15
 59 598 59 598 129.5 654 c 128,-1,16
 200 710 200 710 318 710 c 0,17,18
 396 710 396 710 463 696 c 128,-1,19
 530 682 530 682 532 659 c 1,20,21
 532 623 532 623 508 573 c 128,-1,22
 484 523 484 523 474 518 c 1,23,24
 384 545 384 545 330 545 c 128,-1,25
 276 545 276 545 276 512 c 0,26,27
 276 476 276 476 374 433 c 0,28,29
 415 415 415 415 456 394 c 128,-1,30
 497 373 497 373 525.5 339.5 c 128,-1,31
 554 306 554 306 554 266 c 0,32,33
 554 174 554 174 476 124 c 1,34,35
 507 104 507 104 530.5 69 c 128,-1,36
 554 34 554 34 554 0 c 0,37,38
 554 -93 554 -93 490 -150 c 128,-1,39
 426 -207 426 -207 290 -209 c 1,40,41
 146 -209 146 -209 79 -164 c 0,42,43
 40 -137 40 -137 40 -99.5 c 128,-1,44
 40 -62 40 -62 56 -25 c 128,-1,45
 72 12 72 12 91 24 c 1,0,1
383 231 m 128,-1,47
 383 254 383 254 345.5 278.5 c 128,-1,48
 308 303 308 303 278 303 c 0,49,50
 235 303 235 303 235 260 c 0,51,52
 235 234 235 234 270 209.5 c 128,-1,53
 305 185 305 185 333.5 185 c 128,-1,54
 362 185 362 185 372.5 196.5 c 128,-1,46
 383 208 383 208 383 231 c 128,-1,47
EndSplineSet
EndChar

StartChar: dieresis
Encoding: 168 168 105
Width: 457
GlyphClass: 2
Flags: W
LayerCount: 2
Fore
SplineSet
177 552 m 2,0,1
 177 546 177 546 107.5 546 c 128,-1,2
 38 546 38 546 38 551 c 2,3,-1
 38 691 l 2,4,5
 38 700 38 700 107.5 700 c 128,-1,6
 177 700 177 700 177 695 c 2,7,-1
 177 552 l 2,0,1
407 552 m 2,8,9
 407 546 407 546 337.5 546 c 128,-1,10
 268 546 268 546 268 551 c 2,11,-1
 268 691 l 2,12,13
 268 700 268 700 337.5 700 c 128,-1,14
 407 700 407 700 407 695 c 2,15,-1
 407 552 l 2,8,9
EndSplineSet
EndChar

StartChar: copyright
Encoding: 169 169 106
Width: 693
GlyphClass: 2
Flags: W
LayerCount: 2
Fore
SplineSet
84 464 m 128,-1,1
 84 576 84 576 162.5 654.5 c 128,-1,2
 241 733 241 733 353 733 c 128,-1,3
 465 733 465 733 543.5 654.5 c 128,-1,4
 622 576 622 576 622 464 c 128,-1,5
 622 352 622 352 543.5 273.5 c 128,-1,6
 465 195 465 195 353 195 c 128,-1,7
 241 195 241 195 162.5 273.5 c 128,-1,0
 84 352 84 352 84 464 c 128,-1,1
205 617 m 128,-1,9
 142 554 142 554 142 466 c 128,-1,10
 142 378 142 378 203.5 315.5 c 128,-1,11
 265 253 265 253 354.5 253 c 128,-1,12
 444 253 444 253 506.5 316 c 128,-1,13
 569 379 569 379 569 466.5 c 128,-1,14
 569 554 569 554 506.5 617 c 128,-1,15
 444 680 444 680 356 680 c 128,-1,8
 268 680 268 680 205 617 c 128,-1,9
450 583 m 0,16,17
 450 573 450 573 443.5 554.5 c 128,-1,18
 437 536 437 536 428.5 523 c 128,-1,19
 420 510 420 510 414 514 c 0,20,21
 397 524 397 524 375 524 c 128,-1,22
 353 524 353 524 339 510 c 128,-1,23
 325 496 325 496 325 469 c 0,24,25
 325 414 325 414 382 414 c 0,26,27
 411 414 411 414 422 425 c 1,28,29
 427 428 427 428 435 415 c 0,30,31
 455 382 455 382 455 355 c 0,32,33
 455 338 455 338 428.5 328 c 128,-1,34
 402 318 402 318 366 318 c 0,35,36
 300 318 300 318 258 357 c 128,-1,37
 216 396 216 396 216 466 c 128,-1,38
 216 536 216 536 259 576 c 128,-1,39
 302 616 302 616 367 616 c 0,40,41
 399 616 399 616 424.5 607 c 128,-1,42
 450 598 450 598 450 583 c 0,16,17
EndSplineSet
EndChar

StartChar: ordfeminine
Encoding: 170 170 107
Width: 506
GlyphClass: 2
Flags: W
LayerCount: 2
Fore
SplineSet
143 601 m 1,0,1
 124 630 124 630 124 654 c 128,-1,2
 124 678 124 678 135 681 c 1,3,4
 172 699 172 699 244 699 c 128,-1,5
 316 699 316 699 342.5 668 c 128,-1,6
 369 637 369 637 369 576 c 2,7,-1
 369 471 l 1,8,-1
 393 471 l 2,9,10
 416 471 416 471 416 425 c 0,11,12
 416 397 416 397 404.5 375 c 128,-1,13
 393 353 393 353 373 353 c 0,14,15
 335 353 335 353 316 372 c 1,16,17
 307 378 307 378 300 391 c 1,18,19
 268 353 268 353 195 353 c 0,20,21
 146 353 146 353 113 387.5 c 128,-1,22
 80 422 80 422 80 469 c 0,23,24
 80 567 80 567 200 567 c 2,25,-1
 247 567 l 1,26,-1
 247 585 l 2,27,28
 247 602 247 602 239.5 607 c 128,-1,29
 232 612 232 612 209.5 612 c 128,-1,30
 187 612 187 612 143 601 c 1,0,1
195 471 m 0,31,32
 195 442 195 442 223 442 c 0,33,34
 235 442 235 442 247 451 c 1,35,-1
 247 503 l 1,36,-1
 227 503 l 2,37,38
 195 503 195 503 195 471 c 0,31,32
EndSplineSet
EndChar

StartChar: guillemotleft
Encoding: 171 171 108
Width: 773
GlyphClass: 2
Flags: W
LayerCount: 2
Fore
SplineSet
99 236 m 1,0,1
 89 246 89 246 89 257 c 128,-1,2
 89 268 89 268 103 282 c 1,3,-1
 271 479 l 2,4,5
 277 485 277 485 286.5 485 c 128,-1,6
 296 485 296 485 316.5 473 c 128,-1,7
 337 461 337 461 348.5 441.5 c 128,-1,8
 360 422 360 422 360 412.5 c 128,-1,9
 360 403 360 403 353 397 c 1,10,-1
 221 255 l 1,11,-1
 355 111 l 1,12,13
 362 105 362 105 362 95.5 c 128,-1,14
 362 86 362 86 350.5 66.5 c 128,-1,15
 339 47 339 47 318.5 35 c 128,-1,16
 298 23 298 23 288.5 23 c 128,-1,17
 279 23 279 23 273 29 c 2,18,-1
 99 236 l 1,0,1
399 236 m 1,19,20
 389 246 389 246 389 257 c 128,-1,21
 389 268 389 268 403 282 c 1,22,-1
 571 479 l 2,23,24
 577 485 577 485 586.5 485 c 128,-1,25
 596 485 596 485 616.5 473 c 128,-1,26
 637 461 637 461 648.5 441.5 c 128,-1,27
 660 422 660 422 660 412.5 c 128,-1,28
 660 403 660 403 653 397 c 1,29,-1
 521 255 l 1,30,-1
 655 111 l 1,31,32
 662 105 662 105 662 95.5 c 128,-1,33
 662 86 662 86 650.5 66.5 c 128,-1,34
 639 47 639 47 618.5 35 c 128,-1,35
 598 23 598 23 588.5 23 c 128,-1,36
 579 23 579 23 573 29 c 2,37,-1
 399 236 l 1,19,20
EndSplineSet
EndChar

StartChar: logicalnot
Encoding: 172 172 109
Width: 613
GlyphClass: 2
Flags: W
LayerCount: 2
Fore
SplineSet
510 81 m 2,0,1
 510 60 510 60 454 60 c 0,2,3
 437 60 437 60 413 65 c 128,-1,4
 389 70 389 70 389 84 c 2,5,-1
 391 220 l 1,6,-1
 97 220 l 2,7,8
 79 220 79 220 71 249 c 0,9,10
 67 264 67 264 67 278 c 128,-1,11
 67 292 67 292 71 307 c 0,12,13
 79 336 79 336 97 336 c 2,14,-1
 469 336 l 2,15,16
 510 336 510 336 510 298 c 2,17,-1
 510 81 l 2,0,1
EndSplineSet
EndChar

StartChar: uni00AD
Encoding: 173 173 110
Width: 454
GlyphClass: 2
Flags: W
LayerCount: 2
Fore
SplineSet
372 190 m 2,0,-1
 77 190 l 2,1,2
 59 190 59 190 51 219 c 0,3,4
 47 234 47 234 47 248 c 128,-1,5
 47 262 47 262 51 277 c 0,6,7
 59 306 59 306 77 306 c 2,8,-1
 372 306 l 2,9,10
 390 306 390 306 398 277 c 0,11,12
 402 262 402 262 402 248 c 128,-1,13
 402 234 402 234 398 219 c 0,14,15
 390 190 390 190 372 190 c 2,0,-1
EndSplineSet
EndChar

StartChar: registered
Encoding: 174 174 111
Width: 701
GlyphClass: 2
Flags: W
LayerCount: 2
Fore
SplineSet
84 464 m 128,-1,1
 84 576 84 576 162.5 654.5 c 128,-1,2
 241 733 241 733 353 733 c 128,-1,3
 465 733 465 733 543.5 654.5 c 128,-1,4
 622 576 622 576 622 464 c 128,-1,5
 622 352 622 352 543.5 273.5 c 128,-1,6
 465 195 465 195 353 195 c 128,-1,7
 241 195 241 195 162.5 273.5 c 128,-1,0
 84 352 84 352 84 464 c 128,-1,1
205 617 m 128,-1,9
 142 554 142 554 142 466 c 128,-1,10
 142 378 142 378 203.5 315.5 c 128,-1,11
 265 253 265 253 354.5 253 c 128,-1,12
 444 253 444 253 506.5 316 c 128,-1,13
 569 379 569 379 569 466.5 c 128,-1,14
 569 554 569 554 506.5 617 c 128,-1,15
 444 680 444 680 356 680 c 128,-1,8
 268 680 268 680 205 617 c 128,-1,9
475 529 m 0,16,17
 475 478 475 478 433 449 c 1,18,-1
 503 361 l 1,19,20
 499 353 499 353 485 341 c 128,-1,21
 471 329 471 329 456.5 323 c 128,-1,22
 442 317 442 317 433 317 c 0,23,24
 397 317 397 317 379 358 c 2,25,-1
 349 425 l 1,26,-1
 341 425 l 1,27,-1
 341 331 l 2,28,29
 341 319 341 319 292.5 319 c 128,-1,30
 244 319 244 319 244 331 c 2,31,-1
 244 600 l 2,32,33
 244 615 244 615 259 615 c 2,34,-1
 362 615 l 2,35,36
 475 615 475 615 475 529 c 0,16,17
341 543 m 1,37,-1
 341 483 l 1,38,-1
 343 483 l 2,39,40
 382 483 382 483 382 516 c 0,41,42
 382 543 382 543 349 543 c 2,43,-1
 341 543 l 1,37,-1
EndSplineSet
EndChar

StartChar: degree
Encoding: 176 176 112
Width: 386
GlyphClass: 2
Flags: W
LayerCount: 2
Fore
SplineSet
40 526 m 128,-1,1
 40 609 40 609 80.5 654 c 128,-1,2
 121 699 121 699 192.5 699 c 128,-1,3
 264 699 264 699 304.5 653.5 c 128,-1,4
 345 608 345 608 345 526 c 128,-1,5
 345 444 345 444 304.5 398.5 c 128,-1,6
 264 353 264 353 192.5 353 c 128,-1,7
 121 353 121 353 80.5 398 c 128,-1,0
 40 443 40 443 40 526 c 128,-1,1
108 526 m 128,-1,9
 108 479 108 479 130.5 453.5 c 128,-1,10
 153 428 153 428 192.5 428 c 128,-1,11
 232 428 232 428 254 453.5 c 128,-1,12
 276 479 276 479 276 526 c 128,-1,13
 276 573 276 573 254 598.5 c 128,-1,14
 232 624 232 624 192.5 624 c 128,-1,15
 153 624 153 624 130.5 598.5 c 128,-1,8
 108 573 108 573 108 526 c 128,-1,9
EndSplineSet
EndChar

StartChar: plusminus
Encoding: 177 177 113
Width: 595
GlyphClass: 2
Flags: W
LayerCount: 2
Fore
SplineSet
353 259 m 2,0,1
 353 250 353 250 295 250 c 128,-1,2
 237 250 237 250 237 259 c 2,3,-1
 237 360 l 1,4,-1
 97 360 l 2,5,6
 79 360 79 360 71 389 c 0,7,8
 67 404 67 404 67 418 c 128,-1,9
 67 432 67 432 71 447 c 0,10,11
 79 476 79 476 97 476 c 2,12,-1
 237 476 l 1,13,-1
 237 614 l 2,14,15
 237 632 237 632 266 640 c 0,16,17
 280 644 280 644 295 644 c 1,18,-1
 324 640 l 1,19,20
 353 632 353 632 353 614 c 2,21,-1
 353 476 l 1,22,-1
 492 476 l 2,23,24
 510 476 510 476 518 447 c 0,25,26
 522 432 522 432 522 418 c 128,-1,27
 522 404 522 404 518 389 c 0,28,29
 510 360 510 360 492 360 c 2,30,-1
 353 360 l 1,31,-1
 353 259 l 2,0,1
97 213 m 2,32,-1
 492 213 l 2,33,34
 510 213 510 213 518 184 c 0,35,36
 522 170 522 170 522 155 c 128,-1,37
 522 140 522 140 518 126 c 0,38,39
 510 97 510 97 492 97 c 2,40,-1
 97 97 l 2,41,42
 79 97 79 97 71 126 c 0,43,44
 67 140 67 140 67 155 c 128,-1,45
 67 170 67 170 71 184 c 0,46,47
 79 213 79 213 97 213 c 2,32,-1
EndSplineSet
EndChar

StartChar: twosuperior
Encoding: 178 178 114
Width: 352
GlyphClass: 2
Flags: W
LayerCount: 2
Fore
SplineSet
84 581 m 1,0,1
 55 624 55 624 55 652 c 0,2,3
 55 660 55 660 59.5 670 c 128,-1,4
 64 680 64 680 101.5 691 c 128,-1,5
 139 702 139 702 182 702 c 0,6,7
 290 702 290 702 290 606 c 0,8,9
 290 533 290 533 200 455 c 1,10,-1
 301 459 l 1,11,12
 303 441 303 441 303 415 c 0,13,14
 303 359 303 359 274 359 c 2,15,-1
 84 359 l 2,16,17
 67 359 67 359 60 399 c 0,18,19
 57 420 57 420 57 431 c 128,-1,20
 57 442 57 442 60 445 c 0,21,22
 135 504 135 504 151.5 526 c 128,-1,23
 168 548 168 548 168 565.5 c 128,-1,24
 168 583 168 583 161 591 c 128,-1,25
 154 599 154 599 133 599 c 128,-1,26
 112 599 112 599 84 581 c 1,0,1
EndSplineSet
EndChar

StartChar: threesuperior
Encoding: 179 179 115
Width: 305
GlyphClass: 2
Flags: W
LayerCount: 2
Fore
SplineSet
29 398 m 0,0,1
 29 417 29 417 39 438.5 c 128,-1,2
 49 460 49 460 55 468 c 1,3,4
 81 451 81 451 106 451 c 0,5,6
 154 451 154 451 154 482 c 0,7,8
 154 497 154 497 144.5 502.5 c 128,-1,9
 135 508 135 508 111 508 c 2,10,-1
 101 508 l 2,11,12
 95 508 95 508 90.5 519.5 c 128,-1,13
 86 531 86 531 86 542 c 128,-1,14
 86 553 86 553 95 553 c 2,15,-1
 113 554 l 2,16,17
 145 556 145 556 145 582 c 0,18,19
 145 602 145 602 114 602 c 128,-1,20
 83 602 83 602 59 592 c 1,21,22
 55 598 55 598 46.5 619.5 c 128,-1,23
 38 641 38 641 38 659 c 128,-1,24
 38 677 38 677 74 688.5 c 128,-1,25
 110 700 110 700 159 700 c 128,-1,26
 208 700 208 700 234 678 c 128,-1,27
 260 656 260 656 260 622 c 0,28,29
 260 574 260 574 209 543 c 1,30,31
 238 530 238 530 253.5 512 c 128,-1,32
 269 494 269 494 269 455.5 c 128,-1,33
 269 417 269 417 238 389.5 c 128,-1,34
 207 362 207 362 155 362 c 128,-1,35
 103 362 103 362 66 372.5 c 128,-1,36
 29 383 29 383 29 398 c 0,0,1
EndSplineSet
EndChar

StartChar: acute
Encoding: 180 180 116
Width: 357
GlyphClass: 2
Flags: W
LayerCount: 2
Fore
SplineSet
113 529 m 0,0,1
 104 529 104 529 90 549 c 0,2,3
 72 577 72 577 72 596 c 128,-1,4
 72 615 72 615 78 621 c 1,5,6
 241 711 241 711 244 711 c 0,7,8
 254 711 254 711 269 687 c 0,9,10
 292 652 292 652 292 621 c 0,11,12
 292 610 292 610 287 605 c 1,13,14
 115 529 115 529 113 529 c 0,0,1
EndSplineSet
EndChar

StartChar: mu
Encoding: 181 181 117
Width: 572
GlyphClass: 2
Flags: W
LayerCount: 2
Fore
SplineSet
40 494 m 2,0,1
 40 505 40 505 126 505 c 128,-1,2
 212 505 212 505 212 494 c 2,3,-1
 212 202 l 2,4,5
 212 152 212 152 244 152 c 0,6,7
 268 152 268 152 298 173 c 1,8,-1
 298 494 l 2,9,10
 298 504 298 504 383 504 c 128,-1,11
 468 504 468 504 468 494 c 2,12,-1
 468 166 l 1,13,-1
 494 166 l 2,14,15
 528 166 528 166 528 101 c 0,16,17
 528 68 528 68 514 34 c 1,18,19
 494 -10 494 -10 460 -10 c 0,20,21
 393 -10 393 -10 361 45 c 1,22,23
 337 21 337 21 305 12 c 128,-1,24
 273 3 273 3 253 3 c 128,-1,25
 233 3 233 3 212 9 c 1,26,-1
 212 -159 l 2,27,28
 212 -175 212 -175 169 -181 c 0,29,30
 148 -184 148 -184 128 -184 c 1,31,-1
 83 -180 l 1,32,33
 40 -174 40 -174 40 -159 c 2,34,-1
 40 494 l 2,0,1
EndSplineSet
EndChar

StartChar: paragraph
Encoding: 182 182 118
Width: 780
GlyphClass: 2
Flags: W
LayerCount: 2
Fore
SplineSet
185 21 m 2,0,-1
 185 293 l 1,1,2
 110 293 110 293 70 350.5 c 128,-1,3
 30 408 30 408 30 498.5 c 128,-1,4
 30 589 30 589 85.5 644.5 c 128,-1,5
 141 700 141 700 245 700 c 2,6,-1
 674 700 l 2,7,8
 694 700 694 700 703 660 c 0,9,10
 708 639 708 639 708 619 c 128,-1,11
 708 599 708 599 704 580 c 0,12,13
 695 540 695 540 674 540 c 2,14,-1
 624 540 l 1,15,-1
 624 21 l 2,16,17
 624 2 624 2 574 -6 c 0,18,19
 550 -9 550 -9 526 -9 c 1,20,-1
 474 -5 l 1,21,22
 424 3 424 3 424 21 c 2,23,-1
 424 510 l 2,24,25
 424 524 424 524 404 530 c 0,26,27
 394 532 394 532 384 532 c 128,-1,28
 374 532 374 532 364 530 c 0,29,30
 343 524 343 524 343 510 c 2,31,-1
 343 21 l 2,32,33
 343 4 343 4 304 -3 c 0,34,35
 284 -6 284 -6 264 -6 c 1,36,-1
 224 -3 l 1,37,38
 185 4 185 4 185 21 c 2,0,-1
EndSplineSet
EndChar

StartChar: periodcentered
Encoding: 183 183 119
Width: 309
GlyphClass: 2
Flags: W
LayerCount: 2
Fore
SplineSet
247 217 m 2,0,1
 247 210 247 210 152.5 210 c 128,-1,2
 58 210 58 210 58 216 c 2,3,-1
 58 396 l 2,4,5
 58 405 58 405 152.5 405 c 128,-1,6
 247 405 247 405 247 400 c 2,7,-1
 247 217 l 2,0,1
EndSplineSet
EndChar

StartChar: cedilla
Encoding: 184 184 120
Width: 402
GlyphClass: 2
Flags: W
LayerCount: 2
Fore
SplineSet
101 -120 m 0,0,1
 101 -66 101 -66 128 -66 c 2,2,-1
 161 -66 l 2,3,4
 182 -66 182 -66 188 -60.5 c 128,-1,5
 194 -55 194 -55 194 -34 c 2,6,-1
 194 21 l 1,7,-1
 255 21 l 1,8,9
 293 -61 293 -61 293 -103 c 0,10,11
 293 -116 293 -116 290 -125 c 0,12,13
 275 -170 275 -170 196 -170 c 0,14,15
 152 -170 152 -170 117 -154 c 0,16,17
 101 -147 101 -147 101 -120 c 0,0,1
EndSplineSet
EndChar

StartChar: onesuperior
Encoding: 185 185 121
Width: 283
GlyphClass: 2
Flags: W
LayerCount: 2
Fore
SplineSet
231 683 m 2,0,-1
 231 363 l 2,1,2
 231 354 231 354 169.5 354 c 128,-1,3
 108 354 108 354 108 363 c 2,4,-1
 108 590 l 1,5,-1
 56 589 l 2,6,7
 41 589 41 589 41 642 c 128,-1,8
 41 695 41 695 56 695 c 2,9,-1
 213 695 l 2,10,11
 231 695 231 695 231 683 c 2,0,-1
EndSplineSet
EndChar

StartChar: ordmasculine
Encoding: 186 186 122
Width: 366
GlyphClass: 2
Flags: W
LayerCount: 2
Fore
SplineSet
40 526 m 128,-1,1
 40 609 40 609 80.5 654 c 128,-1,2
 121 699 121 699 192.5 699 c 128,-1,3
 264 699 264 699 304.5 653.5 c 128,-1,4
 345 608 345 608 345 526 c 128,-1,5
 345 444 345 444 304.5 398.5 c 128,-1,6
 264 353 264 353 192.5 353 c 128,-1,7
 121 353 121 353 80.5 398 c 128,-1,0
 40 443 40 443 40 526 c 128,-1,1
153 527 m 128,-1,9
 153 476 153 476 193 476 c 0,10,11
 209 476 209 476 221 487.5 c 128,-1,12
 233 499 233 499 233 526.5 c 128,-1,13
 233 554 233 554 221 566 c 128,-1,14
 209 578 209 578 193 578 c 0,15,8
 153 578 153 578 153 527 c 128,-1,9
EndSplineSet
EndChar

StartChar: guillemotright
Encoding: 187 187 123
Width: 732
GlyphClass: 2
Flags: W
LayerCount: 2
Fore
SplineSet
478 29 m 2,0,1
 471 22 471 22 461.5 22 c 128,-1,2
 452 22 452 22 432 34 c 128,-1,3
 412 46 412 46 400.5 66 c 128,-1,4
 389 86 389 86 389 95.5 c 128,-1,5
 389 105 389 105 396 111 c 1,6,-1
 530 255 l 1,7,-1
 398 397 l 1,8,9
 391 403 391 403 391 412.5 c 128,-1,10
 391 422 391 422 402.5 441.5 c 128,-1,11
 414 461 414 461 434 473 c 128,-1,12
 454 485 454 485 464 485 c 128,-1,13
 474 485 474 485 480 479 c 2,14,-1
 648 282 l 1,15,16
 662 268 662 268 662 257 c 128,-1,17
 662 246 662 246 652 236 c 1,18,-1
 478 29 l 2,0,1
178 29 m 2,19,20
 171 22 171 22 161.5 22 c 128,-1,21
 152 22 152 22 132 34 c 128,-1,22
 112 46 112 46 100.5 66 c 128,-1,23
 89 86 89 86 89 95.5 c 128,-1,24
 89 105 89 105 96 111 c 1,25,-1
 230 255 l 1,26,-1
 98 397 l 1,27,28
 91 403 91 403 91 412.5 c 128,-1,29
 91 422 91 422 102.5 441.5 c 128,-1,30
 114 461 114 461 134 473 c 128,-1,31
 154 485 154 485 164 485 c 128,-1,32
 174 485 174 485 180 479 c 2,33,-1
 348 282 l 1,34,35
 362 268 362 268 362 257 c 128,-1,36
 362 246 362 246 352 236 c 1,37,-1
 178 29 l 2,19,20
EndSplineSet
EndChar

StartChar: onequarter
Encoding: 188 188 124
Width: 839
GlyphClass: 2
Flags: W
LayerCount: 2
Fore
SplineSet
760 150 m 2,0,1
 766 150 766 150 766 113.5 c 128,-1,2
 766 77 766 77 760 77 c 2,3,-1
 729 77 l 1,4,-1
 729 9 l 2,5,6
 729 -3 729 -3 667 -3 c 1,7,8
 615 0 615 0 615 8 c 2,9,-1
 615 75 l 1,10,-1
 509 75 l 1,11,12
 497 84 497 84 486.5 105.5 c 128,-1,13
 476 127 476 127 476 136.5 c 128,-1,14
 476 146 476 146 479 151 c 2,15,-1
 585 339 l 2,16,17
 588 346 588 346 658 346 c 128,-1,18
 728 346 728 346 728 344 c 2,19,-1
 729 150 l 1,20,-1
 760 150 l 2,0,1
634 149 m 1,21,-1
 634 251 l 1,22,-1
 577 149 l 1,23,-1
 634 149 l 1,21,-1
271 688 m 2,24,-1
 271 368 l 2,25,26
 271 359 271 359 209.5 359 c 128,-1,27
 148 359 148 359 148 368 c 2,28,-1
 148 595 l 1,29,-1
 96 594 l 2,30,31
 81 594 81 594 81 647 c 128,-1,32
 81 700 81 700 96 700 c 2,33,-1
 253 700 l 2,34,35
 271 700 271 700 271 688 c 2,24,-1
565 688 m 1,36,37
 576 698 576 698 586 698 c 0,38,39
 620 698 620 698 642 674 c 1,40,41
 654 663 654 663 654 654.5 c 128,-1,42
 654 646 654 646 650 640 c 2,43,-1
 257 0 l 1,44,45
 247 -10 247 -10 237 -10 c 0,46,47
 203 -10 203 -10 180 14 c 0,48,49
 168 26 168 26 168 34.5 c 128,-1,50
 168 43 168 43 172 49 c 2,51,-1
 565 688 l 1,36,37
EndSplineSet
EndChar

StartChar: onehalf
Encoding: 189 189 125
Width: 848
GlyphClass: 2
Flags: W
LayerCount: 2
Fore
SplineSet
273 688 m 2,0,-1
 273 368 l 2,1,2
 273 359 273 359 211.5 359 c 128,-1,3
 150 359 150 359 150 368 c 2,4,-1
 150 595 l 1,5,-1
 98 594 l 2,6,7
 83 594 83 594 83 647 c 128,-1,8
 83 700 83 700 98 700 c 2,9,-1
 255 700 l 2,10,11
 273 700 273 700 273 688 c 2,0,-1
562 222 m 1,12,13
 533 265 533 265 533 293 c 0,14,15
 533 301 533 301 537.5 311 c 128,-1,16
 542 321 542 321 579.5 332 c 128,-1,17
 617 343 617 343 660 343 c 0,18,19
 768 343 768 343 768 247 c 0,20,21
 768 174 768 174 678 96 c 1,22,-1
 779 100 l 1,23,24
 781 82 781 82 781 56 c 0,25,26
 781 0 781 0 752 0 c 2,27,-1
 562 0 l 2,28,29
 545 0 545 0 538 40 c 0,30,31
 535 61 535 61 535 72 c 128,-1,32
 535 83 535 83 538 86 c 0,33,34
 613 145 613 145 629.5 167 c 128,-1,35
 646 189 646 189 646 206.5 c 128,-1,36
 646 224 646 224 639 232 c 128,-1,37
 632 240 632 240 611 240 c 128,-1,38
 590 240 590 240 562 222 c 1,12,13
565 688 m 1,39,40
 576 698 576 698 586 698 c 0,41,42
 620 698 620 698 642 674 c 1,43,44
 654 663 654 663 654 654.5 c 128,-1,45
 654 646 654 646 650 640 c 2,46,-1
 257 0 l 1,47,48
 247 -10 247 -10 237 -10 c 0,49,50
 203 -10 203 -10 180 14 c 0,51,52
 168 26 168 26 168 34.5 c 128,-1,53
 168 43 168 43 172 49 c 2,54,-1
 565 688 l 1,39,40
EndSplineSet
EndChar

StartChar: threequarters
Encoding: 190 190 126
Width: 868
GlyphClass: 2
Flags: W
LayerCount: 2
Fore
SplineSet
760 150 m 2,0,1
 766 150 766 150 766 113.5 c 128,-1,2
 766 77 766 77 760 77 c 2,3,-1
 729 77 l 1,4,-1
 729 9 l 2,5,6
 729 -3 729 -3 667 -3 c 1,7,8
 615 0 615 0 615 8 c 2,9,-1
 615 75 l 1,10,-1
 509 75 l 1,11,12
 497 84 497 84 486.5 105.5 c 128,-1,13
 476 127 476 127 476 136.5 c 128,-1,14
 476 146 476 146 479 151 c 2,15,-1
 585 339 l 2,16,17
 588 346 588 346 658 346 c 128,-1,18
 728 346 728 346 728 344 c 2,19,-1
 729 150 l 1,20,-1
 760 150 l 2,0,1
634 149 m 1,21,-1
 634 251 l 1,22,-1
 577 149 l 1,23,-1
 634 149 l 1,21,-1
69 398 m 0,24,25
 69 417 69 417 79 438.5 c 128,-1,26
 89 460 89 460 95 468 c 1,27,28
 121 451 121 451 146 451 c 0,29,30
 194 451 194 451 194 482 c 0,31,32
 194 497 194 497 184.5 502.5 c 128,-1,33
 175 508 175 508 151 508 c 2,34,-1
 141 508 l 2,35,36
 135 508 135 508 130.5 519.5 c 128,-1,37
 126 531 126 531 126 542 c 128,-1,38
 126 553 126 553 135 553 c 2,39,-1
 153 554 l 2,40,41
 185 556 185 556 185 582 c 0,42,43
 185 602 185 602 154 602 c 128,-1,44
 123 602 123 602 99 592 c 1,45,46
 95 598 95 598 86.5 619.5 c 128,-1,47
 78 641 78 641 78 659 c 128,-1,48
 78 677 78 677 114 688.5 c 128,-1,49
 150 700 150 700 199 700 c 128,-1,50
 248 700 248 700 274 678 c 128,-1,51
 300 656 300 656 300 622 c 0,52,53
 300 574 300 574 249 543 c 1,54,55
 278 530 278 530 293.5 512 c 128,-1,56
 309 494 309 494 309 455.5 c 128,-1,57
 309 417 309 417 278 389.5 c 128,-1,58
 247 362 247 362 195 362 c 128,-1,59
 143 362 143 362 106 372.5 c 128,-1,60
 69 383 69 383 69 398 c 0,24,25
565 688 m 1,61,62
 576 698 576 698 586 698 c 0,63,64
 620 698 620 698 642 674 c 1,65,66
 654 663 654 663 654 654.5 c 128,-1,67
 654 646 654 646 650 640 c 2,68,-1
 257 0 l 1,69,70
 247 -10 247 -10 237 -10 c 0,71,72
 203 -10 203 -10 180 14 c 0,73,74
 168 26 168 26 168 34.5 c 128,-1,75
 168 43 168 43 172 49 c 2,76,-1
 565 688 l 1,61,62
EndSplineSet
EndChar

StartChar: questiondown
Encoding: 191 191 127
Width: 584
GlyphClass: 2
Flags: W
LayerCount: 2
Fore
SplineSet
250 505 m 2,0,1
 250 511 250 511 332.5 511 c 128,-1,2
 415 511 415 511 415 506 c 2,3,-1
 415 349 l 2,4,5
 415 341 415 341 332.5 341 c 128,-1,6
 250 341 250 341 250 346 c 2,7,-1
 250 505 l 2,0,1
348 303 m 0,8,9
 427 303 427 303 427 284 c 2,10,-1
 427 246 l 2,11,12
 427 201 427 201 352 131 c 0,13,14
 324 105 324 105 300.5 72 c 128,-1,15
 277 39 277 39 277 12 c 0,16,17
 277 -38 277 -38 334.5 -38 c 128,-1,18
 392 -38 392 -38 450 0 c 1,19,20
 488 -38 488 -38 504 -86 c 0,21,22
 509 -102 509 -102 509 -114.5 c 128,-1,23
 509 -127 509 -127 504 -138 c 0,24,25
 494 -164 494 -164 428.5 -187 c 128,-1,26
 363 -210 363 -210 289 -210 c 0,27,28
 177 -210 177 -210 121 -162 c 128,-1,29
 65 -114 65 -114 65 -31 c 0,30,31
 65 7 65 7 83.5 43.5 c 128,-1,32
 102 80 102 80 128 107.5 c 128,-1,33
 154 135 154 135 180 160 c 1,34,35
 244 218 244 218 244 250 c 2,36,-1
 244 280 l 2,37,38
 244 292 244 292 281.5 297.5 c 128,-1,39
 319 303 319 303 348 303 c 0,8,9
EndSplineSet
EndChar

StartChar: Agrave
Encoding: 192 192 128
Width: 655
GlyphClass: 2
Flags: W
LayerCount: 2
Fore
SplineSet
519 -12 m 0,0,1
 432 -12 432 -12 425 16 c 2,2,-1
 393 155 l 1,3,-1
 234 155 l 1,4,-1
 204 21 l 2,5,6
 198 -10 198 -10 108 -10 c 0,7,8
 60 -10 60 -10 37 -4.5 c 128,-1,9
 14 1 14 1 14 4 c 2,10,-1
 192 691 l 1,11,12
 192 699 192 699 329 699 c 128,-1,13
 466 699 466 699 466 691 c 1,14,-1
 638 3 l 1,15,16
 638 -4 638 -4 592 -8 c 128,-1,17
 546 -12 546 -12 519 -12 c 0,0,1
259 282 m 1,18,-1
 364 282 l 1,19,-1
 319 489 l 1,20,-1
 313 489 l 1,21,-1
 259 282 l 1,18,-1
222 805 m 1,22,23
 217 810 217 810 217 819 c 0,24,25
 217 852 217 852 236 881.5 c 128,-1,26
 255 911 255 911 265 911 c 0,27,28
 268 911 268 911 431 821 c 1,29,30
 437 815 437 815 437 807 c 0,31,32
 437 777 437 777 421 753 c 128,-1,33
 405 729 405 729 396 729 c 0,34,35
 394 729 394 729 222 805 c 1,22,23
EndSplineSet
EndChar

StartChar: Aacute
Encoding: 193 193 129
Width: 655
GlyphClass: 2
Flags: W
LayerCount: 2
Fore
SplineSet
519 -12 m 0,0,1
 432 -12 432 -12 425 16 c 2,2,-1
 393 155 l 1,3,-1
 234 155 l 1,4,-1
 204 21 l 2,5,6
 198 -10 198 -10 108 -10 c 0,7,8
 60 -10 60 -10 37 -4.5 c 128,-1,9
 14 1 14 1 14 4 c 2,10,-1
 192 691 l 1,11,12
 192 699 192 699 329 699 c 128,-1,13
 466 699 466 699 466 691 c 1,14,-1
 638 3 l 1,15,16
 638 -4 638 -4 592 -8 c 128,-1,17
 546 -12 546 -12 519 -12 c 0,0,1
259 282 m 1,18,-1
 364 282 l 1,19,-1
 319 489 l 1,20,-1
 313 489 l 1,21,-1
 259 282 l 1,18,-1
258 729 m 0,22,23
 249 729 249 729 235 749 c 0,24,25
 217 777 217 777 217 796 c 128,-1,26
 217 815 217 815 223 821 c 1,27,28
 386 911 386 911 389 911 c 0,29,30
 399 911 399 911 414 887 c 0,31,32
 437 852 437 852 437 821 c 0,33,34
 437 810 437 810 432 805 c 1,35,36
 260 729 260 729 258 729 c 0,22,23
EndSplineSet
EndChar

StartChar: Acircumflex
Encoding: 194 194 130
Width: 655
GlyphClass: 2
Flags: W
LayerCount: 2
Fore
SplineSet
519 -12 m 0,0,1
 432 -12 432 -12 425 16 c 2,2,-1
 393 155 l 1,3,-1
 234 155 l 1,4,-1
 204 21 l 2,5,6
 198 -10 198 -10 108 -10 c 0,7,8
 60 -10 60 -10 37 -4.5 c 128,-1,9
 14 1 14 1 14 4 c 2,10,-1
 192 691 l 1,11,12
 192 699 192 699 329 699 c 128,-1,13
 466 699 466 699 466 691 c 1,14,-1
 638 3 l 1,15,16
 638 -4 638 -4 592 -8 c 128,-1,17
 546 -12 546 -12 519 -12 c 0,0,1
259 282 m 1,18,-1
 364 282 l 1,19,-1
 319 489 l 1,20,-1
 313 489 l 1,21,-1
 259 282 l 1,18,-1
200 724 m 0,22,23
 191 724 191 724 176 746 c 0,24,25
 156 776 156 776 156 796 c 128,-1,26
 156 816 156 816 162 821 c 1,27,-1
 316 905 l 2,28,29
 323 909 323 909 327 909 c 128,-1,30
 331 909 331 909 338 905 c 2,31,-1
 492 821 l 1,32,33
 498 816 498 816 498 807 c 0,34,35
 498 776 498 776 481 750 c 128,-1,36
 464 724 464 724 455 724 c 0,37,38
 453 724 453 724 327 798 c 1,39,40
 202 724 202 724 200 724 c 0,22,23
EndSplineSet
EndChar

StartChar: Atilde
Encoding: 195 195 131
Width: 655
GlyphClass: 2
Flags: W
LayerCount: 2
Fore
SplineSet
519 -12 m 0,0,1
 432 -12 432 -12 425 16 c 2,2,-1
 393 155 l 1,3,-1
 234 155 l 1,4,-1
 204 21 l 2,5,6
 198 -10 198 -10 108 -10 c 0,7,8
 60 -10 60 -10 37 -4.5 c 128,-1,9
 14 1 14 1 14 4 c 2,10,-1
 192 691 l 1,11,12
 192 699 192 699 329 699 c 128,-1,13
 466 699 466 699 466 691 c 1,14,-1
 638 3 l 1,15,16
 638 -4 638 -4 592 -8 c 128,-1,17
 546 -12 546 -12 519 -12 c 0,0,1
259 282 m 1,18,-1
 364 282 l 1,19,-1
 319 489 l 1,20,-1
 313 489 l 1,21,-1
 259 282 l 1,18,-1
185 753 m 1,22,23
 166 758 166 758 149.5 787 c 128,-1,24
 133 816 133 816 133 825 c 128,-1,25
 133 834 133 834 136 837 c 0,26,27
 199 900 199 900 266 900 c 0,28,29
 297 900 297 900 336 881.5 c 128,-1,30
 375 863 375 863 396 863 c 0,31,32
 433 864 433 864 465 902 c 0,33,34
 467 903 467 903 470 903 c 0,35,36
 482 903 482 903 503 875 c 128,-1,37
 524 847 524 847 524 837 c 0,38,39
 524 808 524 808 476 776 c 1,40,41
 445 754 445 754 416 754 c 0,42,43
 412 754 412 754 409 754 c 0,44,45
 371 754 371 754 325 774 c 128,-1,46
 279 794 279 794 268.5 794 c 128,-1,47
 258 794 258 794 251 792 c 128,-1,48
 244 790 244 790 238.5 788.5 c 128,-1,49
 233 787 233 787 225.5 782 c 128,-1,50
 218 777 218 777 214 774.5 c 128,-1,51
 210 772 210 772 200 764 c 128,-1,52
 190 756 190 756 185 753 c 1,22,23
EndSplineSet
EndChar

StartChar: Adieresis
Encoding: 196 196 132
Width: 655
GlyphClass: 2
Flags: W
LayerCount: 2
Fore
SplineSet
519 -12 m 0,0,1
 432 -12 432 -12 425 16 c 2,2,-1
 393 155 l 1,3,-1
 234 155 l 1,4,-1
 204 21 l 2,5,6
 198 -10 198 -10 108 -10 c 0,7,8
 60 -10 60 -10 37 -4.5 c 128,-1,9
 14 1 14 1 14 4 c 2,10,-1
 192 691 l 1,11,12
 192 699 192 699 329 699 c 128,-1,13
 466 699 466 699 466 691 c 1,14,-1
 638 3 l 1,15,16
 638 -4 638 -4 592 -8 c 128,-1,17
 546 -12 546 -12 519 -12 c 0,0,1
259 282 m 1,18,-1
 364 282 l 1,19,-1
 319 489 l 1,20,-1
 313 489 l 1,21,-1
 259 282 l 1,18,-1
282 752 m 2,22,23
 282 746 282 746 212.5 746 c 128,-1,24
 143 746 143 746 143 751 c 2,25,-1
 143 891 l 2,26,27
 143 900 143 900 212.5 900 c 128,-1,28
 282 900 282 900 282 895 c 2,29,-1
 282 752 l 2,22,23
512 752 m 2,30,31
 512 746 512 746 442.5 746 c 128,-1,32
 373 746 373 746 373 751 c 2,33,-1
 373 891 l 2,34,35
 373 900 373 900 442.5 900 c 128,-1,36
 512 900 512 900 512 895 c 2,37,-1
 512 752 l 2,30,31
EndSplineSet
EndChar

StartChar: Aring
Encoding: 197 197 133
Width: 655
GlyphClass: 2
Flags: W
LayerCount: 2
Fore
SplineSet
519 -12 m 0,0,1
 432 -12 432 -12 425 16 c 2,2,-1
 393 155 l 1,3,-1
 234 155 l 1,4,-1
 204 21 l 2,5,6
 198 -10 198 -10 108 -10 c 0,7,8
 60 -10 60 -10 37 -4.5 c 128,-1,9
 14 1 14 1 14 4 c 2,10,-1
 192 691 l 1,11,12
 192 699 192 699 329 699 c 128,-1,13
 466 699 466 699 466 691 c 1,14,-1
 638 3 l 1,15,16
 638 -4 638 -4 592 -8 c 128,-1,17
 546 -12 546 -12 519 -12 c 0,0,1
259 282 m 1,18,-1
 364 282 l 1,19,-1
 319 489 l 1,20,-1
 313 489 l 1,21,-1
 259 282 l 1,18,-1
235 815 m 128,-1,23
 235 853 235 853 261 879 c 128,-1,24
 287 905 287 905 325 905 c 128,-1,25
 363 905 363 905 389 879 c 128,-1,26
 415 853 415 853 415 815 c 128,-1,27
 415 777 415 777 389 751 c 128,-1,28
 363 725 363 725 325 725 c 128,-1,29
 287 725 287 725 261 751 c 128,-1,22
 235 777 235 777 235 815 c 128,-1,23
266 816 m 128,-1,31
 266 791 266 791 283.5 773.5 c 128,-1,32
 301 756 301 756 326 756 c 128,-1,33
 351 756 351 756 368.5 773.5 c 128,-1,34
 386 791 386 791 386 816 c 128,-1,35
 386 841 386 841 368.5 858.5 c 128,-1,36
 351 876 351 876 326 876 c 128,-1,37
 301 876 301 876 283.5 858.5 c 128,-1,30
 266 841 266 841 266 816 c 128,-1,31
EndSplineSet
EndChar

StartChar: AE
Encoding: 198 198 134
Width: 917
GlyphClass: 2
Flags: W
LayerCount: 2
Fore
SplineSet
775 422 m 2,0,1
 794 422 794 422 794 352 c 0,2,3
 794 331 794 331 789.5 302.5 c 128,-1,4
 785 274 785 274 773 274 c 2,5,-1
 646 274 l 1,6,-1
 646 174 l 1,7,-1
 830 174 l 2,8,9
 847 174 847 174 853 130 c 0,10,11
 856 111 856 111 856 89.5 c 128,-1,12
 856 68 856 68 850 34 c 128,-1,13
 844 0 844 0 830 0 c 2,14,-1
 492 0 l 2,15,16
 461 0 461 0 461 32 c 2,17,-1
 461 156 l 1,18,-1
 302 156 l 1,19,-1
 238 22 l 2,20,21
 223 -10 223 -10 137 -10 c 0,22,23
 122 -10 122 -10 80 -7.5 c 128,-1,24
 38 -5 38 -5 34 4 c 1,25,-1
 360 700 l 1,26,-1
 831 700 l 2,27,28
 852 700 852 700 852 610.5 c 128,-1,29
 852 521 852 521 831 521 c 2,30,-1
 646 521 l 1,31,-1
 646 422 l 1,32,-1
 775 422 l 2,0,1
463 285 m 1,33,-1
 463 524 l 1,34,-1
 457 524 l 1,35,-1
 358 285 l 1,36,-1
 463 285 l 1,33,-1
EndSplineSet
EndChar

StartChar: Ccedilla
Encoding: 199 199 135
Width: 546
GlyphClass: 2
Flags: W
LayerCount: 2
Fore
SplineSet
374 -114 m 0,0,1
 374 -180 374 -180 276 -180 c 0,2,3
 231 -180 231 -180 198 -164 c 1,4,5
 181 -159 181 -159 181 -133 c 0,6,7
 181 -126 181 -126 182 -117 c 0,8,9
 188 -76 188 -76 209 -76 c 2,10,-1
 242 -76 l 2,11,12
 263 -76 263 -76 269 -70.5 c 128,-1,13
 275 -65 275 -65 275 -44 c 2,14,-1
 275 -7 l 1,15,16
 159 8 159 8 87 99 c 128,-1,17
 15 190 15 190 15 352.5 c 128,-1,18
 15 515 15 515 102.5 612 c 128,-1,19
 190 709 190 709 321 709 c 0,20,21
 394 709 394 709 449.5 688.5 c 128,-1,22
 505 668 505 668 505 633 c 128,-1,23
 505 598 505 598 478.5 546.5 c 128,-1,24
 452 495 452 495 434 495 c 0,25,26
 429 495 429 495 422.5 500.5 c 128,-1,27
 416 506 416 506 392.5 512.5 c 128,-1,28
 369 519 369 519 352 519 c 0,29,30
 294 519 294 519 258.5 478 c 128,-1,31
 223 437 223 437 223 352.5 c 128,-1,32
 223 268 223 268 259.5 227 c 128,-1,33
 296 186 296 186 352 186 c 0,34,35
 375 186 375 186 403.5 192.5 c 128,-1,36
 432 199 432 199 444 211 c 0,37,38
 446 213 446 213 452 213 c 128,-1,39
 458 213 458 213 474.5 190.5 c 128,-1,40
 491 168 491 168 505 131.5 c 128,-1,41
 519 95 519 95 519 75 c 0,42,43
 519 40 519 40 469 17.5 c 128,-1,44
 419 -5 419 -5 345 -9 c 1,45,46
 374 -78 374 -78 374 -114 c 0,0,1
EndSplineSet
EndChar

StartChar: Egrave
Encoding: 200 200 136
Width: 488
GlyphClass: 2
Flags: W
LayerCount: 2
Fore
SplineSet
139 805 m 1,1,2
 134 810 134 810 134 819 c 0,3,4
 134 852 134 852 153 881.5 c 128,-1,5
 172 911 172 911 182 911 c 0,6,7
 185 911 185 911 348 821 c 1,8,9
 354 815 354 815 354 807 c 0,10,11
 354 777 354 777 338 753 c 128,-1,12
 322 729 322 729 313 729 c 0,13,0
 311 729 311 729 139 805 c 1,1,2
370 422 m 2,14,15
 389 422 389 422 389 352 c 0,16,17
 389 331 389 331 384.5 302.5 c 128,-1,18
 380 274 380 274 368 274 c 2,19,-1
 241 274 l 1,20,-1
 241 174 l 1,21,-1
 425 174 l 2,22,23
 442 174 442 174 448 130 c 0,24,25
 451 111 451 111 451 89.5 c 128,-1,26
 451 68 451 68 445 34 c 128,-1,27
 439 0 439 0 425 0 c 2,28,-1
 83 0 l 2,29,30
 45 0 45 0 45 31 c 2,31,-1
 45 674 l 2,32,33
 45 700 45 700 68 700 c 2,34,-1
 426 700 l 2,35,36
 447 700 447 700 447 611.5 c 128,-1,37
 447 523 447 523 426 523 c 2,38,-1
 241 523 l 1,39,-1
 241 422 l 1,40,-1
 370 422 l 2,14,15
EndSplineSet
EndChar

StartChar: Eacute
Encoding: 201 201 137
Width: 488
GlyphClass: 2
Flags: W
LayerCount: 2
Fore
SplineSet
175 729 m 0,0,1
 166 729 166 729 152 749 c 0,2,3
 134 777 134 777 134 796 c 128,-1,4
 134 815 134 815 140 821 c 1,5,6
 303 911 303 911 306 911 c 0,7,8
 316 911 316 911 331 887 c 0,9,10
 354 852 354 852 354 821 c 0,11,12
 354 810 354 810 349 805 c 1,13,14
 177 729 177 729 175 729 c 0,0,1
370 422 m 2,15,16
 389 422 389 422 389 352 c 0,17,18
 389 331 389 331 384.5 302.5 c 128,-1,19
 380 274 380 274 368 274 c 2,20,-1
 241 274 l 1,21,-1
 241 174 l 1,22,-1
 425 174 l 2,23,24
 442 174 442 174 448 130 c 0,25,26
 451 111 451 111 451 89.5 c 128,-1,27
 451 68 451 68 445 34 c 128,-1,28
 439 0 439 0 425 0 c 2,29,-1
 83 0 l 2,30,31
 45 0 45 0 45 31 c 2,32,-1
 45 674 l 2,33,34
 45 700 45 700 68 700 c 2,35,-1
 426 700 l 2,36,37
 447 700 447 700 447 611.5 c 128,-1,38
 447 523 447 523 426 523 c 2,39,-1
 241 523 l 1,40,-1
 241 422 l 1,41,-1
 370 422 l 2,15,16
EndSplineSet
EndChar

StartChar: Ecircumflex
Encoding: 202 202 138
Width: 488
GlyphClass: 2
Flags: W
LayerCount: 2
Fore
SplineSet
117 724 m 0,0,1
 108 724 108 724 93 746 c 0,2,3
 73 776 73 776 73 796 c 128,-1,4
 73 816 73 816 79 821 c 1,5,-1
 233 905 l 2,6,7
 240 909 240 909 244 909 c 128,-1,8
 248 909 248 909 255 905 c 2,9,-1
 409 821 l 1,10,11
 415 816 415 816 415 807 c 0,12,13
 415 776 415 776 398 750 c 128,-1,14
 381 724 381 724 372 724 c 0,15,16
 370 724 370 724 244 798 c 1,17,18
 119 724 119 724 117 724 c 0,0,1
370 422 m 2,19,20
 389 422 389 422 389 352 c 0,21,22
 389 331 389 331 384.5 302.5 c 128,-1,23
 380 274 380 274 368 274 c 2,24,-1
 241 274 l 1,25,-1
 241 174 l 1,26,-1
 425 174 l 2,27,28
 442 174 442 174 448 130 c 0,29,30
 451 111 451 111 451 89.5 c 128,-1,31
 451 68 451 68 445 34 c 128,-1,32
 439 0 439 0 425 0 c 2,33,-1
 83 0 l 2,34,35
 45 0 45 0 45 31 c 2,36,-1
 45 674 l 2,37,38
 45 700 45 700 68 700 c 2,39,-1
 426 700 l 2,40,41
 447 700 447 700 447 611.5 c 128,-1,42
 447 523 447 523 426 523 c 2,43,-1
 241 523 l 1,44,-1
 241 422 l 1,45,-1
 370 422 l 2,19,20
EndSplineSet
EndChar

StartChar: Edieresis
Encoding: 203 203 139
Width: 488
GlyphClass: 2
Flags: W
LayerCount: 2
Fore
SplineSet
198 752 m 2,0,1
 198 746 198 746 128.5 746 c 128,-1,2
 59 746 59 746 59 751 c 2,3,-1
 59 891 l 2,4,5
 59 900 59 900 128.5 900 c 128,-1,6
 198 900 198 900 198 895 c 2,7,-1
 198 752 l 2,0,1
428 752 m 2,8,9
 428 746 428 746 358.5 746 c 128,-1,10
 289 746 289 746 289 751 c 2,11,-1
 289 891 l 2,12,13
 289 900 289 900 358.5 900 c 128,-1,14
 428 900 428 900 428 895 c 2,15,-1
 428 752 l 2,8,9
370 422 m 2,16,17
 389 422 389 422 389 352 c 0,18,19
 389 331 389 331 384.5 302.5 c 128,-1,20
 380 274 380 274 368 274 c 2,21,-1
 241 274 l 1,22,-1
 241 174 l 1,23,-1
 425 174 l 2,24,25
 442 174 442 174 448 130 c 0,26,27
 451 111 451 111 451 89.5 c 128,-1,28
 451 68 451 68 445 34 c 128,-1,29
 439 0 439 0 425 0 c 2,30,-1
 83 0 l 2,31,32
 45 0 45 0 45 31 c 2,33,-1
 45 674 l 2,34,35
 45 700 45 700 68 700 c 2,36,-1
 426 700 l 2,37,38
 447 700 447 700 447 611.5 c 128,-1,39
 447 523 447 523 426 523 c 2,40,-1
 241 523 l 1,41,-1
 241 422 l 1,42,-1
 370 422 l 2,16,17
EndSplineSet
EndChar

StartChar: Igrave
Encoding: 204 204 140
Width: 432
GlyphClass: 2
Flags: W
LayerCount: 2
Fore
SplineSet
117 172 m 1,0,-1
 117 528 l 1,1,-1
 46 528 l 2,2,3
 29 528 29 528 22 571 c 0,4,5
 18 592 18 592 18 614 c 128,-1,6
 18 636 18 636 22 657 c 0,7,8
 29 700 29 700 46 700 c 2,9,-1
 382 700 l 2,10,11
 399 700 399 700 406 657 c 0,12,13
 409 636 409 636 409 614 c 128,-1,14
 409 592 409 592 406 571 c 0,15,16
 399 528 399 528 382 528 c 2,17,-1
 315 528 l 1,18,-1
 315 172 l 1,19,-1
 385 172 l 2,20,21
 402 172 402 172 409 129 c 0,22,23
 412 108 412 108 412 86 c 128,-1,24
 412 64 412 64 409 43 c 0,25,26
 402 0 402 0 385 0 c 2,27,-1
 48 0 l 2,28,29
 31 0 31 0 24 43 c 0,30,31
 21 64 21 64 21 86 c 128,-1,32
 21 108 21 108 24 129 c 0,33,34
 31 172 31 172 48 172 c 2,35,-1
 117 172 l 1,0,-1
111 805 m 1,36,37
 106 810 106 810 106 819 c 0,38,39
 106 852 106 852 125 881.5 c 128,-1,40
 144 911 144 911 154 911 c 0,41,42
 157 911 157 911 320 821 c 1,43,44
 326 815 326 815 326 807 c 0,45,46
 326 777 326 777 310 753 c 128,-1,47
 294 729 294 729 285 729 c 0,48,49
 283 729 283 729 111 805 c 1,36,37
EndSplineSet
EndChar

StartChar: Iacute
Encoding: 205 205 141
Width: 432
GlyphClass: 2
Flags: W
LayerCount: 2
Fore
SplineSet
117 172 m 1,0,-1
 117 528 l 1,1,-1
 46 528 l 2,2,3
 29 528 29 528 22 571 c 0,4,5
 18 592 18 592 18 614 c 128,-1,6
 18 636 18 636 22 657 c 0,7,8
 29 700 29 700 46 700 c 2,9,-1
 382 700 l 2,10,11
 399 700 399 700 406 657 c 0,12,13
 409 636 409 636 409 614 c 128,-1,14
 409 592 409 592 406 571 c 0,15,16
 399 528 399 528 382 528 c 2,17,-1
 315 528 l 1,18,-1
 315 172 l 1,19,-1
 385 172 l 2,20,21
 402 172 402 172 409 129 c 0,22,23
 412 108 412 108 412 86 c 128,-1,24
 412 64 412 64 409 43 c 0,25,26
 402 0 402 0 385 0 c 2,27,-1
 48 0 l 2,28,29
 31 0 31 0 24 43 c 0,30,31
 21 64 21 64 21 86 c 128,-1,32
 21 108 21 108 24 129 c 0,33,34
 31 172 31 172 48 172 c 2,35,-1
 117 172 l 1,0,-1
147 729 m 0,36,37
 138 729 138 729 124 749 c 0,38,39
 106 777 106 777 106 796 c 128,-1,40
 106 815 106 815 112 821 c 1,41,42
 275 911 275 911 278 911 c 0,43,44
 288 911 288 911 303 887 c 0,45,46
 326 852 326 852 326 821 c 0,47,48
 326 810 326 810 321 805 c 1,49,50
 149 729 149 729 147 729 c 0,36,37
EndSplineSet
EndChar

StartChar: Icircumflex
Encoding: 206 206 142
Width: 432
GlyphClass: 2
Flags: W
LayerCount: 2
Fore
SplineSet
117 172 m 1,0,-1
 117 528 l 1,1,-1
 46 528 l 2,2,3
 29 528 29 528 22 571 c 0,4,5
 18 592 18 592 18 614 c 128,-1,6
 18 636 18 636 22 657 c 0,7,8
 29 700 29 700 46 700 c 2,9,-1
 382 700 l 2,10,11
 399 700 399 700 406 657 c 0,12,13
 409 636 409 636 409 614 c 128,-1,14
 409 592 409 592 406 571 c 0,15,16
 399 528 399 528 382 528 c 2,17,-1
 315 528 l 1,18,-1
 315 172 l 1,19,-1
 385 172 l 2,20,21
 402 172 402 172 409 129 c 0,22,23
 412 108 412 108 412 86 c 128,-1,24
 412 64 412 64 409 43 c 0,25,26
 402 0 402 0 385 0 c 2,27,-1
 48 0 l 2,28,29
 31 0 31 0 24 43 c 0,30,31
 21 64 21 64 21 86 c 128,-1,32
 21 108 21 108 24 129 c 0,33,34
 31 172 31 172 48 172 c 2,35,-1
 117 172 l 1,0,-1
89 724 m 0,36,37
 80 724 80 724 65 746 c 0,38,39
 45 776 45 776 45 796 c 128,-1,40
 45 816 45 816 51 821 c 1,41,-1
 205 905 l 2,42,43
 212 909 212 909 216 909 c 128,-1,44
 220 909 220 909 227 905 c 2,45,-1
 381 821 l 1,46,47
 387 816 387 816 387 807 c 0,48,49
 387 776 387 776 370 750 c 128,-1,50
 353 724 353 724 344 724 c 0,51,52
 342 724 342 724 216 798 c 1,53,54
 91 724 91 724 89 724 c 0,36,37
EndSplineSet
EndChar

StartChar: Idieresis
Encoding: 207 207 143
Width: 432
GlyphClass: 2
Flags: W
LayerCount: 2
Fore
SplineSet
171 752 m 2,0,1
 171 746 171 746 101.5 746 c 128,-1,2
 32 746 32 746 32 751 c 2,3,-1
 32 891 l 2,4,5
 32 900 32 900 101.5 900 c 128,-1,6
 171 900 171 900 171 895 c 2,7,-1
 171 752 l 2,0,1
401 752 m 2,8,9
 401 746 401 746 331.5 746 c 128,-1,10
 262 746 262 746 262 751 c 2,11,-1
 262 891 l 2,12,13
 262 900 262 900 331.5 900 c 128,-1,14
 401 900 401 900 401 895 c 2,15,-1
 401 752 l 2,8,9
117 172 m 1,16,-1
 117 528 l 1,17,-1
 46 528 l 2,18,19
 29 528 29 528 22 571 c 0,20,21
 18 592 18 592 18 614 c 128,-1,22
 18 636 18 636 22 657 c 0,23,24
 29 700 29 700 46 700 c 2,25,-1
 382 700 l 2,26,27
 399 700 399 700 406 657 c 0,28,29
 409 636 409 636 409 614 c 128,-1,30
 409 592 409 592 406 571 c 0,31,32
 399 528 399 528 382 528 c 2,33,-1
 315 528 l 1,34,-1
 315 172 l 1,35,-1
 385 172 l 2,36,37
 402 172 402 172 409 129 c 0,38,39
 412 108 412 108 412 86 c 128,-1,40
 412 64 412 64 409 43 c 0,41,42
 402 0 402 0 385 0 c 2,43,-1
 48 0 l 2,44,45
 31 0 31 0 24 43 c 0,46,47
 21 64 21 64 21 86 c 128,-1,48
 21 108 21 108 24 129 c 0,49,50
 31 172 31 172 48 172 c 2,51,-1
 117 172 l 1,16,-1
EndSplineSet
EndChar

StartChar: Eth
Encoding: 208 208 144
Width: 620
GlyphClass: 2
Flags: W
LayerCount: 2
Fore
SplineSet
60 26 m 2,0,-1
 60 300 l 1,1,-1
 17 300 l 2,2,3
 -1 300 -1 300 -9 329 c 0,4,5
 -13 344 -13 344 -13 358 c 128,-1,6
 -13 372 -13 372 -9 387 c 0,7,8
 -1 416 -1 416 17 416 c 2,9,-1
 60 416 l 1,10,-1
 60 678 l 2,11,12
 60 700 60 700 77 700 c 2,13,-1
 272 700 l 2,14,15
 431 700 431 700 513.5 620 c 128,-1,16
 596 540 596 540 596 368 c 0,17,18
 596 0 596 0 282 0 c 2,19,-1
 84 0 l 2,20,21
 60 0 60 0 60 26 c 2,0,-1
290 300 m 2,22,-1
 242 300 l 1,23,-1
 242 221 l 2,24,25
 242 200 242 200 245.5 194.5 c 128,-1,26
 249 189 249 189 263 189 c 0,27,28
 334 189 334 189 364.5 229 c 128,-1,29
 395 269 395 269 395 365 c 128,-1,30
 395 461 395 461 362 490.5 c 128,-1,31
 329 520 329 520 262 520 c 2,32,-1
 242 520 l 1,33,-1
 242 416 l 1,34,-1
 290 416 l 2,35,36
 308 416 308 416 316 387 c 0,37,38
 320 372 320 372 320 358 c 128,-1,39
 320 344 320 344 316 329 c 0,40,41
 308 300 308 300 290 300 c 2,22,-1
EndSplineSet
EndChar

StartChar: Ntilde
Encoding: 209 209 145
Width: 657
GlyphClass: 2
Flags: W
LayerCount: 2
Fore
SplineSet
186 753 m 1,0,1
 167 758 167 758 150.5 787 c 128,-1,2
 134 816 134 816 134 825 c 128,-1,3
 134 834 134 834 137 837 c 0,4,5
 200 900 200 900 267 900 c 0,6,7
 298 900 298 900 337 881.5 c 128,-1,8
 376 863 376 863 397 863 c 0,9,10
 434 864 434 864 466 902 c 0,11,12
 468 903 468 903 471 903 c 0,13,14
 483 903 483 903 504 875 c 128,-1,15
 525 847 525 847 525 837 c 0,16,17
 525 808 525 808 478 776 c 0,18,19
 446 754 446 754 417 754 c 0,20,21
 413 754 413 754 410 754 c 0,22,23
 372 754 372 754 326 774 c 128,-1,24
 280 794 280 794 269.5 794 c 128,-1,25
 259 794 259 794 252 792 c 128,-1,26
 245 790 245 790 239.5 788.5 c 128,-1,27
 234 787 234 787 226.5 782 c 128,-1,28
 219 777 219 777 215 774.5 c 128,-1,29
 211 772 211 772 201 764 c 128,-1,30
 191 756 191 756 186 753 c 1,0,1
591 12 m 2,31,32
 591 -9 591 -9 499.5 -9 c 128,-1,33
 408 -9 408 -9 400 6 c 2,34,-1
 228 328 l 1,35,-1
 228 11 l 2,36,37
 228 -7 228 -7 135.5 -7 c 128,-1,38
 43 -7 43 -7 43 11 c 2,39,-1
 43 696 l 2,40,41
 43 711 43 711 120 711 c 0,42,43
 150 711 150 711 190.5 705.5 c 128,-1,44
 231 700 231 700 240 685 c 1,45,-1
 405 367 l 1,46,-1
 405 687 l 2,47,48
 405 706 405 706 498 706 c 128,-1,49
 591 706 591 706 591 687 c 2,50,-1
 591 12 l 2,31,32
EndSplineSet
EndChar

StartChar: Ograve
Encoding: 210 210 146
Width: 696
GlyphClass: 2
Flags: W
LayerCount: 2
Fore
SplineSet
243 805 m 1,1,2
 238 810 238 810 238 819 c 0,3,4
 238 852 238 852 257 881.5 c 128,-1,5
 276 911 276 911 286 911 c 0,6,7
 289 911 289 911 452 821 c 1,8,9
 458 815 458 815 458 807 c 0,10,11
 458 777 458 777 442 753 c 128,-1,12
 426 729 426 729 417 729 c 0,13,0
 415 729 415 729 243 805 c 1,1,2
118.5 82 m 128,-1,15
 30 174 30 174 30 350.5 c 128,-1,16
 30 527 30 527 119.5 618 c 128,-1,17
 209 709 209 709 350.5 709 c 128,-1,18
 492 709 492 709 579 619.5 c 128,-1,19
 666 530 666 530 666 348.5 c 128,-1,20
 666 167 666 167 577 78.5 c 128,-1,21
 488 -10 488 -10 347.5 -10 c 128,-1,14
 207 -10 207 -10 118.5 82 c 128,-1,15
267.5 473 m 128,-1,23
 235 429 235 429 235 349.5 c 128,-1,24
 235 270 235 270 266 227.5 c 128,-1,25
 297 185 297 185 347.5 185 c 128,-1,26
 398 185 398 185 429.5 228 c 128,-1,27
 461 271 461 271 461 351 c 128,-1,28
 461 431 461 431 428.5 474 c 128,-1,29
 396 517 396 517 348 517 c 128,-1,22
 300 517 300 517 267.5 473 c 128,-1,23
EndSplineSet
EndChar

StartChar: Oacute
Encoding: 211 211 147
Width: 696
GlyphClass: 2
Flags: W
LayerCount: 2
Fore
SplineSet
279 729 m 0,0,1
 270 729 270 729 256 749 c 0,2,3
 238 777 238 777 238 796 c 128,-1,4
 238 815 238 815 244 821 c 1,5,6
 407 911 407 911 410 911 c 0,7,8
 420 911 420 911 435 887 c 0,9,10
 458 852 458 852 458 821 c 0,11,12
 458 810 458 810 453 805 c 1,13,14
 281 729 281 729 279 729 c 0,0,1
118.5 82 m 128,-1,16
 30 174 30 174 30 350.5 c 128,-1,17
 30 527 30 527 119.5 618 c 128,-1,18
 209 709 209 709 350.5 709 c 128,-1,19
 492 709 492 709 579 619.5 c 128,-1,20
 666 530 666 530 666 348.5 c 128,-1,21
 666 167 666 167 577 78.5 c 128,-1,22
 488 -10 488 -10 347.5 -10 c 128,-1,15
 207 -10 207 -10 118.5 82 c 128,-1,16
267.5 473 m 128,-1,24
 235 429 235 429 235 349.5 c 128,-1,25
 235 270 235 270 266 227.5 c 128,-1,26
 297 185 297 185 347.5 185 c 128,-1,27
 398 185 398 185 429.5 228 c 128,-1,28
 461 271 461 271 461 351 c 128,-1,29
 461 431 461 431 428.5 474 c 128,-1,30
 396 517 396 517 348 517 c 128,-1,23
 300 517 300 517 267.5 473 c 128,-1,24
EndSplineSet
EndChar

StartChar: Ocircumflex
Encoding: 212 212 148
Width: 696
GlyphClass: 2
Flags: W
LayerCount: 2
Fore
SplineSet
221 724 m 0,0,1
 212 724 212 724 197 746 c 0,2,3
 177 776 177 776 177 796 c 128,-1,4
 177 816 177 816 183 821 c 1,5,-1
 337 905 l 2,6,7
 344 909 344 909 348 909 c 128,-1,8
 352 909 352 909 359 905 c 2,9,-1
 513 821 l 1,10,11
 519 816 519 816 519 807 c 0,12,13
 519 776 519 776 502 750 c 128,-1,14
 485 724 485 724 476 724 c 0,15,16
 474 724 474 724 348 798 c 1,17,18
 223 724 223 724 221 724 c 0,0,1
118.5 82 m 128,-1,20
 30 174 30 174 30 350.5 c 128,-1,21
 30 527 30 527 119.5 618 c 128,-1,22
 209 709 209 709 350.5 709 c 128,-1,23
 492 709 492 709 579 619.5 c 128,-1,24
 666 530 666 530 666 348.5 c 128,-1,25
 666 167 666 167 577 78.5 c 128,-1,26
 488 -10 488 -10 347.5 -10 c 128,-1,19
 207 -10 207 -10 118.5 82 c 128,-1,20
267.5 473 m 128,-1,28
 235 429 235 429 235 349.5 c 128,-1,29
 235 270 235 270 266 227.5 c 128,-1,30
 297 185 297 185 347.5 185 c 128,-1,31
 398 185 398 185 429.5 228 c 128,-1,32
 461 271 461 271 461 351 c 128,-1,33
 461 431 461 431 428.5 474 c 128,-1,34
 396 517 396 517 348 517 c 128,-1,27
 300 517 300 517 267.5 473 c 128,-1,28
EndSplineSet
EndChar

StartChar: Otilde
Encoding: 213 213 149
Width: 696
GlyphClass: 2
Flags: W
LayerCount: 2
Fore
SplineSet
205 753 m 1,0,1
 186 758 186 758 169.5 787 c 128,-1,2
 153 816 153 816 153 825 c 128,-1,3
 153 834 153 834 156 837 c 0,4,5
 219 900 219 900 286 900 c 0,6,7
 317 900 317 900 356 881.5 c 128,-1,8
 395 863 395 863 416 863 c 0,9,10
 453 864 453 864 485 902 c 0,11,12
 487 903 487 903 490 903 c 0,13,14
 502 903 502 903 523 875 c 128,-1,15
 544 847 544 847 544 837 c 0,16,17
 544 808 544 808 496 776 c 1,18,19
 465 754 465 754 436 754 c 0,20,21
 432 754 432 754 429 754 c 0,22,23
 391 754 391 754 345 774 c 128,-1,24
 299 794 299 794 288.5 794 c 128,-1,25
 278 794 278 794 271 792 c 128,-1,26
 264 790 264 790 258.5 788.5 c 128,-1,27
 253 787 253 787 245.5 782 c 128,-1,28
 238 777 238 777 234 774.5 c 128,-1,29
 230 772 230 772 220 764 c 128,-1,30
 210 756 210 756 205 753 c 1,0,1
118.5 82 m 128,-1,32
 30 174 30 174 30 350.5 c 128,-1,33
 30 527 30 527 119.5 618 c 128,-1,34
 209 709 209 709 350.5 709 c 128,-1,35
 492 709 492 709 579 619.5 c 128,-1,36
 666 530 666 530 666 348.5 c 128,-1,37
 666 167 666 167 577 78.5 c 128,-1,38
 488 -10 488 -10 347.5 -10 c 128,-1,31
 207 -10 207 -10 118.5 82 c 128,-1,32
267.5 473 m 128,-1,40
 235 429 235 429 235 349.5 c 128,-1,41
 235 270 235 270 266 227.5 c 128,-1,42
 297 185 297 185 347.5 185 c 128,-1,43
 398 185 398 185 429.5 228 c 128,-1,44
 461 271 461 271 461 351 c 128,-1,45
 461 431 461 431 428.5 474 c 128,-1,46
 396 517 396 517 348 517 c 128,-1,39
 300 517 300 517 267.5 473 c 128,-1,40
EndSplineSet
EndChar

StartChar: Odieresis
Encoding: 214 214 150
Width: 696
GlyphClass: 2
Flags: W
LayerCount: 2
Fore
SplineSet
302 752 m 2,0,1
 302 746 302 746 232.5 746 c 128,-1,2
 163 746 163 746 163 751 c 2,3,-1
 163 891 l 2,4,5
 163 900 163 900 232.5 900 c 128,-1,6
 302 900 302 900 302 895 c 2,7,-1
 302 752 l 2,0,1
532 752 m 2,8,9
 532 746 532 746 462.5 746 c 128,-1,10
 393 746 393 746 393 751 c 2,11,-1
 393 891 l 2,12,13
 393 900 393 900 462.5 900 c 128,-1,14
 532 900 532 900 532 895 c 2,15,-1
 532 752 l 2,8,9
118.5 82 m 128,-1,17
 30 174 30 174 30 350.5 c 128,-1,18
 30 527 30 527 119.5 618 c 128,-1,19
 209 709 209 709 350.5 709 c 128,-1,20
 492 709 492 709 579 619.5 c 128,-1,21
 666 530 666 530 666 348.5 c 128,-1,22
 666 167 666 167 577 78.5 c 128,-1,23
 488 -10 488 -10 347.5 -10 c 128,-1,16
 207 -10 207 -10 118.5 82 c 128,-1,17
267.5 473 m 128,-1,25
 235 429 235 429 235 349.5 c 128,-1,26
 235 270 235 270 266 227.5 c 128,-1,27
 297 185 297 185 347.5 185 c 128,-1,28
 398 185 398 185 429.5 228 c 128,-1,29
 461 271 461 271 461 351 c 128,-1,30
 461 431 461 431 428.5 474 c 128,-1,31
 396 517 396 517 348 517 c 128,-1,24
 300 517 300 517 267.5 473 c 128,-1,25
EndSplineSet
EndChar

StartChar: multiply
Encoding: 215 215 151
Width: 610
GlyphClass: 2
Flags: W
LayerCount: 2
Fore
SplineSet
108 459 m 2,0,1
 102 465 102 465 102 474.5 c 128,-1,2
 102 484 102 484 113 503.5 c 128,-1,3
 124 523 124 523 144 535 c 128,-1,4
 164 547 164 547 174 547 c 128,-1,5
 184 547 184 547 190 541 c 2,6,-1
 302 428 l 1,7,-1
 416 542 l 2,8,9
 422 548 422 548 431.5 548 c 128,-1,10
 441 548 441 548 461 536.5 c 128,-1,11
 481 525 481 525 492.5 505 c 128,-1,12
 504 485 504 485 504 475.5 c 128,-1,13
 504 466 504 466 498 460 c 2,14,-1
 384 346 l 1,15,-1
 497 233 l 2,16,17
 503 227 503 227 503 219.5 c 128,-1,18
 503 212 503 212 497.5 199 c 128,-1,19
 492 186 492 186 476 171 c 0,20,21
 449 145 449 145 430 145 c 0,22,23
 421 145 421 145 415 151 c 2,24,-1
 302 264 l 1,25,-1
 191 153 l 2,26,27
 184 146 184 146 170 146 c 128,-1,28
 156 146 156 146 129 173 c 128,-1,29
 102 200 102 200 102 214 c 128,-1,30
 102 228 102 228 109 235 c 2,31,-1
 220 346 l 1,32,-1
 108 459 l 2,0,1
EndSplineSet
EndChar

StartChar: Oslash
Encoding: 216 216 152
Width: 696
GlyphClass: 2
Flags: W
LayerCount: 2
Fore
SplineSet
129 71 m 1,0,1
 30 168 30 168 30 347.5 c 128,-1,2
 30 527 30 527 119.5 618 c 128,-1,3
 209 709 209 709 346 709 c 0,4,5
 399 709 399 709 452 695 c 1,6,-1
 495 778 l 1,7,8
 505 789 505 789 516 789 c 0,9,10
 554 789 554 789 584 763 c 0,11,12
 601 749 601 749 601 740 c 128,-1,13
 601 731 601 731 599 726 c 2,14,-1
 555 641 l 1,15,16
 666 546 666 546 666 356.5 c 128,-1,17
 666 167 666 167 577 78.5 c 128,-1,18
 488 -10 488 -10 343 -10 c 0,19,20
 285 -10 285 -10 228 9 c 1,21,-1
 188 -69 l 2,22,23
 181 -81 181 -81 167 -81 c 0,24,25
 148 -81 148 -81 125 -70.5 c 128,-1,26
 102 -60 102 -60 90 -44.5 c 128,-1,27
 78 -29 78 -29 84 -16 c 2,28,-1
 129 71 l 1,0,1
453 193 m 128,-1,30
 493 248 493 248 493 336.5 c 128,-1,31
 493 425 493 425 470 476 c 1,32,-1
 299 147 l 1,33,34
 322 138 322 138 348 138 c 0,35,29
 413 138 413 138 453 193 c 128,-1,30
203 349 m 0,36,37
 203 286 203 286 218 243 c 1,38,-1
 382 559 l 1,39,40
 362 564 362 564 348 564 c 0,41,42
 287 564 287 564 245 508 c 128,-1,43
 203 452 203 452 203 349 c 0,36,37
EndSplineSet
EndChar

StartChar: Ugrave
Encoding: 217 217 153
Width: 628
GlyphClass: 2
Flags: W
LayerCount: 2
Fore
SplineSet
377 691 m 2,0,1
 377 711 377 711 485.5 711 c 128,-1,2
 594 711 594 711 594 691 c 2,3,-1
 594 221 l 2,4,5
 594 119 594 119 521 54.5 c 128,-1,6
 448 -10 448 -10 319.5 -10 c 128,-1,7
 191 -10 191 -10 110.5 56.5 c 128,-1,8
 30 123 30 123 30 236 c 2,9,-1
 30 688 l 2,10,11
 30 708 30 708 138.5 708 c 128,-1,12
 247 708 247 708 247 688 c 2,13,-1
 247 247 l 2,14,15
 247 227 247 227 268 216 c 1,16,17
 290 203 290 203 314 203 c 128,-1,18
 338 203 338 203 357.5 214 c 128,-1,19
 377 225 377 225 377 247 c 2,20,-1
 377 691 l 2,0,1
209 805 m 1,21,22
 204 810 204 810 204 819 c 0,23,24
 204 852 204 852 223 881.5 c 128,-1,25
 242 911 242 911 252 911 c 0,26,27
 255 911 255 911 418 821 c 1,28,29
 424 815 424 815 424 807 c 0,30,31
 424 777 424 777 408 753 c 128,-1,32
 392 729 392 729 383 729 c 0,33,34
 381 729 381 729 209 805 c 1,21,22
EndSplineSet
EndChar

StartChar: Uacute
Encoding: 218 218 154
Width: 628
GlyphClass: 2
Flags: W
LayerCount: 2
Fore
SplineSet
245 729 m 0,0,1
 236 729 236 729 222 749 c 0,2,3
 204 777 204 777 204 796 c 128,-1,4
 204 815 204 815 210 821 c 1,5,6
 373 911 373 911 376 911 c 0,7,8
 386 911 386 911 401 887 c 0,9,10
 424 852 424 852 424 821 c 0,11,12
 424 810 424 810 419 805 c 1,13,14
 247 729 247 729 245 729 c 0,0,1
377 691 m 2,15,16
 377 711 377 711 485.5 711 c 128,-1,17
 594 711 594 711 594 691 c 2,18,-1
 594 221 l 2,19,20
 594 119 594 119 521 54.5 c 128,-1,21
 448 -10 448 -10 319.5 -10 c 128,-1,22
 191 -10 191 -10 110.5 56.5 c 128,-1,23
 30 123 30 123 30 236 c 2,24,-1
 30 688 l 2,25,26
 30 708 30 708 138.5 708 c 128,-1,27
 247 708 247 708 247 688 c 2,28,-1
 247 247 l 2,29,30
 247 227 247 227 268 216 c 1,31,32
 290 203 290 203 314 203 c 128,-1,33
 338 203 338 203 357.5 214 c 128,-1,34
 377 225 377 225 377 247 c 2,35,-1
 377 691 l 2,15,16
EndSplineSet
EndChar

StartChar: Ucircumflex
Encoding: 219 219 155
Width: 628
GlyphClass: 2
Flags: W
LayerCount: 2
Fore
SplineSet
187 724 m 0,0,1
 178 724 178 724 163 746 c 0,2,3
 143 776 143 776 143 796 c 128,-1,4
 143 816 143 816 149 821 c 1,5,-1
 303 905 l 2,6,7
 310 909 310 909 314 909 c 128,-1,8
 318 909 318 909 325 905 c 2,9,-1
 479 821 l 1,10,11
 485 816 485 816 485 807 c 0,12,13
 485 776 485 776 468 750 c 128,-1,14
 451 724 451 724 442 724 c 0,15,16
 440 724 440 724 314 798 c 1,17,18
 189 724 189 724 187 724 c 0,0,1
377 691 m 2,19,20
 377 711 377 711 485.5 711 c 128,-1,21
 594 711 594 711 594 691 c 2,22,-1
 594 221 l 2,23,24
 594 119 594 119 521 54.5 c 128,-1,25
 448 -10 448 -10 319.5 -10 c 128,-1,26
 191 -10 191 -10 110.5 56.5 c 128,-1,27
 30 123 30 123 30 236 c 2,28,-1
 30 688 l 2,29,30
 30 708 30 708 138.5 708 c 128,-1,31
 247 708 247 708 247 688 c 2,32,-1
 247 247 l 2,33,34
 247 227 247 227 268 216 c 1,35,36
 290 203 290 203 314 203 c 128,-1,37
 338 203 338 203 357.5 214 c 128,-1,38
 377 225 377 225 377 247 c 2,39,-1
 377 691 l 2,19,20
EndSplineSet
EndChar

StartChar: Udieresis
Encoding: 220 220 156
Width: 628
GlyphClass: 2
Flags: W
LayerCount: 2
Fore
SplineSet
268 752 m 2,0,1
 268 746 268 746 198.5 746 c 128,-1,2
 129 746 129 746 129 751 c 2,3,-1
 129 891 l 2,4,5
 129 900 129 900 198.5 900 c 128,-1,6
 268 900 268 900 268 895 c 2,7,-1
 268 752 l 2,0,1
498 752 m 2,8,9
 498 746 498 746 428.5 746 c 128,-1,10
 359 746 359 746 359 751 c 2,11,-1
 359 891 l 2,12,13
 359 900 359 900 428.5 900 c 128,-1,14
 498 900 498 900 498 895 c 2,15,-1
 498 752 l 2,8,9
377 691 m 2,16,17
 377 711 377 711 485.5 711 c 128,-1,18
 594 711 594 711 594 691 c 2,19,-1
 594 221 l 2,20,21
 594 119 594 119 521 54.5 c 128,-1,22
 448 -10 448 -10 319.5 -10 c 128,-1,23
 191 -10 191 -10 110.5 56.5 c 128,-1,24
 30 123 30 123 30 236 c 2,25,-1
 30 688 l 2,26,27
 30 708 30 708 138.5 708 c 128,-1,28
 247 708 247 708 247 688 c 2,29,-1
 247 247 l 2,30,31
 247 227 247 227 268 216 c 1,32,33
 290 203 290 203 314 203 c 128,-1,34
 338 203 338 203 357.5 214 c 128,-1,35
 377 225 377 225 377 247 c 2,36,-1
 377 691 l 2,16,17
EndSplineSet
EndChar

StartChar: Yacute
Encoding: 221 221 157
Width: 615
GlyphClass: 2
Flags: W
LayerCount: 2
Fore
SplineSet
238 729 m 0,0,1
 229 729 229 729 215 749 c 0,2,3
 197 777 197 777 197 796 c 128,-1,4
 197 815 197 815 203 821 c 1,5,6
 366 911 366 911 369 911 c 0,7,8
 379 911 379 911 394 887 c 0,9,10
 417 852 417 852 417 821 c 0,11,12
 417 810 417 810 412 805 c 1,13,14
 240 729 240 729 238 729 c 0,0,1
398 674 m 2,15,16
 411 709 411 709 526 709 c 0,17,18
 555 709 555 709 594.5 705 c 128,-1,19
 634 701 634 701 631 695 c 2,20,-1
 423 250 l 1,21,-1
 423 18 l 2,22,23
 423 1 423 1 368 -6 c 0,24,25
 340 -10 340 -10 313 -10 c 128,-1,26
 286 -10 286 -10 259 -7 c 0,27,28
 204 0 204 0 204 18 c 2,29,-1
 204 244 l 1,30,-1
 -11 693 l 1,31,32
 -15 699 -15 699 30 704.5 c 128,-1,33
 75 710 75 710 106 710 c 0,34,35
 229 710 229 710 241 674 c 2,36,-1
 314 456 l 1,37,-1
 398 674 l 2,15,16
EndSplineSet
EndChar

StartChar: Thorn
Encoding: 222 222 158
Width: 595
GlyphClass: 2
Flags: W
LayerCount: 2
Fore
SplineSet
46 699 m 2,0,1
 46 713 46 713 139 713 c 1,2,3
 238 709 238 709 238 700 c 2,4,-1
 238 620 l 1,5,6
 400 620 400 620 466 560 c 128,-1,7
 532 500 532 500 532 382 c 0,8,9
 532 286 532 286 470 206 c 0,10,11
 439 166 439 166 379 142 c 128,-1,12
 319 118 319 118 239 118 c 1,13,-1
 239 14 l 2,14,15
 239 -1 239 -1 190 -7 c 0,16,17
 165 -10 165 -10 141 -10 c 0,18,19
 46 -10 46 -10 46 13 c 2,20,-1
 46 699 l 2,0,1
239 446 m 1,21,-1
 239 288 l 1,22,-1
 252 288 l 2,23,24
 287 288 287 288 311 310 c 128,-1,25
 335 332 335 332 335 372 c 128,-1,26
 335 412 335 412 318.5 429 c 128,-1,27
 302 446 302 446 260 446 c 2,28,-1
 239 446 l 1,21,-1
EndSplineSet
EndChar

StartChar: germandbls
Encoding: 223 223 159
Width: 672
GlyphClass: 2
Flags: W
LayerCount: 2
Fore
SplineSet
328.5 15 m 128,-1,1
 289 40 289 40 289 78 c 0,2,3
 289 122 289 122 305 178 c 1,4,5
 338 163 338 163 370 163 c 0,6,7
 436 163 436 163 436 211 c 0,8,9
 436 248 436 248 411 263 c 128,-1,10
 386 278 386 278 328 281 c 1,11,12
 303 300 303 300 303 344 c 0,13,14
 303 365 303 365 310 385.5 c 128,-1,15
 317 406 317 406 331 406 c 2,16,-1
 360 407 l 1,17,18
 363 411 363 411 369.5 432 c 128,-1,19
 376 453 376 453 376 487 c 128,-1,20
 376 521 376 521 346 536 c 0,21,22
 332 544 332 544 317 544 c 128,-1,23
 302 544 302 544 286 535 c 0,24,25
 257 518 257 518 257 478 c 2,26,-1
 258 -138 l 2,27,28
 258 -150 258 -150 170 -150 c 128,-1,29
 82 -150 82 -150 82 -138 c 2,30,-1
 82 507 l 2,31,32
 82 608 82 608 148.5 659 c 128,-1,33
 215 710 215 710 326.5 710 c 128,-1,34
 438 710 438 710 496.5 666 c 128,-1,35
 555 622 555 622 555 536.5 c 128,-1,36
 555 451 555 451 499 355 c 1,37,38
 564 324 564 324 584 304 c 0,39,40
 627 262 627 262 627 182 c 128,-1,41
 627 102 627 102 574.5 46 c 128,-1,42
 522 -10 522 -10 428 -10 c 0,43,0
 368 -10 368 -10 328.5 15 c 128,-1,1
EndSplineSet
EndChar

StartChar: agrave
Encoding: 224 224 160
Width: 517
GlyphClass: 2
Flags: W
LayerCount: 2
Fore
SplineSet
108 363 m 1,0,1
 80 413 80 413 80 444.5 c 128,-1,2
 80 476 80 476 97 485 c 1,3,4
 154 510 154 510 253.5 510 c 128,-1,5
 353 510 353 510 394 463.5 c 128,-1,6
 435 417 435 417 435 326 c 2,7,-1
 435 168 l 1,8,-1
 469 168 l 2,9,10
 486 168 486 168 495.5 148 c 128,-1,11
 505 128 505 128 505 93 c 128,-1,12
 505 58 505 58 487.5 24 c 128,-1,13
 470 -10 470 -10 440 -10 c 0,14,15
 386 -10 386 -10 353 19 c 0,16,17
 338 31 338 31 330 48 c 1,18,19
 284 -10 284 -10 187 -10 c 0,20,21
 114 -10 114 -10 64 42 c 128,-1,22
 14 94 14 94 14 165 c 0,23,24
 14 328 14 328 209 328 c 2,25,-1
 264 328 l 1,26,-1
 264 338 l 2,27,28
 264 364 264 364 255.5 371.5 c 128,-1,29
 247 379 247 379 216 379 c 0,30,31
 178 379 178 379 108 363 c 1,0,1
188 179 m 0,32,33
 188 157 188 157 200 145.5 c 128,-1,34
 212 134 212 134 230.5 134 c 128,-1,35
 249 134 249 134 264 149 c 1,36,-1
 264 226 l 1,37,-1
 236 226 l 2,38,39
 188 226 188 226 188 179 c 0,32,33
148 605 m 1,40,41
 143 610 143 610 143 619 c 0,42,43
 143 652 143 652 162 681.5 c 128,-1,44
 181 711 181 711 191 711 c 0,45,46
 194 711 194 711 357 621 c 1,47,48
 363 615 363 615 363 607 c 0,49,50
 363 577 363 577 347 553 c 128,-1,51
 331 529 331 529 322 529 c 0,52,53
 320 529 320 529 148 605 c 1,40,41
EndSplineSet
EndChar

StartChar: aacute
Encoding: 225 225 161
Width: 517
GlyphClass: 2
Flags: W
LayerCount: 2
Fore
SplineSet
108 363 m 1,0,1
 80 413 80 413 80 444.5 c 128,-1,2
 80 476 80 476 97 485 c 1,3,4
 154 510 154 510 253.5 510 c 128,-1,5
 353 510 353 510 394 463.5 c 128,-1,6
 435 417 435 417 435 326 c 2,7,-1
 435 168 l 1,8,-1
 469 168 l 2,9,10
 486 168 486 168 495.5 148 c 128,-1,11
 505 128 505 128 505 93 c 128,-1,12
 505 58 505 58 487.5 24 c 128,-1,13
 470 -10 470 -10 440 -10 c 0,14,15
 386 -10 386 -10 353 19 c 0,16,17
 338 31 338 31 330 48 c 1,18,19
 284 -10 284 -10 187 -10 c 0,20,21
 114 -10 114 -10 64 42 c 128,-1,22
 14 94 14 94 14 165 c 0,23,24
 14 328 14 328 209 328 c 2,25,-1
 264 328 l 1,26,-1
 264 338 l 2,27,28
 264 364 264 364 255.5 371.5 c 128,-1,29
 247 379 247 379 216 379 c 0,30,31
 178 379 178 379 108 363 c 1,0,1
188 179 m 0,32,33
 188 157 188 157 200 145.5 c 128,-1,34
 212 134 212 134 230.5 134 c 128,-1,35
 249 134 249 134 264 149 c 1,36,-1
 264 226 l 1,37,-1
 236 226 l 2,38,39
 188 226 188 226 188 179 c 0,32,33
177 529 m 0,40,41
 168 529 168 529 154 549 c 0,42,43
 136 577 136 577 136 596 c 128,-1,44
 136 615 136 615 142 621 c 1,45,46
 305 711 305 711 308 711 c 0,47,48
 318 711 318 711 333 687 c 0,49,50
 356 652 356 652 356 621 c 0,51,52
 356 610 356 610 351 605 c 1,53,54
 179 529 179 529 177 529 c 0,40,41
EndSplineSet
EndChar

StartChar: acircumflex
Encoding: 226 226 162
Width: 517
GlyphClass: 2
Flags: W
LayerCount: 2
Fore
SplineSet
116 524 m 0,0,1
 107 524 107 524 92 546 c 0,2,3
 72 576 72 576 72 596 c 128,-1,4
 72 616 72 616 78 621 c 1,5,-1
 232 705 l 2,6,7
 239 709 239 709 243 709 c 128,-1,8
 247 709 247 709 254 705 c 2,9,-1
 408 621 l 1,10,11
 414 616 414 616 414 607 c 0,12,13
 414 576 414 576 397 550 c 128,-1,14
 380 524 380 524 371 524 c 0,15,16
 369 524 369 524 243 598 c 1,17,18
 118 524 118 524 116 524 c 0,0,1
108 363 m 1,19,20
 80 413 80 413 80 444.5 c 128,-1,21
 80 476 80 476 97 485 c 1,22,23
 154 510 154 510 253.5 510 c 128,-1,24
 353 510 353 510 394 463.5 c 128,-1,25
 435 417 435 417 435 326 c 2,26,-1
 435 168 l 1,27,-1
 469 168 l 2,28,29
 486 168 486 168 495.5 148 c 128,-1,30
 505 128 505 128 505 93 c 128,-1,31
 505 58 505 58 487.5 24 c 128,-1,32
 470 -10 470 -10 440 -10 c 0,33,34
 386 -10 386 -10 353 19 c 0,35,36
 338 31 338 31 330 48 c 1,37,38
 284 -10 284 -10 187 -10 c 0,39,40
 114 -10 114 -10 64 42 c 128,-1,41
 14 94 14 94 14 165 c 0,42,43
 14 328 14 328 209 328 c 2,44,-1
 264 328 l 1,45,-1
 264 338 l 2,46,47
 264 364 264 364 255.5 371.5 c 128,-1,48
 247 379 247 379 216 379 c 0,49,50
 178 379 178 379 108 363 c 1,19,20
188 179 m 0,51,52
 188 157 188 157 200 145.5 c 128,-1,53
 212 134 212 134 230.5 134 c 128,-1,54
 249 134 249 134 264 149 c 1,55,-1
 264 226 l 1,56,-1
 236 226 l 2,57,58
 188 226 188 226 188 179 c 0,51,52
EndSplineSet
EndChar

StartChar: atilde
Encoding: 227 227 163
Width: 517
GlyphClass: 2
Flags: W
LayerCount: 2
Fore
SplineSet
110 553 m 1,0,1
 91 558 91 558 74.5 587 c 128,-1,2
 58 616 58 616 58 625 c 128,-1,3
 58 634 58 634 61 637 c 0,4,5
 124 700 124 700 191 700 c 0,6,7
 222 700 222 700 261 681.5 c 128,-1,8
 300 663 300 663 321 663 c 0,9,10
 358 664 358 664 390 702 c 0,11,12
 392 703 392 703 395 703 c 0,13,14
 407 703 407 703 428 675 c 128,-1,15
 449 647 449 647 449 637 c 0,16,17
 449 608 449 608 402 576 c 0,18,19
 370 554 370 554 341 554 c 0,20,21
 337 554 337 554 334 554 c 0,22,23
 296 554 296 554 250 574 c 128,-1,24
 204 594 204 594 193.5 594 c 128,-1,25
 183 594 183 594 176 592 c 128,-1,26
 169 590 169 590 163.5 588.5 c 128,-1,27
 158 587 158 587 150.5 582 c 128,-1,28
 143 577 143 577 139 574.5 c 128,-1,29
 135 572 135 572 125 564 c 128,-1,30
 115 556 115 556 110 553 c 1,0,1
108 363 m 1,31,32
 80 413 80 413 80 444.5 c 128,-1,33
 80 476 80 476 97 485 c 1,34,35
 154 510 154 510 253.5 510 c 128,-1,36
 353 510 353 510 394 463.5 c 128,-1,37
 435 417 435 417 435 326 c 2,38,-1
 435 168 l 1,39,-1
 469 168 l 2,40,41
 486 168 486 168 495.5 148 c 128,-1,42
 505 128 505 128 505 93 c 128,-1,43
 505 58 505 58 487.5 24 c 128,-1,44
 470 -10 470 -10 440 -10 c 0,45,46
 386 -10 386 -10 353 19 c 0,47,48
 338 31 338 31 330 48 c 1,49,50
 284 -10 284 -10 187 -10 c 0,51,52
 114 -10 114 -10 64 42 c 128,-1,53
 14 94 14 94 14 165 c 0,54,55
 14 328 14 328 209 328 c 2,56,-1
 264 328 l 1,57,-1
 264 338 l 2,58,59
 264 364 264 364 255.5 371.5 c 128,-1,60
 247 379 247 379 216 379 c 0,61,62
 178 379 178 379 108 363 c 1,31,32
188 179 m 0,63,64
 188 157 188 157 200 145.5 c 128,-1,65
 212 134 212 134 230.5 134 c 128,-1,66
 249 134 249 134 264 149 c 1,67,-1
 264 226 l 1,68,-1
 236 226 l 2,69,70
 188 226 188 226 188 179 c 0,63,64
EndSplineSet
EndChar

StartChar: adieresis
Encoding: 228 228 164
Width: 517
GlyphClass: 2
Flags: W
LayerCount: 2
Fore
SplineSet
202 552 m 2,0,1
 202 546 202 546 132.5 546 c 128,-1,2
 63 546 63 546 63 551 c 2,3,-1
 63 691 l 2,4,5
 63 700 63 700 132.5 700 c 128,-1,6
 202 700 202 700 202 695 c 2,7,-1
 202 552 l 2,0,1
432 552 m 2,8,9
 432 546 432 546 362.5 546 c 128,-1,10
 293 546 293 546 293 551 c 2,11,-1
 293 691 l 2,12,13
 293 700 293 700 362.5 700 c 128,-1,14
 432 700 432 700 432 695 c 2,15,-1
 432 552 l 2,8,9
108 363 m 1,16,17
 80 413 80 413 80 444.5 c 128,-1,18
 80 476 80 476 97 485 c 1,19,20
 154 510 154 510 253.5 510 c 128,-1,21
 353 510 353 510 394 463.5 c 128,-1,22
 435 417 435 417 435 326 c 2,23,-1
 435 168 l 1,24,-1
 469 168 l 2,25,26
 486 168 486 168 495.5 148 c 128,-1,27
 505 128 505 128 505 93 c 128,-1,28
 505 58 505 58 487.5 24 c 128,-1,29
 470 -10 470 -10 440 -10 c 0,30,31
 386 -10 386 -10 353 19 c 0,32,33
 338 31 338 31 330 48 c 1,34,35
 284 -10 284 -10 187 -10 c 0,36,37
 114 -10 114 -10 64 42 c 128,-1,38
 14 94 14 94 14 165 c 0,39,40
 14 328 14 328 209 328 c 2,41,-1
 264 328 l 1,42,-1
 264 338 l 2,43,44
 264 364 264 364 255.5 371.5 c 128,-1,45
 247 379 247 379 216 379 c 0,46,47
 178 379 178 379 108 363 c 1,16,17
188 179 m 0,48,49
 188 157 188 157 200 145.5 c 128,-1,50
 212 134 212 134 230.5 134 c 128,-1,51
 249 134 249 134 264 149 c 1,52,-1
 264 226 l 1,53,-1
 236 226 l 2,54,55
 188 226 188 226 188 179 c 0,48,49
EndSplineSet
EndChar

StartChar: aring
Encoding: 229 229 165
Width: 517
GlyphClass: 2
Flags: W
LayerCount: 2
Fore
SplineSet
162 619 m 128,-1,1
 162 657 162 657 188 683 c 128,-1,2
 214 709 214 709 252 709 c 128,-1,3
 290 709 290 709 316 683 c 128,-1,4
 342 657 342 657 342 619 c 128,-1,5
 342 581 342 581 316 555 c 128,-1,6
 290 529 290 529 252 529 c 128,-1,7
 214 529 214 529 188 555 c 128,-1,0
 162 581 162 581 162 619 c 128,-1,1
193 620 m 128,-1,9
 193 595 193 595 210.5 577.5 c 128,-1,10
 228 560 228 560 253 560 c 128,-1,11
 278 560 278 560 295.5 577.5 c 128,-1,12
 313 595 313 595 313 620 c 128,-1,13
 313 645 313 645 295.5 662.5 c 128,-1,14
 278 680 278 680 253 680 c 128,-1,15
 228 680 228 680 210.5 662.5 c 128,-1,8
 193 645 193 645 193 620 c 128,-1,9
108 363 m 1,16,17
 80 413 80 413 80 444.5 c 128,-1,18
 80 476 80 476 97 485 c 1,19,20
 154 510 154 510 253.5 510 c 128,-1,21
 353 510 353 510 394 463.5 c 128,-1,22
 435 417 435 417 435 326 c 2,23,-1
 435 168 l 1,24,-1
 469 168 l 2,25,26
 486 168 486 168 495.5 148 c 128,-1,27
 505 128 505 128 505 93 c 128,-1,28
 505 58 505 58 487.5 24 c 128,-1,29
 470 -10 470 -10 440 -10 c 0,30,31
 386 -10 386 -10 353 19 c 0,32,33
 338 31 338 31 330 48 c 1,34,35
 284 -10 284 -10 187 -10 c 0,36,37
 114 -10 114 -10 64 42 c 128,-1,38
 14 94 14 94 14 165 c 0,39,40
 14 328 14 328 209 328 c 2,41,-1
 264 328 l 1,42,-1
 264 338 l 2,43,44
 264 364 264 364 255.5 371.5 c 128,-1,45
 247 379 247 379 216 379 c 0,46,47
 178 379 178 379 108 363 c 1,16,17
188 179 m 0,48,49
 188 157 188 157 200 145.5 c 128,-1,50
 212 134 212 134 230.5 134 c 128,-1,51
 249 134 249 134 264 149 c 1,52,-1
 264 226 l 1,53,-1
 236 226 l 2,54,55
 188 226 188 226 188 179 c 0,48,49
EndSplineSet
EndChar

StartChar: ae
Encoding: 230 230 166
Width: 685
GlyphClass: 2
Flags: W
LayerCount: 2
Fore
SplineSet
610 147 m 1,0,1
 642 97 642 97 642 66.5 c 128,-1,2
 642 36 642 36 624 26 c 0,3,4
 561 -10 561 -10 469.5 -10 c 128,-1,5
 378 -10 378 -10 317 43 c 1,6,7
 271 -10 271 -10 180 -10 c 0,8,9
 109 -10 109 -10 61.5 39.5 c 128,-1,10
 14 89 14 89 14 158 c 0,11,12
 14 318 14 318 201 318 c 2,13,-1
 255 318 l 1,14,-1
 255 327 l 2,15,16
 255 351 255 351 246.5 359 c 128,-1,17
 238 367 238 367 208 367 c 128,-1,18
 178 367 178 367 156.5 362.5 c 128,-1,19
 135 358 135 358 123 355.5 c 128,-1,20
 111 353 111 353 105 351 c 1,21,22
 77 398 77 398 77 437 c 0,23,24
 77 460 77 460 94 469 c 1,25,26
 146 493 146 493 239 493 c 0,27,28
 296 493 296 493 349 461 c 1,29,30
 421 498 421 498 465 498 c 0,31,32
 559 498 559 498 612 448 c 128,-1,33
 665 398 665 398 665 328 c 0,34,35
 665 168 665 168 485 168 c 2,36,-1
 419 168 l 1,37,-1
 419 154 l 1,38,39
 423 132 423 132 438 124 c 128,-1,40
 453 116 453 116 481 116 c 0,41,42
 547 116 547 116 610 147 c 1,0,1
227 216 m 2,43,44
 181 216 181 216 181 172.5 c 128,-1,45
 181 129 181 129 221 129 c 0,46,47
 239 129 239 129 255 143 c 1,48,-1
 255 216 l 1,49,-1
 227 216 l 2,43,44
502 310 m 0,50,51
 502 350 502 350 462 350 c 0,52,53
 426 350 426 350 419 317 c 1,54,-1
 419 277 l 1,55,-1
 470 277 l 2,56,57
 502 277 502 277 502 310 c 0,50,51
EndSplineSet
EndChar

StartChar: ccedilla
Encoding: 231 231 167
Width: 424
GlyphClass: 2
Flags: W
LayerCount: 2
Fore
SplineSet
209 248 m 0,0,1
 209 150 209 150 283 150 c 0,2,3
 331 150 331 150 363 169 c 1,4,5
 378 169 378 169 387.5 117.5 c 128,-1,6
 397 66 397 66 397 47.5 c 128,-1,7
 397 29 397 29 392 23 c 1,8,9
 352 -1 352 -1 295 -7 c 1,10,11
 307 -53 307 -53 307 -83 c 128,-1,12
 307 -113 307 -113 298 -130 c 0,13,14
 273 -177 273 -177 205 -177 c 0,15,16
 164 -177 164 -177 132 -160 c 0,17,18
 120 -154 120 -154 120 -127 c 0,19,20
 120 -120 120 -120 120 -110 c 1,21,22
 125 -69 125 -69 143 -69 c 2,23,-1
 176 -69 l 2,24,25
 197 -69 197 -69 203 -63.5 c 128,-1,26
 209 -58 209 -58 209 -37 c 2,27,-1
 209 -6 l 1,28,29
 130 7 130 7 78 73.5 c 128,-1,30
 26 140 26 140 26 252 c 128,-1,31
 26 364 26 364 89.5 437 c 128,-1,32
 153 510 153 510 258.5 510 c 128,-1,33
 364 510 364 510 405 459 c 0,34,35
 414 448 414 448 414 426.5 c 128,-1,36
 414 405 414 405 406 374 c 0,37,38
 388 310 388 310 359 300 c 0,39,40
 355 299 355 299 347.5 299 c 128,-1,41
 340 299 340 299 329 311 c 0,42,43
 290 350 290 350 266.5 350 c 128,-1,44
 243 350 243 350 226 326 c 128,-1,45
 209 302 209 302 209 248 c 0,0,1
EndSplineSet
EndChar

StartChar: egrave
Encoding: 232 232 168
Width: 486
GlyphClass: 2
Flags: W
LayerCount: 2
Fore
SplineSet
142 605 m 1,1,2
 137 610 137 610 137 619 c 0,3,4
 137 652 137 652 156 681.5 c 128,-1,5
 175 711 175 711 185 711 c 0,6,7
 188 711 188 711 351 621 c 1,8,9
 357 615 357 615 357 607 c 0,10,11
 357 577 357 577 341 553 c 128,-1,12
 325 529 325 529 316 529 c 0,13,0
 314 529 314 529 142 605 c 1,1,2
423 27 m 1,14,15
 360 -10 360 -10 261 -10 c 128,-1,16
 162 -10 162 -10 94 57.5 c 128,-1,17
 26 125 26 125 26 244.5 c 128,-1,18
 26 364 26 364 91.5 437 c 128,-1,19
 157 510 157 510 257 510 c 128,-1,20
 357 510 357 510 411.5 459 c 128,-1,21
 466 408 466 408 466 335 c 0,22,23
 466 173 466 173 280 173 c 2,24,-1
 211 173 l 1,25,26
 211 143 211 143 227.5 131.5 c 128,-1,27
 244 120 244 120 276 120 c 0,28,29
 346 120 346 120 409 152 c 0,30,31
 410 153 410 153 418 138 c 0,32,33
 442 95 442 95 442 65.5 c 128,-1,34
 442 36 442 36 423 27 c 1,14,15
298 316 m 0,35,36
 298 358 298 358 257 358 c 0,37,38
 238 358 238 358 224.5 346.5 c 128,-1,39
 211 335 211 335 211 313 c 2,40,-1
 211 282 l 1,41,-1
 265 282 l 2,42,43
 298 282 298 282 298 316 c 0,35,36
EndSplineSet
EndChar

StartChar: eacute
Encoding: 233 233 169
Width: 486
GlyphClass: 2
Flags: W
LayerCount: 2
Fore
SplineSet
178 529 m 0,0,1
 169 529 169 529 155 549 c 0,2,3
 137 577 137 577 137 596 c 128,-1,4
 137 615 137 615 143 621 c 1,5,6
 306 711 306 711 309 711 c 0,7,8
 319 711 319 711 334 687 c 0,9,10
 357 652 357 652 357 621 c 0,11,12
 357 610 357 610 352 605 c 1,13,14
 180 529 180 529 178 529 c 0,0,1
423 27 m 1,15,16
 360 -10 360 -10 261 -10 c 128,-1,17
 162 -10 162 -10 94 57.5 c 128,-1,18
 26 125 26 125 26 244.5 c 128,-1,19
 26 364 26 364 91.5 437 c 128,-1,20
 157 510 157 510 257 510 c 128,-1,21
 357 510 357 510 411.5 459 c 128,-1,22
 466 408 466 408 466 335 c 0,23,24
 466 173 466 173 280 173 c 2,25,-1
 211 173 l 1,26,27
 211 143 211 143 227.5 131.5 c 128,-1,28
 244 120 244 120 276 120 c 0,29,30
 346 120 346 120 409 152 c 0,31,32
 410 153 410 153 418 138 c 0,33,34
 442 95 442 95 442 65.5 c 128,-1,35
 442 36 442 36 423 27 c 1,15,16
298 316 m 0,36,37
 298 358 298 358 257 358 c 0,38,39
 238 358 238 358 224.5 346.5 c 128,-1,40
 211 335 211 335 211 313 c 2,41,-1
 211 282 l 1,42,-1
 265 282 l 2,43,44
 298 282 298 282 298 316 c 0,36,37
EndSplineSet
EndChar

StartChar: ecircumflex
Encoding: 234 234 170
Width: 486
GlyphClass: 2
Flags: W
LayerCount: 2
Fore
SplineSet
120 524 m 0,0,1
 111 524 111 524 96 546 c 0,2,3
 76 576 76 576 76 596 c 128,-1,4
 76 616 76 616 82 621 c 1,5,-1
 236 705 l 2,6,7
 243 709 243 709 247 709 c 128,-1,8
 251 709 251 709 258 705 c 2,9,-1
 412 621 l 1,10,11
 418 616 418 616 418 607 c 0,12,13
 418 576 418 576 401 550 c 128,-1,14
 384 524 384 524 375 524 c 0,15,16
 373 524 373 524 247 598 c 1,17,18
 122 524 122 524 120 524 c 0,0,1
423 27 m 1,19,20
 360 -10 360 -10 261 -10 c 128,-1,21
 162 -10 162 -10 94 57.5 c 128,-1,22
 26 125 26 125 26 244.5 c 128,-1,23
 26 364 26 364 91.5 437 c 128,-1,24
 157 510 157 510 257 510 c 128,-1,25
 357 510 357 510 411.5 459 c 128,-1,26
 466 408 466 408 466 335 c 0,27,28
 466 173 466 173 280 173 c 2,29,-1
 211 173 l 1,30,31
 211 143 211 143 227.5 131.5 c 128,-1,32
 244 120 244 120 276 120 c 0,33,34
 346 120 346 120 409 152 c 0,35,36
 410 153 410 153 418 138 c 0,37,38
 442 95 442 95 442 65.5 c 128,-1,39
 442 36 442 36 423 27 c 1,19,20
298 316 m 0,40,41
 298 358 298 358 257 358 c 0,42,43
 238 358 238 358 224.5 346.5 c 128,-1,44
 211 335 211 335 211 313 c 2,45,-1
 211 282 l 1,46,-1
 265 282 l 2,47,48
 298 282 298 282 298 316 c 0,40,41
EndSplineSet
EndChar

StartChar: edieresis
Encoding: 235 235 171
Width: 486
GlyphClass: 2
Flags: W
LayerCount: 2
Fore
SplineSet
201 552 m 2,0,1
 201 546 201 546 131.5 546 c 128,-1,2
 62 546 62 546 62 551 c 2,3,-1
 62 691 l 2,4,5
 62 700 62 700 131.5 700 c 128,-1,6
 201 700 201 700 201 695 c 2,7,-1
 201 552 l 2,0,1
431 552 m 2,8,9
 431 546 431 546 361.5 546 c 128,-1,10
 292 546 292 546 292 551 c 2,11,-1
 292 691 l 2,12,13
 292 700 292 700 361.5 700 c 128,-1,14
 431 700 431 700 431 695 c 2,15,-1
 431 552 l 2,8,9
423 27 m 1,16,17
 360 -10 360 -10 261 -10 c 128,-1,18
 162 -10 162 -10 94 57.5 c 128,-1,19
 26 125 26 125 26 244.5 c 128,-1,20
 26 364 26 364 91.5 437 c 128,-1,21
 157 510 157 510 257 510 c 128,-1,22
 357 510 357 510 411.5 459 c 128,-1,23
 466 408 466 408 466 335 c 0,24,25
 466 173 466 173 280 173 c 2,26,-1
 211 173 l 1,27,28
 211 143 211 143 227.5 131.5 c 128,-1,29
 244 120 244 120 276 120 c 0,30,31
 346 120 346 120 409 152 c 0,32,33
 410 153 410 153 418 138 c 0,34,35
 442 95 442 95 442 65.5 c 128,-1,36
 442 36 442 36 423 27 c 1,16,17
298 316 m 0,37,38
 298 358 298 358 257 358 c 0,39,40
 238 358 238 358 224.5 346.5 c 128,-1,41
 211 335 211 335 211 313 c 2,42,-1
 211 282 l 1,43,-1
 265 282 l 2,44,45
 298 282 298 282 298 316 c 0,37,38
EndSplineSet
EndChar

StartChar: igrave
Encoding: 236 236 172
Width: 267
GlyphClass: 2
Flags: W
LayerCount: 2
Fore
SplineSet
27 605 m 1,1,2
 22 610 22 610 22 619 c 0,3,4
 22 652 22 652 41 681.5 c 128,-1,5
 60 711 60 711 70 711 c 0,6,7
 73 711 73 711 236 621 c 1,8,9
 242 615 242 615 242 607 c 0,10,11
 242 577 242 577 226 553 c 128,-1,12
 210 529 210 529 201 529 c 0,13,0
 199 529 199 529 27 605 c 1,1,2
222 6 m 2,14,15
 222 -2 222 -2 133.5 -2 c 128,-1,16
 45 -2 45 -2 45 5 c 2,17,-1
 45 480 l 2,18,19
 45 486 45 486 133.5 486 c 128,-1,20
 222 486 222 486 222 481 c 2,21,-1
 222 6 l 2,14,15
EndSplineSet
EndChar

StartChar: iacute
Encoding: 237 237 173
Width: 267
GlyphClass: 2
Flags: W
LayerCount: 2
Fore
SplineSet
63 529 m 0,0,1
 54 529 54 529 40 549 c 0,2,3
 22 577 22 577 22 596 c 128,-1,4
 22 615 22 615 28 621 c 1,5,6
 191 711 191 711 194 711 c 0,7,8
 204 711 204 711 219 687 c 0,9,10
 242 652 242 652 242 621 c 0,11,12
 242 610 242 610 237 605 c 1,13,14
 65 529 65 529 63 529 c 0,0,1
222 6 m 2,15,16
 222 -2 222 -2 133.5 -2 c 128,-1,17
 45 -2 45 -2 45 5 c 2,18,-1
 45 480 l 2,19,20
 45 486 45 486 133.5 486 c 128,-1,21
 222 486 222 486 222 481 c 2,22,-1
 222 6 l 2,15,16
EndSplineSet
EndChar

StartChar: icircumflex
Encoding: 238 238 174
Width: 267
GlyphClass: 2
Flags: W
LayerCount: 2
Fore
SplineSet
5 524 m 0,0,1
 -4 524 -4 524 -19 546 c 0,2,3
 -39 576 -39 576 -39 596 c 128,-1,4
 -39 616 -39 616 -33 621 c 1,5,-1
 121 705 l 2,6,7
 128 709 128 709 132 709 c 128,-1,8
 136 709 136 709 143 705 c 2,9,-1
 297 621 l 1,10,11
 303 616 303 616 303 607 c 0,12,13
 303 576 303 576 286 550 c 128,-1,14
 269 524 269 524 260 524 c 0,15,16
 258 524 258 524 132 598 c 1,17,18
 7 524 7 524 5 524 c 0,0,1
222 6 m 2,19,20
 222 -2 222 -2 133.5 -2 c 128,-1,21
 45 -2 45 -2 45 5 c 2,22,-1
 45 480 l 2,23,24
 45 486 45 486 133.5 486 c 128,-1,25
 222 486 222 486 222 481 c 2,26,-1
 222 6 l 2,19,20
EndSplineSet
EndChar

StartChar: idieresis
Encoding: 239 239 175
Width: 267
GlyphClass: 2
Flags: W
LayerCount: 2
Fore
SplineSet
86 552 m 2,0,1
 86 546 86 546 16.5 546 c 128,-1,2
 -53 546 -53 546 -53 551 c 2,3,-1
 -53 691 l 2,4,5
 -53 700 -53 700 16.5 700 c 128,-1,6
 86 700 86 700 86 695 c 2,7,-1
 86 552 l 2,0,1
316 552 m 2,8,9
 316 546 316 546 246.5 546 c 128,-1,10
 177 546 177 546 177 551 c 2,11,-1
 177 691 l 2,12,13
 177 700 177 700 246.5 700 c 128,-1,14
 316 700 316 700 316 695 c 2,15,-1
 316 552 l 2,8,9
222 6 m 2,16,17
 222 -2 222 -2 133.5 -2 c 128,-1,18
 45 -2 45 -2 45 5 c 2,19,-1
 45 480 l 2,20,21
 45 486 45 486 133.5 486 c 128,-1,22
 222 486 222 486 222 481 c 2,23,-1
 222 6 l 2,16,17
EndSplineSet
EndChar

StartChar: eth
Encoding: 240 240 176
Width: 574
GlyphClass: 2
Flags: W
LayerCount: 2
Fore
SplineSet
288 489 m 1,0,-1
 129 457 l 1,1,2
 115 457 115 457 106 470.5 c 128,-1,3
 97 484 97 484 97 500 c 0,4,5
 97 528 97 528 120 532 c 2,6,-1
 237 556 l 1,7,8
 212 585 212 585 175 620 c 1,9,10
 234 709 234 709 288 709 c 0,11,12
 350 709 350 709 429 595 c 1,13,-1
 513 612 l 1,14,-1
 517 612 l 2,15,16
 531 612 531 612 540 598.5 c 128,-1,17
 549 585 549 585 549 569 c 0,18,19
 549 541 549 541 527 537 c 2,20,-1
 470 525 l 1,21,22
 520 427 520 427 520 288 c 128,-1,23
 520 149 520 149 453 69.5 c 128,-1,24
 386 -10 386 -10 260 -10 c 0,25,26
 156 -10 156 -10 98 50.5 c 128,-1,27
 40 111 40 111 40 207 c 128,-1,28
 40 303 40 303 95.5 351.5 c 128,-1,29
 151 400 151 400 236 400 c 0,30,31
 280 400 280 400 331 386 c 1,32,33
 327 429 327 429 288 489 c 1,0,-1
213 215 m 0,34,35
 213 154 213 154 262 154 c 0,36,37
 297 154 297 154 313 179 c 128,-1,38
 329 204 329 204 329 242 c 0,39,40
 329 254 329 254 328 261 c 1,41,42
 308 275 308 275 264 275 c 0,43,44
 240 275 240 275 226.5 258.5 c 128,-1,45
 213 242 213 242 213 215 c 0,34,35
EndSplineSet
EndChar

StartChar: ntilde
Encoding: 241 241 177
Width: 551
GlyphClass: 2
Flags: W
LayerCount: 2
Fore
SplineSet
136 553 m 1,0,1
 117 558 117 558 100.5 587 c 128,-1,2
 84 616 84 616 84 625 c 128,-1,3
 84 634 84 634 87 637 c 0,4,5
 150 700 150 700 217 700 c 0,6,7
 248 700 248 700 287 681.5 c 128,-1,8
 326 663 326 663 347 663 c 0,9,10
 384 664 384 664 416 702 c 0,11,12
 418 703 418 703 421 703 c 0,13,14
 433 703 433 703 454 675 c 128,-1,15
 475 647 475 647 475 637 c 0,16,17
 475 608 475 608 428 576 c 0,18,19
 396 554 396 554 367 554 c 0,20,21
 363 554 363 554 360 554 c 0,22,23
 322 554 322 554 276 574 c 128,-1,24
 230 594 230 594 219.5 594 c 128,-1,25
 209 594 209 594 202 592 c 128,-1,26
 195 590 195 590 189.5 588.5 c 128,-1,27
 184 587 184 587 176.5 582 c 128,-1,28
 169 577 169 577 165 574.5 c 128,-1,29
 161 572 161 572 151 564 c 128,-1,30
 141 556 141 556 136 553 c 1,0,1
254 6 m 2,31,32
 254 -1 254 -1 182 -1 c 1,33,34
 82 2 82 2 82 10 c 2,35,-1
 82 334 l 1,36,-1
 56 334 l 2,37,38
 30 334 30 334 22 378 c 0,39,40
 20 391 20 391 20 404 c 0,41,42
 20 435 20 435 32 466 c 0,43,44
 50 510 50 510 88 510 c 128,-1,45
 126 510 126 510 156 492 c 128,-1,46
 186 474 186 474 196 456 c 1,47,48
 259 510 259 510 346 510 c 128,-1,49
 433 510 433 510 472 463 c 128,-1,50
 511 416 511 416 511 309 c 2,51,-1
 511 9 l 2,52,53
 511 -3 511 -3 425.5 -3 c 128,-1,54
 340 -3 340 -3 340 9 c 2,55,-1
 340 298 l 2,56,57
 340 348 340 348 305 348 c 0,58,59
 295 348 295 348 277 339.5 c 128,-1,60
 259 331 259 331 254 327 c 1,61,-1
 254 6 l 2,31,32
EndSplineSet
EndChar

StartChar: ograve
Encoding: 242 242 178
Width: 513
GlyphClass: 2
Flags: W
LayerCount: 2
Fore
SplineSet
26 250 m 128,-1,1
 26 372 26 372 88.5 441 c 128,-1,2
 151 510 151 510 257 510 c 128,-1,3
 363 510 363 510 425 441 c 128,-1,4
 487 372 487 372 487 250 c 128,-1,5
 487 128 487 128 425 59 c 128,-1,6
 363 -10 363 -10 257 -10 c 128,-1,7
 151 -10 151 -10 88.5 59 c 128,-1,0
 26 128 26 128 26 250 c 128,-1,1
201 251 m 128,-1,9
 201 159 201 159 257.5 159 c 128,-1,10
 314 159 314 159 314 251 c 128,-1,11
 314 343 314 343 257.5 343 c 128,-1,8
 201 343 201 343 201 251 c 128,-1,9
143 605 m 1,12,13
 138 610 138 610 138 619 c 0,14,15
 138 652 138 652 157 681.5 c 128,-1,16
 176 711 176 711 186 711 c 0,17,18
 189 711 189 711 352 621 c 1,19,20
 358 615 358 615 358 607 c 0,21,22
 358 577 358 577 342 553 c 128,-1,23
 326 529 326 529 317 529 c 0,24,25
 315 529 315 529 143 605 c 1,12,13
EndSplineSet
EndChar

StartChar: oacute
Encoding: 243 243 179
Width: 513
GlyphClass: 2
Flags: W
LayerCount: 2
Fore
SplineSet
26 250 m 128,-1,1
 26 372 26 372 88.5 441 c 128,-1,2
 151 510 151 510 257 510 c 128,-1,3
 363 510 363 510 425 441 c 128,-1,4
 487 372 487 372 487 250 c 128,-1,5
 487 128 487 128 425 59 c 128,-1,6
 363 -10 363 -10 257 -10 c 128,-1,7
 151 -10 151 -10 88.5 59 c 128,-1,0
 26 128 26 128 26 250 c 128,-1,1
201 251 m 128,-1,9
 201 159 201 159 257.5 159 c 128,-1,10
 314 159 314 159 314 251 c 128,-1,11
 314 343 314 343 257.5 343 c 128,-1,8
 201 343 201 343 201 251 c 128,-1,9
179 529 m 0,12,13
 170 529 170 529 156 549 c 0,14,15
 138 577 138 577 138 596 c 128,-1,16
 138 615 138 615 144 621 c 1,17,18
 307 711 307 711 310 711 c 0,19,20
 320 711 320 711 335 687 c 0,21,22
 358 652 358 652 358 621 c 0,23,24
 358 610 358 610 353 605 c 1,25,26
 181 529 181 529 179 529 c 0,12,13
EndSplineSet
EndChar

StartChar: ocircumflex
Encoding: 244 244 180
Width: 513
GlyphClass: 2
Flags: W
LayerCount: 2
Fore
SplineSet
26 250 m 128,-1,1
 26 372 26 372 88.5 441 c 128,-1,2
 151 510 151 510 257 510 c 128,-1,3
 363 510 363 510 425 441 c 128,-1,4
 487 372 487 372 487 250 c 128,-1,5
 487 128 487 128 425 59 c 128,-1,6
 363 -10 363 -10 257 -10 c 128,-1,7
 151 -10 151 -10 88.5 59 c 128,-1,0
 26 128 26 128 26 250 c 128,-1,1
201 251 m 128,-1,9
 201 159 201 159 257.5 159 c 128,-1,10
 314 159 314 159 314 251 c 128,-1,11
 314 343 314 343 257.5 343 c 128,-1,8
 201 343 201 343 201 251 c 128,-1,9
121 524 m 0,12,13
 112 524 112 524 97 546 c 0,14,15
 77 576 77 576 77 596 c 128,-1,16
 77 616 77 616 83 621 c 1,17,-1
 237 705 l 2,18,19
 244 709 244 709 248 709 c 128,-1,20
 252 709 252 709 259 705 c 2,21,-1
 413 621 l 1,22,23
 419 616 419 616 419 607 c 0,24,25
 419 576 419 576 402 550 c 128,-1,26
 385 524 385 524 376 524 c 0,27,28
 374 524 374 524 248 598 c 1,29,30
 123 524 123 524 121 524 c 0,12,13
EndSplineSet
EndChar

StartChar: otilde
Encoding: 245 245 181
Width: 513
GlyphClass: 2
Flags: W
LayerCount: 2
Fore
SplineSet
106 553 m 1,0,1
 87 558 87 558 70.5 587 c 128,-1,2
 54 616 54 616 54 625 c 128,-1,3
 54 634 54 634 57 637 c 0,4,5
 120 700 120 700 187 700 c 0,6,7
 218 700 218 700 257 681.5 c 128,-1,8
 296 663 296 663 317 663 c 0,9,10
 354 664 354 664 386 702 c 0,11,12
 388 703 388 703 391 703 c 0,13,14
 403 703 403 703 424 675 c 128,-1,15
 445 647 445 647 445 637 c 0,16,17
 445 608 445 608 398 576 c 0,18,19
 366 554 366 554 337 554 c 0,20,21
 333 554 333 554 330 554 c 0,22,23
 292 554 292 554 246 574 c 128,-1,24
 200 594 200 594 189.5 594 c 128,-1,25
 179 594 179 594 172 592 c 128,-1,26
 165 590 165 590 159.5 588.5 c 128,-1,27
 154 587 154 587 146.5 582 c 128,-1,28
 139 577 139 577 135 574.5 c 128,-1,29
 131 572 131 572 121 564 c 128,-1,30
 111 556 111 556 106 553 c 1,0,1
26 250 m 128,-1,32
 26 372 26 372 88.5 441 c 128,-1,33
 151 510 151 510 257 510 c 128,-1,34
 363 510 363 510 425 441 c 128,-1,35
 487 372 487 372 487 250 c 128,-1,36
 487 128 487 128 425 59 c 128,-1,37
 363 -10 363 -10 257 -10 c 128,-1,38
 151 -10 151 -10 88.5 59 c 128,-1,31
 26 128 26 128 26 250 c 128,-1,32
201 251 m 128,-1,40
 201 159 201 159 257.5 159 c 128,-1,41
 314 159 314 159 314 251 c 128,-1,42
 314 343 314 343 257.5 343 c 128,-1,39
 201 343 201 343 201 251 c 128,-1,40
EndSplineSet
EndChar

StartChar: odieresis
Encoding: 246 246 182
Width: 513
GlyphClass: 2
Flags: W
LayerCount: 2
Fore
SplineSet
203 552 m 2,0,1
 203 546 203 546 133.5 546 c 128,-1,2
 64 546 64 546 64 551 c 2,3,-1
 64 691 l 2,4,5
 64 700 64 700 133.5 700 c 128,-1,6
 203 700 203 700 203 695 c 2,7,-1
 203 552 l 2,0,1
433 552 m 2,8,9
 433 546 433 546 363.5 546 c 128,-1,10
 294 546 294 546 294 551 c 2,11,-1
 294 691 l 2,12,13
 294 700 294 700 363.5 700 c 128,-1,14
 433 700 433 700 433 695 c 2,15,-1
 433 552 l 2,8,9
26 250 m 128,-1,17
 26 372 26 372 88.5 441 c 128,-1,18
 151 510 151 510 257 510 c 128,-1,19
 363 510 363 510 425 441 c 128,-1,20
 487 372 487 372 487 250 c 128,-1,21
 487 128 487 128 425 59 c 128,-1,22
 363 -10 363 -10 257 -10 c 128,-1,23
 151 -10 151 -10 88.5 59 c 128,-1,16
 26 128 26 128 26 250 c 128,-1,17
201 251 m 128,-1,25
 201 159 201 159 257.5 159 c 128,-1,26
 314 159 314 159 314 251 c 128,-1,27
 314 343 314 343 257.5 343 c 128,-1,24
 201 343 201 343 201 251 c 128,-1,25
EndSplineSet
EndChar

StartChar: divide
Encoding: 247 247 183
Width: 611
GlyphClass: 2
Flags: W
LayerCount: 2
Fore
SplineSet
374 93 m 2,0,1
 374 88 374 88 300.5 88 c 128,-1,2
 227 88 227 88 227 92 c 2,3,-1
 227 232 l 2,4,5
 227 239 227 239 300.5 239 c 128,-1,6
 374 239 374 239 374 235 c 2,7,-1
 374 93 l 2,0,1
374 462 m 2,8,9
 374 456 374 456 300.5 456 c 128,-1,10
 227 456 227 456 227 462 c 2,11,-1
 227 602 l 2,12,13
 227 609 227 609 300.5 609 c 128,-1,14
 374 609 374 609 374 605 c 2,15,-1
 374 462 l 2,8,9
527 290 m 2,16,-1
 73 290 l 2,17,18
 52 290 52 290 43 319 c 0,19,20
 38 334 38 334 38 348 c 128,-1,21
 38 362 38 362 43 377 c 0,22,23
 52 406 52 406 73 406 c 2,24,-1
 527 406 l 2,25,26
 548 406 548 406 557 377 c 0,27,28
 562 362 562 362 562 348 c 128,-1,29
 562 334 562 334 557 319 c 0,30,31
 548 290 548 290 527 290 c 2,16,-1
EndSplineSet
EndChar

StartChar: oslash
Encoding: 248 248 184
Width: 513
GlyphClass: 2
Flags: W
LayerCount: 2
Fore
SplineSet
90 56 m 1,0,1
 26 126 26 126 26 249 c 128,-1,2
 26 372 26 372 88.5 441 c 128,-1,3
 151 510 151 510 257 510 c 0,4,5
 300 510 300 510 336 498 c 1,6,-1
 366 551 l 2,7,8
 372 563 372 563 385.5 563 c 128,-1,9
 399 563 399 563 410.5 558 c 128,-1,10
 422 553 422 553 434 544 c 0,11,12
 462 524 462 524 451 502 c 1,13,-1
 420 446 l 1,14,15
 487 377 487 377 487 252.5 c 128,-1,16
 487 128 487 128 425 59 c 128,-1,17
 363 -10 363 -10 257 -10 c 0,18,19
 212 -10 212 -10 175 2 c 1,20,-1
 159 -26 l 1,21,22
 150 -37 150 -37 140 -37 c 0,23,24
 106 -37 106 -37 82 -11 c 0,25,26
 69 2 69 2 69 10.5 c 128,-1,27
 69 19 69 19 73 25 c 2,28,-1
 90 56 l 1,0,1
362 251 m 0,29,30
 362 295 362 295 352 324 c 1,31,-1
 229 101 l 1,32,33
 241 97 241 97 257 97 c 0,34,35
 298 97 298 97 330 132.5 c 128,-1,36
 362 168 362 168 362 251 c 0,29,30
154 251 m 0,37,38
 154 208 154 208 161 183 c 1,39,-1
 283 401 l 1,40,41
 272 405 272 405 257 405 c 0,42,43
 216 405 216 405 185 370 c 128,-1,44
 154 335 154 335 154 251 c 0,37,38
EndSplineSet
EndChar

StartChar: ugrave
Encoding: 249 249 185
Width: 544
GlyphClass: 2
Flags: W
LayerCount: 2
Fore
SplineSet
177 605 m 1,1,2
 172 610 172 610 172 619 c 0,3,4
 172 652 172 652 191 681.5 c 128,-1,5
 210 711 210 711 220 711 c 0,6,7
 223 711 223 711 386 621 c 1,8,9
 392 615 392 615 392 607 c 0,10,11
 392 577 392 577 376 553 c 128,-1,12
 360 529 360 529 351 529 c 0,13,0
 349 529 349 529 177 605 c 1,1,2
40 494 m 2,14,15
 40 505 40 505 126 505 c 128,-1,16
 212 505 212 505 212 494 c 2,17,-1
 212 202 l 2,18,19
 212 152 212 152 244 152 c 0,20,21
 268 152 268 152 298 173 c 1,22,-1
 298 494 l 2,23,24
 298 504 298 504 383 504 c 128,-1,25
 468 504 468 504 468 494 c 2,26,-1
 468 166 l 1,27,-1
 494 166 l 2,28,29
 528 166 528 166 528 101 c 0,30,31
 528 68 528 68 514 34 c 1,32,33
 494 -10 494 -10 460 -10 c 0,34,35
 393 -10 393 -10 361 45 c 1,36,-1
 360 44 l 1,37,38
 299 -10 299 -10 229 -10 c 0,39,40
 132 -10 132 -10 86 38.5 c 128,-1,41
 40 87 40 87 40 199 c 2,42,-1
 40 494 l 2,14,15
EndSplineSet
EndChar

StartChar: uacute
Encoding: 250 250 186
Width: 544
GlyphClass: 2
Flags: W
LayerCount: 2
Fore
SplineSet
40 494 m 2,0,1
 40 505 40 505 126 505 c 128,-1,2
 212 505 212 505 212 494 c 2,3,-1
 212 202 l 2,4,5
 212 152 212 152 244 152 c 0,6,7
 268 152 268 152 298 173 c 1,8,-1
 298 494 l 2,9,10
 298 504 298 504 383 504 c 128,-1,11
 468 504 468 504 468 494 c 2,12,-1
 468 166 l 1,13,-1
 494 166 l 2,14,15
 528 166 528 166 528 101 c 0,16,17
 528 68 528 68 514 34 c 1,18,19
 494 -10 494 -10 460 -10 c 0,20,21
 393 -10 393 -10 361 45 c 1,22,-1
 360 44 l 1,23,24
 299 -10 299 -10 229 -10 c 0,25,26
 132 -10 132 -10 86 38.5 c 128,-1,27
 40 87 40 87 40 199 c 2,28,-1
 40 494 l 2,0,1
213 529 m 0,29,30
 204 529 204 529 190 549 c 0,31,32
 172 577 172 577 172 596 c 128,-1,33
 172 615 172 615 178 621 c 1,34,35
 341 711 341 711 344 711 c 0,36,37
 354 711 354 711 369 687 c 0,38,39
 392 652 392 652 392 621 c 0,40,41
 392 610 392 610 387 605 c 1,42,43
 215 529 215 529 213 529 c 0,29,30
EndSplineSet
EndChar

StartChar: ucircumflex
Encoding: 251 251 187
Width: 544
GlyphClass: 2
Flags: W
LayerCount: 2
Fore
SplineSet
125 524 m 0,0,1
 116 524 116 524 101 546 c 0,2,3
 81 576 81 576 81 596 c 128,-1,4
 81 616 81 616 87 621 c 1,5,-1
 241 705 l 2,6,7
 248 709 248 709 252 709 c 128,-1,8
 256 709 256 709 263 705 c 2,9,-1
 417 621 l 1,10,11
 423 616 423 616 423 607 c 0,12,13
 423 576 423 576 406 550 c 128,-1,14
 389 524 389 524 380 524 c 0,15,16
 378 524 378 524 252 598 c 1,17,18
 127 524 127 524 125 524 c 0,0,1
40 494 m 2,19,20
 40 505 40 505 126 505 c 128,-1,21
 212 505 212 505 212 494 c 2,22,-1
 212 202 l 2,23,24
 212 152 212 152 244 152 c 0,25,26
 268 152 268 152 298 173 c 1,27,-1
 298 494 l 2,28,29
 298 504 298 504 383 504 c 128,-1,30
 468 504 468 504 468 494 c 2,31,-1
 468 166 l 1,32,-1
 494 166 l 2,33,34
 528 166 528 166 528 101 c 0,35,36
 528 68 528 68 514 34 c 1,37,38
 494 -10 494 -10 460 -10 c 0,39,40
 393 -10 393 -10 361 45 c 1,41,-1
 360 44 l 1,42,43
 299 -10 299 -10 229 -10 c 0,44,45
 132 -10 132 -10 86 38.5 c 128,-1,46
 40 87 40 87 40 199 c 2,47,-1
 40 494 l 2,19,20
EndSplineSet
EndChar

StartChar: udieresis
Encoding: 252 252 188
Width: 544
GlyphClass: 2
Flags: W
LayerCount: 2
Fore
SplineSet
211 552 m 2,0,1
 211 546 211 546 141.5 546 c 128,-1,2
 72 546 72 546 72 551 c 2,3,-1
 72 691 l 2,4,5
 72 700 72 700 141.5 700 c 128,-1,6
 211 700 211 700 211 695 c 2,7,-1
 211 552 l 2,0,1
441 552 m 2,8,9
 441 546 441 546 371.5 546 c 128,-1,10
 302 546 302 546 302 551 c 2,11,-1
 302 691 l 2,12,13
 302 700 302 700 371.5 700 c 128,-1,14
 441 700 441 700 441 695 c 2,15,-1
 441 552 l 2,8,9
40 494 m 2,16,17
 40 505 40 505 126 505 c 128,-1,18
 212 505 212 505 212 494 c 2,19,-1
 212 202 l 2,20,21
 212 152 212 152 244 152 c 0,22,23
 268 152 268 152 298 173 c 1,24,-1
 298 494 l 2,25,26
 298 504 298 504 383 504 c 128,-1,27
 468 504 468 504 468 494 c 2,28,-1
 468 166 l 1,29,-1
 494 166 l 2,30,31
 528 166 528 166 528 101 c 0,32,33
 528 68 528 68 514 34 c 1,34,35
 494 -10 494 -10 460 -10 c 0,36,37
 393 -10 393 -10 361 45 c 1,38,-1
 360 44 l 1,39,40
 299 -10 299 -10 229 -10 c 0,41,42
 132 -10 132 -10 86 38.5 c 128,-1,43
 40 87 40 87 40 199 c 2,44,-1
 40 494 l 2,16,17
EndSplineSet
EndChar

StartChar: yacute
Encoding: 253 253 189
Width: 537
GlyphClass: 2
Flags: W
LayerCount: 2
Fore
SplineSet
10 495 m 1,0,1
 10 506 10 506 101.5 506 c 128,-1,2
 193 506 193 506 196 496 c 2,3,-1
 264 266 l 1,4,-1
 331 497 l 1,5,6
 335 505 335 505 396.5 505 c 128,-1,7
 458 505 458 505 494 503 c 128,-1,8
 530 501 530 501 526 493 c 1,9,-1
 291 -176 l 1,10,11
 290 -182 290 -182 236.5 -182 c 128,-1,12
 183 -182 183 -182 137 -178.5 c 128,-1,13
 91 -175 91 -175 93 -170 c 2,14,-1
 180 40 l 1,15,-1
 10 495 l 1,0,1
193 529 m 0,16,17
 184 529 184 529 170 549 c 0,18,19
 152 577 152 577 152 596 c 128,-1,20
 152 615 152 615 158 621 c 1,21,22
 321 711 321 711 324 711 c 0,23,24
 334 711 334 711 349 687 c 0,25,26
 372 652 372 652 372 621 c 0,27,28
 372 610 372 610 367 605 c 1,29,30
 195 529 195 529 193 529 c 0,16,17
EndSplineSet
EndChar

StartChar: thorn
Encoding: 254 254 190
Width: 628
GlyphClass: 2
Flags: W
LayerCount: 2
Fore
SplineSet
326 510 m 0,0,1
 536 510 536 510 536 269 c 0,2,3
 536 139 536 139 472.5 69.5 c 128,-1,4
 409 0 409 0 298 0 c 0,5,6
 286 0 286 0 264 2 c 1,7,-1
 264 -165 l 2,8,9
 264 -191 264 -191 181 -191 c 0,10,11
 145 -191 145 -191 118.5 -184 c 128,-1,12
 92 -177 92 -177 92 -165 c 2,13,-1
 92 697 l 2,14,15
 92 709 92 709 178.5 709 c 128,-1,16
 265 709 265 709 265 696 c 2,17,-1
 265 502 l 1,18,19
 308 510 308 510 326 510 c 0,0,1
354 251 m 0,20,21
 354 355 354 355 300 355 c 0,22,23
 282 355 282 355 265 343 c 1,24,-1
 265 152 l 1,25,26
 281 145 281 145 293 145 c 0,27,28
 318 145 318 145 336 170 c 128,-1,29
 354 195 354 195 354 251 c 0,20,21
EndSplineSet
EndChar

StartChar: ydieresis
Encoding: 255 255 191
Width: 524
GlyphClass: 2
Flags: W
LayerCount: 2
Fore
SplineSet
10 495 m 1,0,1
 10 506 10 506 101.5 506 c 128,-1,2
 193 506 193 506 196 496 c 2,3,-1
 264 266 l 1,4,-1
 331 497 l 1,5,6
 335 505 335 505 396.5 505 c 128,-1,7
 458 505 458 505 494 503 c 128,-1,8
 530 501 530 501 526 493 c 1,9,-1
 291 -176 l 1,10,11
 290 -182 290 -182 236.5 -182 c 128,-1,12
 183 -182 183 -182 137 -178.5 c 128,-1,13
 91 -175 91 -175 93 -170 c 2,14,-1
 180 40 l 1,15,-1
 10 495 l 1,0,1
216 552 m 2,16,17
 216 546 216 546 146.5 546 c 128,-1,18
 77 546 77 546 77 551 c 2,19,-1
 77 691 l 2,20,21
 77 700 77 700 146.5 700 c 128,-1,22
 216 700 216 700 216 695 c 2,23,-1
 216 552 l 2,16,17
446 552 m 2,24,25
 446 546 446 546 376.5 546 c 128,-1,26
 307 546 307 546 307 551 c 2,27,-1
 307 691 l 2,28,29
 307 700 307 700 376.5 700 c 128,-1,30
 446 700 446 700 446 695 c 2,31,-1
 446 552 l 2,24,25
EndSplineSet
EndChar

StartChar: dotlessi
Encoding: 305 305 192
Width: 249
GlyphClass: 2
Flags: W
LayerCount: 2
Fore
SplineSet
215 6 m 2,0,1
 215 -2 215 -2 126.5 -2 c 128,-1,2
 38 -2 38 -2 38 5 c 2,3,-1
 38 480 l 2,4,5
 38 486 38 486 126.5 486 c 128,-1,6
 215 486 215 486 215 481 c 2,7,-1
 215 6 l 2,0,1
EndSplineSet
EndChar

StartChar: Lslash
Encoding: 321 321 193
Width: 469
GlyphClass: 2
Flags: W
LayerCount: 2
Fore
SplineSet
68 26 m 2,0,-1
 68 292 l 1,1,-1
 35 292 l 2,2,3
 17 292 17 292 9 321 c 0,4,5
 5 336 5 336 5 350 c 128,-1,6
 5 364 5 364 9 379 c 0,7,8
 17 408 17 408 35 408 c 2,9,-1
 68 408 l 1,10,-1
 68 685 l 2,11,12
 68 701 68 701 118 707 c 0,13,14
 143 710 143 710 167 710 c 1,15,-1
 220 706 l 1,16,17
 270 700 270 700 270 685 c 2,18,-1
 270 408 l 1,19,-1
 366 408 l 2,20,21
 384 408 384 408 392 379 c 0,22,23
 396 364 396 364 396 350 c 128,-1,24
 396 336 396 336 392 321 c 0,25,26
 384 292 384 292 366 292 c 2,27,-1
 270 292 l 1,28,-1
 270 167 l 1,29,-1
 422 167 l 2,30,31
 440 167 440 167 448 126 c 0,32,33
 452 103 452 103 452 82.5 c 128,-1,34
 452 62 452 62 448 42 c 1,35,36
 442 0 442 0 424 0 c 2,37,-1
 92 0 l 2,38,39
 76 0 76 0 72 6 c 128,-1,40
 68 12 68 12 68 26 c 2,0,-1
EndSplineSet
EndChar

StartChar: lslash
Encoding: 322 322 194
Width: 381
GlyphClass: 2
Flags: W
LayerCount: 2
Fore
SplineSet
277 8 m 2,0,1
 277 -1 277 -1 175 -1 c 1,2,3
 95 0 95 0 95 7 c 2,4,-1
 95 218 l 1,5,-1
 35 218 l 2,6,7
 17 218 17 218 9 247 c 0,8,9
 5 262 5 262 5 276 c 128,-1,10
 5 290 5 290 9 305 c 0,11,12
 17 334 17 334 35 334 c 2,13,-1
 95 334 l 1,14,-1
 95 688 l 2,15,16
 95 703 95 703 192 703 c 1,17,18
 277 700 277 700 277 693 c 2,19,-1
 277 334 l 1,20,-1
 340 334 l 2,21,22
 358 334 358 334 366 305 c 0,23,24
 370 290 370 290 370 276 c 128,-1,25
 370 262 370 262 366 247 c 0,26,27
 358 218 358 218 340 218 c 2,28,-1
 277 218 l 1,29,-1
 277 8 l 2,0,1
EndSplineSet
EndChar

StartChar: OE
Encoding: 338 338 195
Width: 877
GlyphClass: 2
Flags: W
LayerCount: 2
Fore
SplineSet
735 424 m 2,0,1
 754 424 754 424 754 354 c 0,2,3
 754 333 754 333 749.5 304.5 c 128,-1,4
 745 276 745 276 733 276 c 2,5,-1
 604 276 l 1,6,-1
 604 176 l 1,7,-1
 790 176 l 2,8,9
 807 176 807 176 813 132 c 0,10,11
 816 112 816 112 816 90 c 128,-1,12
 816 68 816 68 810 34 c 128,-1,13
 804 0 804 0 790 0 c 2,14,-1
 441 0 l 1,15,16
 399 -14 399 -14 345 -14 c 0,17,18
 208 -14 208 -14 119 79 c 128,-1,19
 30 172 30 172 30 349.5 c 128,-1,20
 30 527 30 527 120.5 619 c 128,-1,21
 211 711 211 711 349 711 c 0,22,23
 397 711 397 711 440 700 c 1,24,-1
 791 700 l 2,25,26
 812 700 812 700 812 611 c 128,-1,27
 812 522 812 522 791 522 c 2,28,-1
 604 522 l 1,29,-1
 604 424 l 1,30,-1
 735 424 l 2,0,1
269 473 m 128,-1,32
 236 429 236 429 236 349 c 128,-1,33
 236 269 236 269 267.5 226 c 128,-1,34
 299 183 299 183 350 183 c 128,-1,35
 401 183 401 183 432.5 226 c 128,-1,36
 464 269 464 269 464 349.5 c 128,-1,37
 464 430 464 430 431.5 473.5 c 128,-1,38
 399 517 399 517 350.5 517 c 128,-1,31
 302 517 302 517 269 473 c 128,-1,32
EndSplineSet
EndChar

StartChar: oe
Encoding: 339 339 196
Width: 774
GlyphClass: 2
Flags: W
LayerCount: 2
Fore
SplineSet
26 250 m 128,-1,1
 26 372 26 372 88.5 441 c 128,-1,2
 151 510 151 510 248.5 510 c 128,-1,3
 346 510 346 510 405 461 c 1,4,5
 467 510 467 510 556 510 c 128,-1,6
 645 510 645 510 699.5 459 c 128,-1,7
 754 408 754 408 754 335 c 0,8,9
 754 173 754 173 568 173 c 2,10,-1
 499 173 l 1,11,12
 499 143 499 143 515.5 131.5 c 128,-1,13
 532 120 532 120 564 120 c 0,14,15
 634 120 634 120 697 152 c 0,16,17
 698 153 698 153 706 138 c 0,18,19
 730 95 730 95 730 65.5 c 128,-1,20
 730 36 730 36 711 27 c 1,21,22
 648 -10 648 -10 556 -10 c 128,-1,23
 464 -10 464 -10 403 38 c 1,24,25
 346 -10 346 -10 248.5 -10 c 128,-1,26
 151 -10 151 -10 88.5 59 c 128,-1,0
 26 128 26 128 26 250 c 128,-1,1
201 251 m 128,-1,28
 201 159 201 159 257.5 159 c 128,-1,29
 314 159 314 159 314 250 c 0,30,31
 314 301 314 301 297 322 c 128,-1,32
 280 343 280 343 257 343 c 0,33,27
 201 343 201 343 201 251 c 128,-1,28
586 316 m 0,34,35
 586 358 586 358 545 358 c 0,36,37
 526 358 526 358 512.5 346.5 c 128,-1,38
 499 335 499 335 499 313 c 2,39,-1
 499 282 l 1,40,-1
 553 282 l 2,41,42
 586 282 586 282 586 316 c 0,34,35
EndSplineSet
EndChar

StartChar: Scaron
Encoding: 352 352 197
Width: 536
GlyphClass: 2
Flags: W
LayerCount: 2
Fore
SplineSet
76 244 m 1,0,1
 95 229 95 229 141.5 203 c 128,-1,2
 188 177 188 177 230.5 177 c 128,-1,3
 273 177 273 177 273 210 c 0,4,5
 273 225 273 225 261 236.5 c 128,-1,6
 249 248 249 248 217 263 c 128,-1,7
 185 278 185 278 169 286.5 c 128,-1,8
 153 295 153 295 126.5 314.5 c 128,-1,9
 100 334 100 334 86 355 c 0,10,11
 46 412 46 412 46 500 c 128,-1,12
 46 588 46 588 111.5 648.5 c 128,-1,13
 177 709 177 709 283 709 c 0,14,15
 355 709 355 709 416 693.5 c 128,-1,16
 477 678 477 678 479 653 c 0,17,18
 479 650 479 650 479 647 c 0,19,20
 479 612 479 612 457 558.5 c 128,-1,21
 435 505 435 505 426 499 c 1,22,23
 362 532 362 532 311.5 532 c 128,-1,24
 261 532 261 532 261 496 c 0,25,26
 261 474 261 474 298 457 c 0,27,28
 306 453 306 453 321 446 c 128,-1,29
 336 439 336 439 355.5 429.5 c 128,-1,30
 375 420 375 420 397.5 405.5 c 128,-1,31
 420 391 420 391 446 367 c 0,32,33
 499 317 499 317 499 235 c 0,34,35
 499 128 499 128 440 60 c 128,-1,36
 381 -8 381 -8 258 -10 c 0,37,38
 198 -10 198 -10 149.5 0 c 128,-1,39
 101 10 101 10 65 39 c 128,-1,40
 29 68 29 68 29 109 c 128,-1,41
 29 150 29 150 44 190.5 c 128,-1,42
 59 231 59 231 76 244 c 1,0,1
392 919 m 0,43,44
 401 919 401 919 416 897 c 0,45,46
 436 867 436 867 436 847 c 128,-1,47
 436 827 436 827 430 822 c 1,48,-1
 276 738 l 2,49,50
 269 734 269 734 265 734 c 128,-1,51
 261 734 261 734 254 738 c 2,52,-1
 100 822 l 1,53,54
 94 827 94 827 94 836 c 0,55,56
 94 867 94 867 111 893 c 128,-1,57
 128 919 128 919 137 919 c 0,58,59
 139 919 139 919 265 845 c 1,60,61
 390 919 390 919 392 919 c 0,43,44
EndSplineSet
EndChar

StartChar: scaron
Encoding: 353 353 198
Width: 450
GlyphClass: 2
Flags: W
LayerCount: 2
Fore
SplineSet
66 180 m 1,0,1
 147 131 147 131 194 131 c 0,2,3
 224 131 224 131 224 152 c 0,4,5
 224 167 224 167 172 191 c 1,6,7
 47 242 47 242 47 358 c 0,8,9
 47 432 47 432 101 471 c 128,-1,10
 155 510 155 510 230.5 510 c 128,-1,11
 306 510 306 510 358.5 494 c 128,-1,12
 411 478 411 478 411 452 c 0,13,14
 411 430 411 430 389.5 394 c 128,-1,15
 368 358 368 358 360 355 c 1,16,17
 317 379 317 379 267 379 c 0,18,19
 240 379 240 379 240 360 c 0,20,21
 240 348 240 348 250.5 339.5 c 128,-1,22
 261 331 261 331 289 318.5 c 128,-1,23
 317 306 317 306 335.5 296 c 128,-1,24
 354 286 354 286 377 268 c 0,25,26
 425 230 425 230 425 169 c 0,27,28
 425 89 425 89 372 39.5 c 128,-1,29
 319 -10 319 -10 212 -10 c 0,30,31
 141 -10 141 -10 83 14 c 128,-1,32
 25 38 25 38 25 80 c 0,33,34
 25 108 25 108 38.5 139 c 128,-1,35
 52 170 52 170 66 180 c 1,0,1
352 709 m 0,36,37
 361 709 361 709 376 687 c 0,38,39
 396 657 396 657 396 637 c 128,-1,40
 396 617 396 617 390 612 c 1,41,-1
 236 528 l 2,42,43
 229 524 229 524 225 524 c 128,-1,44
 221 524 221 524 214 528 c 2,45,-1
 60 612 l 1,46,47
 54 617 54 617 54 626 c 0,48,49
 54 657 54 657 71 683 c 128,-1,50
 88 709 88 709 97 709 c 0,51,52
 99 709 99 709 225 635 c 1,53,54
 350 709 350 709 352 709 c 0,36,37
EndSplineSet
EndChar

StartChar: Ydieresis
Encoding: 376 376 199
Width: 615
GlyphClass: 2
Flags: W
LayerCount: 2
Fore
SplineSet
398 674 m 2,0,1
 411 709 411 709 526 709 c 0,2,3
 555 709 555 709 594.5 705 c 128,-1,4
 634 701 634 701 631 695 c 2,5,-1
 423 250 l 1,6,-1
 423 18 l 2,7,8
 423 1 423 1 368 -6 c 0,9,10
 340 -10 340 -10 313 -10 c 128,-1,11
 286 -10 286 -10 259 -7 c 0,12,13
 204 0 204 0 204 18 c 2,14,-1
 204 244 l 1,15,-1
 -11 693 l 1,16,17
 -15 699 -15 699 30 704.5 c 128,-1,18
 75 710 75 710 106 710 c 0,19,20
 229 710 229 710 241 674 c 2,21,-1
 314 456 l 1,22,-1
 398 674 l 2,0,1
262 752 m 2,23,24
 262 746 262 746 192.5 746 c 128,-1,25
 123 746 123 746 123 751 c 2,26,-1
 123 891 l 2,27,28
 123 900 123 900 192.5 900 c 128,-1,29
 262 900 262 900 262 895 c 2,30,-1
 262 752 l 2,23,24
492 752 m 2,31,32
 492 746 492 746 422.5 746 c 128,-1,33
 353 746 353 746 353 751 c 2,34,-1
 353 891 l 2,35,36
 353 900 353 900 422.5 900 c 128,-1,37
 492 900 492 900 492 895 c 2,38,-1
 492 752 l 2,31,32
EndSplineSet
EndChar

StartChar: Zcaron
Encoding: 381 381 200
Width: 563
GlyphClass: 2
Flags: W
LayerCount: 2
Fore
SplineSet
76 518 m 2,0,1
 59 518 59 518 52 564 c 0,2,3
 49 583 49 583 49 606 c 128,-1,4
 49 629 49 629 54 654 c 0,5,6
 63 700 63 700 84 700 c 2,7,-1
 473 700 l 2,8,9
 489 700 489 700 513.5 634.5 c 128,-1,10
 538 569 538 569 538 562 c 128,-1,11
 538 555 538 555 537 554 c 2,12,-1
 303 199 l 1,13,-1
 486 199 l 2,14,15
 487 199 487 199 488 199 c 0,16,17
 510 199 510 199 519 151 c 0,18,19
 523 128 523 128 523 103 c 128,-1,20
 523 78 523 78 517 50 c 0,21,22
 506 0 506 0 483 0 c 2,23,-1
 94 0 l 2,24,25
 85 0 85 0 61.5 60.5 c 128,-1,26
 38 121 38 121 38 136 c 128,-1,27
 38 151 38 151 41 155 c 2,28,-1
 275 518 l 1,29,-1
 76 518 l 2,0,1
407 909 m 0,30,31
 416 909 416 909 431 887 c 0,32,33
 451 857 451 857 451 837 c 128,-1,34
 451 817 451 817 445 812 c 1,35,-1
 291 728 l 2,36,37
 284 724 284 724 280 724 c 128,-1,38
 276 724 276 724 269 728 c 2,39,-1
 115 812 l 1,40,41
 109 817 109 817 109 826 c 0,42,43
 109 857 109 857 126 883 c 128,-1,44
 143 909 143 909 152 909 c 0,45,46
 154 909 154 909 280 835 c 1,47,48
 405 909 405 909 407 909 c 0,30,31
EndSplineSet
EndChar

StartChar: zcaron
Encoding: 382 382 201
Width: 454
GlyphClass: 2
Flags: W
LayerCount: 2
Fore
SplineSet
43 340 m 2,0,1
 36 340 36 340 36 383 c 0,2,3
 36 500 36 500 55 500 c 2,4,-1
 374 500 l 2,5,6
 381 500 381 500 405 456 c 128,-1,7
 429 412 429 412 429 406.5 c 128,-1,8
 429 401 429 401 428 400 c 2,9,-1
 234 156 l 1,10,-1
 408 168 l 1,11,12
 424 168 424 168 424 97 c 0,13,14
 424 70 424 70 419 35 c 128,-1,15
 414 0 414 0 402 0 c 2,16,-1
 82 0 l 2,17,18
 67 0 67 0 46 50 c 128,-1,19
 25 100 25 100 25 110.5 c 128,-1,20
 25 121 25 121 27 123 c 2,21,-1
 218 346 l 1,22,-1
 43 340 l 2,0,1
355 709 m 0,23,24
 364 709 364 709 379 687 c 0,25,26
 399 657 399 657 399 637 c 128,-1,27
 399 617 399 617 393 612 c 1,28,-1
 239 528 l 2,29,30
 232 524 232 524 228 524 c 128,-1,31
 224 524 224 524 217 528 c 2,32,-1
 63 612 l 1,33,34
 57 617 57 617 57 626 c 0,35,36
 57 657 57 657 74 683 c 128,-1,37
 91 709 91 709 100 709 c 0,38,39
 102 709 102 709 228 635 c 1,40,41
 353 709 353 709 355 709 c 0,23,24
EndSplineSet
EndChar

StartChar: florin
Encoding: 402 402 202
Width: 422
GlyphClass: 2
Flags: W
LayerCount: 2
Fore
SplineSet
376 500 m 2,0,1
 387 500 387 500 387 466 c 0,2,3
 387 416 387 416 370 380 c 0,4,5
 364 366 364 366 357 366 c 2,6,-1
 283 366 l 1,7,-1
 245 -18 l 1,8,9
 221 -195 221 -195 37 -195 c 0,10,11
 -16 -195 -16 -195 -53 -182 c 128,-1,12
 -90 -169 -90 -169 -90 -143 c 128,-1,13
 -90 -117 -90 -117 -72 -84 c 128,-1,14
 -54 -51 -54 -51 -45 -38 c 1,15,16
 -13 -59 -13 -59 34 -59 c 0,17,18
 74 -59 74 -59 79 -7 c 2,19,-1
 116 367 l 1,20,-1
 47 367 l 2,21,22
 36 367 36 367 36 398 c 0,23,24
 36 418 36 418 41 445 c 0,25,26
 51 500 51 500 61 500 c 2,27,-1
 130 500 l 1,28,-1
 133 522 l 1,29,30
 144 627 144 627 191.5 668 c 128,-1,31
 239 709 239 709 319 709 c 0,32,33
 363 709 363 709 412.5 696.5 c 128,-1,34
 462 684 462 684 462 658 c 0,35,36
 462 637 462 637 446 610.5 c 128,-1,37
 430 584 430 584 414 567 c 128,-1,38
 398 550 398 550 398 552 c 1,39,40
 366 573 366 573 329.5 573 c 128,-1,41
 293 573 293 573 286 521 c 2,42,-1
 283 500 l 1,43,-1
 376 500 l 2,0,1
EndSplineSet
EndChar

StartChar: circumflex
Encoding: 710 710 203
Width: 480
GlyphClass: 2
Flags: W
LayerCount: 2
Fore
SplineSet
116 524 m 0,0,1
 107 524 107 524 92 546 c 0,2,3
 72 576 72 576 72 596 c 128,-1,4
 72 616 72 616 78 621 c 1,5,-1
 232 705 l 2,6,7
 239 709 239 709 243 709 c 128,-1,8
 247 709 247 709 254 705 c 2,9,-1
 408 621 l 1,10,11
 414 616 414 616 414 607 c 0,12,13
 414 576 414 576 397 550 c 128,-1,14
 380 524 380 524 371 524 c 0,15,16
 369 524 369 524 243 598 c 1,17,18
 118 524 118 524 116 524 c 0,0,1
EndSplineSet
EndChar

StartChar: caron
Encoding: 711 711 204
Width: 483
GlyphClass: 2
Flags: W
LayerCount: 2
Fore
SplineSet
370 709 m 0,0,1
 379 709 379 709 394 687 c 0,2,3
 414 657 414 657 414 637 c 128,-1,4
 414 617 414 617 408 612 c 1,5,-1
 254 528 l 2,6,7
 247 524 247 524 243 524 c 128,-1,8
 239 524 239 524 232 528 c 2,9,-1
 78 612 l 1,10,11
 72 617 72 617 72 626 c 0,12,13
 72 657 72 657 89 683 c 128,-1,14
 106 709 106 709 115 709 c 0,15,16
 117 709 117 709 243 635 c 1,17,18
 368 709 368 709 370 709 c 0,0,1
EndSplineSet
EndChar

StartChar: ring
Encoding: 730 730 205
Width: 396
GlyphClass: 2
Flags: W
LayerCount: 2
Fore
SplineSet
112 619 m 128,-1,1
 112 657 112 657 138 683 c 128,-1,2
 164 709 164 709 202 709 c 128,-1,3
 240 709 240 709 266 683 c 128,-1,4
 292 657 292 657 292 619 c 128,-1,5
 292 581 292 581 266 555 c 128,-1,6
 240 529 240 529 202 529 c 128,-1,7
 164 529 164 529 138 555 c 128,-1,0
 112 581 112 581 112 619 c 128,-1,1
143 620 m 128,-1,9
 143 595 143 595 160.5 577.5 c 128,-1,10
 178 560 178 560 203 560 c 128,-1,11
 228 560 228 560 245.5 577.5 c 128,-1,12
 263 595 263 595 263 620 c 128,-1,13
 263 645 263 645 245.5 662.5 c 128,-1,14
 228 680 228 680 203 680 c 128,-1,15
 178 680 178 680 160.5 662.5 c 128,-1,8
 143 645 143 645 143 620 c 128,-1,9
EndSplineSet
EndChar

StartChar: tilde
Encoding: 732 732 206
Width: 440
GlyphClass: 2
Flags: W
LayerCount: 2
Fore
SplineSet
74 553 m 1,0,1
 55 558 55 558 38.5 587 c 128,-1,2
 22 616 22 616 22 625 c 128,-1,3
 22 634 22 634 25 637 c 0,4,5
 88 700 88 700 155 700 c 0,6,7
 186 700 186 700 225 681.5 c 128,-1,8
 264 663 264 663 285 663 c 0,9,10
 322 664 322 664 354 702 c 0,11,12
 356 703 356 703 359 703 c 0,13,14
 371 703 371 703 392 675 c 128,-1,15
 413 647 413 647 413 637 c 0,16,17
 413 608 413 608 366 576 c 0,18,19
 334 554 334 554 305 554 c 0,20,21
 301 554 301 554 298 554 c 0,22,23
 260 554 260 554 214 574 c 128,-1,24
 168 594 168 594 157.5 594 c 128,-1,25
 147 594 147 594 140 592 c 128,-1,26
 133 590 133 590 127.5 588.5 c 128,-1,27
 122 587 122 587 114.5 582 c 128,-1,28
 107 577 107 577 103 574.5 c 128,-1,29
 99 572 99 572 89 564 c 128,-1,30
 79 556 79 556 74 553 c 1,0,1
EndSplineSet
EndChar

StartChar: endash
Encoding: 8211 8211 207
Width: 469
GlyphClass: 2
Flags: W
LayerCount: 2
Fore
SplineSet
392 190 m 2,0,-1
 77 190 l 2,1,2
 59 190 59 190 51 219 c 0,3,4
 47 234 47 234 47 248 c 128,-1,5
 47 262 47 262 51 277 c 0,6,7
 59 306 59 306 77 306 c 2,8,-1
 392 306 l 2,9,10
 410 306 410 306 418 277 c 0,11,12
 422 262 422 262 422 248 c 128,-1,13
 422 234 422 234 418 219 c 0,14,15
 410 190 410 190 392 190 c 2,0,-1
EndSplineSet
EndChar

StartChar: emdash
Encoding: 8212 8212 208
Width: 789
GlyphClass: 2
Flags: W
LayerCount: 2
Fore
SplineSet
670 190 m 2,0,-1
 97 190 l 2,1,2
 79 190 79 190 71 219 c 0,3,4
 67 234 67 234 67 248 c 128,-1,5
 67 262 67 262 71 277 c 0,6,7
 79 306 79 306 97 306 c 2,8,-1
 670 306 l 2,9,10
 688 306 688 306 696 277 c 0,11,12
 700 262 700 262 700 248 c 128,-1,13
 700 234 700 234 696 219 c 0,14,15
 688 190 688 190 670 190 c 2,0,-1
EndSplineSet
EndChar

StartChar: quoteleft
Encoding: 8216 8216 209
Width: 341
GlyphClass: 2
Flags: W
LayerCount: 2
Fore
SplineSet
89 469 m 2,0,-1
 89 680 l 2,1,2
 89 699 89 699 115 706 c 0,3,4
 128 709 128 709 141.5 709 c 128,-1,5
 155 709 155 709 176 703.5 c 128,-1,6
 197 698 197 698 202 680 c 2,7,-1
 262 469 l 1,8,9
 262 451 262 451 219 443 c 0,10,11
 198 439 198 439 176 439 c 128,-1,12
 154 439 154 439 132 443 c 0,13,14
 89 451 89 451 89 469 c 2,0,-1
EndSplineSet
EndChar

StartChar: quoteright
Encoding: 8217 8217 210
Width: 314
GlyphClass: 2
Flags: W
LayerCount: 2
Fore
SplineSet
126 440 m 128,-1,1
 112 440 112 440 98 444 c 0,2,3
 70 452 70 452 70 470 c 2,4,-1
 70 681 l 2,5,6
 70 699 70 699 113 707 c 0,7,8
 134 711 134 711 156 711 c 128,-1,9
 178 711 178 711 200 707 c 0,10,11
 243 699 243 699 243 681 c 1,12,-1
 183 470 l 1,13,14
 183 452 183 452 154 444 c 0,15,0
 140 440 140 440 126 440 c 128,-1,1
EndSplineSet
EndChar

StartChar: quotesinglbase
Encoding: 8218 8218 211
Width: 368
GlyphClass: 2
Flags: W
LayerCount: 2
Fore
SplineSet
120 148 m 1,0,1
 126 164 126 164 205 164 c 128,-1,2
 284 164 284 164 284 143 c 2,3,-1
 282 58 l 1,4,-1
 224 -78 l 2,5,6
 211 -107 211 -107 143.5 -107 c 128,-1,7
 76 -107 76 -107 58 -85 c 0,8,9
 54 -80 54 -80 54 -75.5 c 128,-1,10
 54 -71 54 -71 55 -67 c 2,11,-1
 116 57 l 1,12,-1
 120 148 l 1,0,1
EndSplineSet
EndChar

StartChar: quotedblleft
Encoding: 8220 8220 212
Width: 564
GlyphClass: 2
Flags: W
LayerCount: 2
Fore
SplineSet
89 469 m 2,0,-1
 89 680 l 2,1,2
 89 699 89 699 115 706 c 0,3,4
 128 709 128 709 141.5 709 c 128,-1,5
 155 709 155 709 176 703.5 c 128,-1,6
 197 698 197 698 202 680 c 2,7,-1
 262 469 l 1,8,9
 262 451 262 451 219 443 c 0,10,11
 198 439 198 439 176 439 c 128,-1,12
 154 439 154 439 132 443 c 0,13,14
 89 451 89 451 89 469 c 2,0,-1
319 469 m 2,15,-1
 319 680 l 2,16,17
 319 699 319 699 345 706 c 0,18,19
 358 709 358 709 371.5 709 c 128,-1,20
 385 709 385 709 406 703.5 c 128,-1,21
 427 698 427 698 432 680 c 2,22,-1
 492 469 l 1,23,24
 492 451 492 451 449 443 c 0,25,26
 428 439 428 439 406 439 c 128,-1,27
 384 439 384 439 362 443 c 0,28,29
 319 451 319 451 319 469 c 2,15,-1
EndSplineSet
EndChar

StartChar: quotedblright
Encoding: 8221 8221 213
Width: 530
GlyphClass: 2
Flags: W
LayerCount: 2
Fore
SplineSet
183 469 m 2,0,1
 178 451 178 451 157 445.5 c 128,-1,2
 136 440 136 440 122.5 440 c 128,-1,3
 109 440 109 440 96 443 c 0,4,5
 70 450 70 450 70 469 c 2,6,-1
 70 680 l 2,7,8
 70 698 70 698 113 706 c 0,9,10
 134 710 134 710 156 710 c 128,-1,11
 178 710 178 710 200 706 c 0,12,13
 243 698 243 698 243 680 c 1,14,-1
 183 469 l 2,0,1
409 469 m 2,15,16
 404 451 404 451 383 445.5 c 128,-1,17
 362 440 362 440 348.5 440 c 128,-1,18
 335 440 335 440 322 443 c 0,19,20
 296 450 296 450 296 469 c 2,21,-1
 296 680 l 2,22,23
 296 698 296 698 339 706 c 0,24,25
 360 710 360 710 382 710 c 128,-1,26
 404 710 404 710 426 706 c 0,27,28
 469 698 469 698 469 680 c 1,29,-1
 409 469 l 2,15,16
EndSplineSet
EndChar

StartChar: quotedblbase
Encoding: 8222 8222 214
Width: 651
GlyphClass: 2
Flags: W
LayerCount: 2
Fore
SplineSet
120 148 m 1,0,1
 126 164 126 164 205 164 c 128,-1,2
 284 164 284 164 284 143 c 2,3,-1
 282 58 l 1,4,-1
 224 -78 l 2,5,6
 211 -107 211 -107 143.5 -107 c 128,-1,7
 76 -107 76 -107 58 -85 c 0,8,9
 54 -80 54 -80 54 -75.5 c 128,-1,10
 54 -71 54 -71 55 -67 c 2,11,-1
 116 57 l 1,12,-1
 120 148 l 1,0,1
390 148 m 1,13,14
 396 164 396 164 475 164 c 128,-1,15
 554 164 554 164 554 143 c 2,16,-1
 552 58 l 1,17,-1
 494 -78 l 2,18,19
 481 -107 481 -107 413.5 -107 c 128,-1,20
 346 -107 346 -107 328 -85 c 0,21,22
 324 -80 324 -80 324 -75.5 c 128,-1,23
 324 -71 324 -71 325 -67 c 2,24,-1
 386 57 l 1,25,-1
 390 148 l 1,13,14
EndSplineSet
EndChar

StartChar: dagger
Encoding: 8224 8224 215
Width: 475
GlyphClass: 2
Flags: W
LayerCount: 2
Fore
SplineSet
298 406 m 1,0,-1
 298 -50 l 2,1,2
 298 -68 298 -68 269 -76 c 0,3,4
 254 -80 254 -80 240 -80 c 1,5,-1
 211 -76 l 1,6,7
 182 -68 182 -68 182 -50 c 2,8,-1
 182 406 l 1,9,-1
 67 406 l 2,10,11
 48 406 48 406 41 435 c 0,12,13
 38 448 38 448 38 462.5 c 128,-1,14
 38 477 38 477 42 493 c 0,15,16
 51 522 51 522 69 522 c 2,17,-1
 182 522 l 1,18,-1
 182 703 l 2,19,20
 182 721 182 721 211 729 c 0,21,22
 226 733 226 733 240 733 c 1,23,-1
 269 729 l 1,24,25
 298 721 298 721 298 703 c 2,26,-1
 298 522 l 1,27,-1
 412 522 l 2,28,29
 431 522 431 522 438 493 c 0,30,31
 441 480 441 480 441 465.5 c 128,-1,32
 441 451 441 451 436 435 c 0,33,34
 428 406 428 406 410 406 c 2,35,-1
 298 406 l 1,0,-1
EndSplineSet
EndChar

StartChar: daggerdbl
Encoding: 8225 8225 216
Width: 480
GlyphClass: 2
Flags: W
LayerCount: 2
Fore
SplineSet
410 116 m 2,0,-1
 298 116 l 1,1,-1
 298 -50 l 2,2,3
 298 -68 298 -68 269 -76 c 0,4,5
 254 -80 254 -80 240 -80 c 1,6,-1
 211 -76 l 1,7,8
 182 -68 182 -68 182 -50 c 2,9,-1
 182 116 l 1,10,-1
 67 116 l 2,11,12
 48 116 48 116 41 145 c 0,13,14
 38 158 38 158 38 172.5 c 128,-1,15
 38 187 38 187 42 203 c 0,16,17
 51 232 51 232 69 232 c 2,18,-1
 182 232 l 1,19,-1
 182 436 l 1,20,-1
 67 436 l 2,21,22
 48 436 48 436 41 465 c 0,23,24
 38 478 38 478 38 492.5 c 128,-1,25
 38 507 38 507 42 523 c 0,26,27
 51 552 51 552 69 552 c 2,28,-1
 182 552 l 1,29,-1
 182 703 l 2,30,31
 182 721 182 721 211 729 c 0,32,33
 226 733 226 733 240 733 c 1,34,-1
 269 729 l 1,35,36
 298 721 298 721 298 703 c 2,37,-1
 298 552 l 1,38,-1
 412 552 l 2,39,40
 431 552 431 552 438 523 c 0,41,42
 441 510 441 510 441 495.5 c 128,-1,43
 441 481 441 481 436 465 c 0,44,45
 428 436 428 436 410 436 c 2,46,-1
 298 436 l 1,47,-1
 298 232 l 1,48,-1
 412 232 l 2,49,50
 431 232 431 232 438 203 c 0,51,52
 441 190 441 190 441 175.5 c 128,-1,53
 441 161 441 161 436 145 c 0,54,55
 428 116 428 116 410 116 c 2,0,-1
EndSplineSet
EndChar

StartChar: bullet
Encoding: 8226 8226 217
Width: 357
GlyphClass: 2
Flags: W
LayerCount: 2
Fore
SplineSet
83 264 m 128,-1,1
 83 303 83 303 111 331 c 128,-1,2
 139 359 139 359 178 359 c 128,-1,3
 217 359 217 359 245 331 c 128,-1,4
 273 303 273 303 273 264 c 128,-1,5
 273 225 273 225 245 197 c 128,-1,6
 217 169 217 169 178 169 c 128,-1,7
 139 169 139 169 111 197 c 128,-1,0
 83 225 83 225 83 264 c 128,-1,1
EndSplineSet
EndChar

StartChar: ellipsis
Encoding: 8230 8230 218
Width: 909
GlyphClass: 2
Flags: W
LayerCount: 2
Fore
SplineSet
247 -3 m 2,0,1
 247 -10 247 -10 152.5 -10 c 128,-1,2
 58 -10 58 -10 58 -4 c 2,3,-1
 58 176 l 2,4,5
 58 185 58 185 152.5 185 c 128,-1,6
 247 185 247 185 247 180 c 2,7,-1
 247 -3 l 2,0,1
550 -3 m 2,8,9
 550 -10 550 -10 455.5 -10 c 128,-1,10
 361 -10 361 -10 361 -4 c 2,11,-1
 361 176 l 2,12,13
 361 185 361 185 455.5 185 c 128,-1,14
 550 185 550 185 550 180 c 2,15,-1
 550 -3 l 2,8,9
853 -3 m 2,16,17
 853 -10 853 -10 758.5 -10 c 128,-1,18
 664 -10 664 -10 664 -4 c 2,19,-1
 664 176 l 2,20,21
 664 185 664 185 758.5 185 c 128,-1,22
 853 185 853 185 853 180 c 2,23,-1
 853 -3 l 2,16,17
EndSplineSet
EndChar

StartChar: perthousand
Encoding: 8240 8240 219
Width: 1006
GlyphClass: 2
Flags: W
LayerCount: 2
Fore
SplineSet
910 328 m 128,-1,1
 953 279 953 279 953 184.5 c 128,-1,2
 953 90 953 90 910.5 41 c 128,-1,3
 868 -8 868 -8 803 -8 c 128,-1,4
 738 -8 738 -8 700 30 c 1,5,6
 662 -8 662 -8 598 -8 c 128,-1,7
 534 -8 534 -8 491 39.5 c 128,-1,8
 448 87 448 87 448 183.5 c 128,-1,9
 448 280 448 280 490 328.5 c 128,-1,10
 532 377 532 377 596.5 377 c 128,-1,11
 661 377 661 377 699 339 c 1,12,13
 737 377 737 377 802 377 c 128,-1,0
 867 377 867 377 910 328 c 128,-1,1
578 702 m 1,14,15
 587 710 587 710 597 710 c 0,16,17
 634 710 634 710 664 673 c 0,18,19
 676 658 676 658 676 648.5 c 128,-1,20
 676 639 676 639 672 634 c 2,21,-1
 197 -2 l 1,22,23
 188 -10 188 -10 178 -10 c 0,24,25
 142 -10 142 -10 112 28 c 0,26,27
 99 43 99 43 99 52 c 128,-1,28
 99 61 99 61 103 66 c 2,29,-1
 578 702 l 1,14,15
297 662 m 128,-1,31
 340 613 340 613 340 518.5 c 128,-1,32
 340 424 340 424 297.5 375 c 128,-1,33
 255 326 255 326 188 326 c 128,-1,34
 121 326 121 326 78 373.5 c 128,-1,35
 35 421 35 421 35 517.5 c 128,-1,36
 35 614 35 614 77 662.5 c 128,-1,37
 119 711 119 711 186.5 711 c 128,-1,30
 254 711 254 711 297 662 c 128,-1,31
235 519 m 0,38,39
 235 584 235 584 188 584 c 128,-1,40
 141 584 141 584 141 519 c 0,41,42
 141 488 141 488 154 472 c 128,-1,43
 167 456 167 456 188 456 c 128,-1,44
 209 456 209 456 222 472 c 128,-1,45
 235 488 235 488 235 519 c 0,38,39
601 250 m 0,46,47
 554 250 554 250 554 185 c 0,48,49
 554 154 554 154 567 138 c 128,-1,50
 580 122 580 122 601 122 c 0,51,52
 647 122 647 122 648 184 c 1,53,-1
 648 191 l 1,54,55
 646 220 646 220 633 235 c 128,-1,56
 620 250 620 250 601 250 c 0,46,47
848 185 m 0,57,58
 848 250 848 250 801 250 c 128,-1,59
 754 250 754 250 754 185 c 0,60,61
 754 154 754 154 767 138 c 128,-1,62
 780 122 780 122 801 122 c 128,-1,63
 822 122 822 122 835 138 c 128,-1,64
 848 154 848 154 848 185 c 0,57,58
EndSplineSet
EndChar

StartChar: guilsinglleft
Encoding: 8249 8249 220
Width: 497
GlyphClass: 2
Flags: W
LayerCount: 2
Fore
SplineSet
99 236 m 1,0,1
 89 246 89 246 89 257 c 128,-1,2
 89 268 89 268 103 282 c 1,3,-1
 271 479 l 2,4,5
 277 485 277 485 286.5 485 c 128,-1,6
 296 485 296 485 316.5 473 c 128,-1,7
 337 461 337 461 348.5 441.5 c 128,-1,8
 360 422 360 422 360 412.5 c 128,-1,9
 360 403 360 403 353 397 c 1,10,-1
 221 255 l 1,11,-1
 355 111 l 1,12,13
 362 105 362 105 362 95.5 c 128,-1,14
 362 86 362 86 350.5 66.5 c 128,-1,15
 339 47 339 47 318.5 35 c 128,-1,16
 298 23 298 23 288.5 23 c 128,-1,17
 279 23 279 23 273 29 c 2,18,-1
 99 236 l 1,0,1
EndSplineSet
EndChar

StartChar: guilsinglright
Encoding: 8250 8250 221
Width: 443
GlyphClass: 2
Flags: W
LayerCount: 2
Fore
SplineSet
178 29 m 2,0,1
 171 22 171 22 161.5 22 c 128,-1,2
 152 22 152 22 132 34 c 128,-1,3
 112 46 112 46 100.5 66 c 128,-1,4
 89 86 89 86 89 95.5 c 128,-1,5
 89 105 89 105 96 111 c 1,6,-1
 230 255 l 1,7,-1
 98 397 l 1,8,9
 91 403 91 403 91 412.5 c 128,-1,10
 91 422 91 422 102.5 441.5 c 128,-1,11
 114 461 114 461 134 473 c 128,-1,12
 154 485 154 485 164 485 c 128,-1,13
 174 485 174 485 180 479 c 2,14,-1
 348 282 l 1,15,16
 362 268 362 268 362 257 c 128,-1,17
 362 246 362 246 352 236 c 1,18,-1
 178 29 l 2,0,1
EndSplineSet
EndChar

StartChar: fraction
Encoding: 8260 8260 222
Width: 313
GlyphClass: 2
Flags: W
LayerCount: 2
Fore
SplineSet
246 678 m 1,0,1
 251 689 251 689 265.5 689 c 128,-1,2
 280 689 280 689 296 682 c 0,3,4
 333 665 333 665 344 642 c 0,5,6
 348 635 348 635 348 629 c 128,-1,7
 348 623 348 623 346 619 c 2,8,-1
 18 49 l 2,9,10
 12 39 12 39 -3 39 c 128,-1,11
 -18 39 -18 39 -33 46 c 0,12,13
 -71 64 -71 64 -82 86 c 0,14,15
 -85 92 -85 92 -85 97.5 c 128,-1,16
 -85 103 -85 103 -82 108 c 2,17,-1
 246 678 l 1,0,1
EndSplineSet
EndChar

StartChar: Euro
Encoding: 8364 8364 223
Width: 574
GlyphClass: 2
Flags: W
LayerCount: 2
Fore
SplineSet
532 634 m 0,0,1
 532 614 532 614 520 576.5 c 128,-1,2
 508 539 508 539 492.5 514 c 128,-1,3
 477 489 477 489 467 489 c 0,4,5
 464 489 464 489 461 491 c 0,6,7
 432 512 432 512 365 512 c 0,8,9
 276 512 276 512 240 442 c 1,10,-1
 418 442 l 2,11,12
 432 442 432 442 438 426 c 0,13,14
 440 418 440 418 440 410 c 128,-1,15
 440 402 440 402 438 394 c 0,16,17
 432 378 432 378 418 378 c 2,18,-1
 227 378 l 1,19,20
 227 342 227 342 229 332 c 1,21,-1
 418 332 l 2,22,23
 432 332 432 332 437 320 c 128,-1,24
 442 308 442 308 442 300 c 128,-1,25
 442 292 442 292 439 284 c 0,26,27
 433 268 433 268 418 268 c 2,28,-1
 247 268 l 1,29,30
 297 190 297 190 380 190 c 0,31,32
 404 190 404 190 433 197.5 c 128,-1,33
 462 205 462 205 470.5 211.5 c 128,-1,34
 479 218 479 218 481 218 c 0,35,36
 489 218 489 218 503.5 193 c 128,-1,37
 518 168 518 168 531 131 c 128,-1,38
 544 94 544 94 544 77 c 0,39,40
 544 38 544 38 488 15 c 128,-1,41
 432 -8 432 -8 355 -8 c 0,42,43
 227 -8 227 -8 140.5 89 c 128,-1,44
 54 186 54 186 54 351.5 c 128,-1,45
 54 517 54 517 139.5 612.5 c 128,-1,46
 225 708 225 708 357 708 c 0,47,48
 426 708 426 708 479 687.5 c 128,-1,49
 532 667 532 667 532 634 c 0,0,1
EndSplineSet
EndChar

StartChar: trademark
Encoding: 8482 8482 224
Width: 803
GlyphClass: 2
Flags: W
LayerCount: 2
Fore
SplineSet
239 350 m 2,0,1
 239 333 239 333 179.5 333 c 128,-1,2
 120 333 120 333 120 350 c 2,3,-1
 120 588 l 1,4,-1
 72 588 l 2,5,6
 53 588 53 588 53 643.5 c 128,-1,7
 53 699 53 699 72 699 c 2,8,-1
 285 699 l 2,9,10
 305 699 305 699 305 643.5 c 128,-1,11
 305 588 305 588 285 588 c 2,12,-1
 239 588 l 1,13,-1
 239 350 l 2,0,1
745 353 m 2,14,15
 745 334 745 334 687 334 c 128,-1,16
 629 334 629 334 627 352 c 1,17,-1
 619 510 l 1,18,-1
 578 347 l 2,19,20
 574 334 574 334 534 334 c 128,-1,21
 494 334 494 334 490 347 c 2,22,-1
 448 512 l 1,23,-1
 441 351 l 2,24,25
 441 333 441 333 383 333 c 128,-1,26
 325 333 325 333 325 351 c 2,27,-1
 341 680 l 1,28,29
 344 704 344 704 410 704 c 0,30,31
 481 704 481 704 488 687 c 1,32,-1
 534 531 l 1,33,-1
 574 682 l 1,34,35
 584 703 584 703 639 703 c 0,36,37
 722 703 722 703 729 680 c 1,38,-1
 745 353 l 2,14,15
EndSplineSet
EndChar

StartChar: minus
Encoding: 8722 8722 225
Width: 603
GlyphClass: 2
Flags: W
LayerCount: 2
Fore
SplineSet
492 190 m 2,0,-1
 97 190 l 2,1,2
 79 190 79 190 71 219 c 0,3,4
 67 234 67 234 67 248 c 128,-1,5
 67 262 67 262 71 277 c 0,6,7
 79 306 79 306 97 306 c 2,8,-1
 492 306 l 2,9,10
 510 306 510 306 518 277 c 0,11,12
 522 262 522 262 522 248 c 128,-1,13
 522 234 522 234 518 219 c 0,14,15
 510 190 510 190 492 190 c 2,0,-1
EndSplineSet
EndChar

